<?xml version="1.0" encoding="UTF-8"?>
<svg id="Layer_1" xmlns="http://www.w3.org/2000/svg" version="1.1" viewBox="0 0 283.5 126">
  <!-- Generator: Adobe Illustrator 30.2.1, SVG Export Plug-In . SVG Version: 2.1.1 Build 1)  -->
  <defs>
    <style>
      .st0 {
        stroke: #231f20;
      }

      .st0, .st1 {
        fill: none;
        stroke-miterlimit: 10;
      }

      .st2 {
        fill: #231f20;
      }

      .st1 {
        stroke: #fbb040;
      }

      .st3 {
        fill: #fbb040;
      }
    </style>
  </defs>
  <g>
    <line class="st1" x1="36" y1="9" x2="36" y2="49.48"/>
    <polygon class="st3" points="32.86 48.56 36 54 39.14 48.56 32.86 48.56"/>
  </g>
  <g>
    <line class="st1" x1="45" y1="9" x2="45" y2="49.48"/>
    <polygon class="st3" points="41.86 48.56 45 54 48.14 48.56 41.86 48.56"/>
  </g>
  <g>
    <line class="st1" x1="54" y1="9" x2="54" y2="49.48"/>
    <polygon class="st3" points="50.86 48.56 54 54 57.14 48.56 50.86 48.56"/>
  </g>
  <g>
    <line class="st1" x1="27" y1="9" x2="27" y2="49.48"/>
    <polygon class="st3" points="23.86 48.56 27 54 30.14 48.56 23.86 48.56"/>
  </g>
  <g>
    <line class="st1" x1="18" y1="9" x2="18" y2="49.48"/>
    <polygon class="st3" points="14.86 48.56 18 54 21.14 48.56 14.86 48.56"/>
  </g>
  <g>
    <line class="st1" x1="9" y1="9" x2="9" y2="49.48"/>
    <polygon class="st3" points="5.86 48.56 9 54 12.14 48.56 5.86 48.56"/>
  </g>
  <g>
    <line class="st1" x1="108" y1="9" x2="108" y2="49.48"/>
    <polygon class="st3" points="104.86 48.56 108 54 111.14 48.56 104.86 48.56"/>
  </g>
  <g>
    <line class="st1" x1="117" y1="9" x2="117" y2="49.48"/>
    <polygon class="st3" points="113.86 48.56 117 54 120.14 48.56 113.86 48.56"/>
  </g>
  <g>
    <line class="st1" x1="126" y1="9" x2="126" y2="49.48"/>
    <polygon class="st3" points="122.86 48.56 126 54 129.14 48.56 122.86 48.56"/>
  </g>
  <g>
    <line class="st1" x1="99" y1="9" x2="99" y2="49.48"/>
    <polygon class="st3" points="95.86 48.56 99 54 102.14 48.56 95.86 48.56"/>
  </g>
  <g>
    <line class="st1" x1="90" y1="9" x2="90" y2="49.48"/>
    <polygon class="st3" points="86.86 48.56 90 54 93.14 48.56 86.86 48.56"/>
  </g>
  <g>
    <line class="st1" x1="81" y1="9" x2="81" y2="49.48"/>
    <polygon class="st3" points="77.86 48.56 81 54 84.14 48.56 77.86 48.56"/>
  </g>
  <g>
    <line class="st1" x1="180" y1="9" x2="180" y2="49.48"/>
    <polygon class="st3" points="176.86 48.56 180 54 183.14 48.56 176.86 48.56"/>
  </g>
  <g>
    <line class="st1" x1="189" y1="9" x2="189" y2="49.48"/>
    <polygon class="st3" points="185.86 48.56 189 54 192.14 48.56 185.86 48.56"/>
  </g>
  <g>
    <line class="st1" x1="198" y1="9" x2="198" y2="49.48"/>
    <polygon class="st3" points="194.86 48.56 198 54 201.14 48.56 194.86 48.56"/>
  </g>
  <g>
    <line class="st1" x1="171" y1="9" x2="171" y2="49.48"/>
    <polygon class="st3" points="167.86 48.56 171 54 174.14 48.56 167.86 48.56"/>
  </g>
  <g>
    <line class="st1" x1="162" y1="9" x2="162" y2="49.48"/>
    <polygon class="st3" points="158.86 48.56 162 54 165.14 48.56 158.86 48.56"/>
  </g>
  <g>
    <line class="st1" x1="153" y1="9" x2="153" y2="49.48"/>
    <polygon class="st3" points="149.86 48.56 153 54 156.14 48.56 149.86 48.56"/>
  </g>
  <g>
    <line class="st1" x1="252" y1="9" x2="252" y2="49.48"/>
    <polygon class="st3" points="248.86 48.56 252 54 255.14 48.56 248.86 48.56"/>
  </g>
  <g>
    <line class="st1" x1="261" y1="9" x2="261" y2="49.48"/>
    <polygon class="st3" points="257.86 48.56 261 54 264.14 48.56 257.86 48.56"/>
  </g>
  <g>
    <line class="st1" x1="270" y1="9" x2="270" y2="49.48"/>
    <polygon class="st3" points="266.86 48.56 270 54 273.14 48.56 266.86 48.56"/>
  </g>
  <g>
    <line class="st1" x1="243" y1="9" x2="243" y2="49.48"/>
    <polygon class="st3" points="239.86 48.56 243 54 246.14 48.56 239.86 48.56"/>
  </g>
  <g>
    <line class="st1" x1="234" y1="9" x2="234" y2="49.48"/>
    <polygon class="st3" points="230.86 48.56 234 54 237.14 48.56 230.86 48.56"/>
  </g>
  <g>
    <line class="st1" x1="225" y1="9" x2="225" y2="49.48"/>
    <polygon class="st3" points="221.86 48.56 225 54 228.14 48.56 221.86 48.56"/>
  </g>
  <g>
    <line class="st0" x1="9" y1="90" x2="54" y2="90"/>
    <g>
      <line class="st0" x1="31.5" y1="90" x2="31.5" y2="68.97"/>
      <polygon class="st2" points="35.2 71.78 31.5 70.21 27.8 71.78 31.5 63 35.2 71.78"/>
    </g>
  </g>
  <g>
    <line class="st0" x1="87.59" y1="74.09" x2="119.41" y2="105.91"/>
    <g>
      <line class="st0" x1="103.5" y1="90" x2="118.37" y2="75.13"/>
      <polygon class="st2" points="119 79.73 117.5 76 113.77 74.5 122.59 70.91 119 79.73"/>
    </g>
  </g>
  <g>
    <line class="st0" x1="166.5" y1="69.38" x2="184.5" y2="110.62"/>
    <g>
      <line class="st0" x1="175.5" y1="90" x2="194.77" y2="81.59"/>
      <polygon class="st2" points="193.68 86.11 193.64 82.08 190.72 79.32 200.25 79.2 193.68 86.11"/>
    </g>
  </g>
  <g>
    <line class="st0" x1="247.5" y1="67.5" x2="247.5" y2="112.5"/>
    <g>
      <line class="st0" x1="247.5" y1="90" x2="268.53" y2="90"/>
      <polygon class="st2" points="265.72 93.7 267.29 90 265.72 86.3 274.5 90 265.72 93.7"/>
    </g>
  </g>
</svg>