<?xml version="1.0" encoding="UTF-8"?>
<svg id="Layer_1" xmlns="http://www.w3.org/2000/svg" version="1.1" viewBox="0 0 247.5 153">
  <!-- Generator: Adobe Illustrator 30.2.1, SVG Export Plug-In . SVG Version: 2.1.1 Build 1)  -->
  <defs>
    <style>
      .st0 {
        fill: #fff;
      }

      .st0, .st1, .st2 {
        stroke: #231f20;
        stroke-miterlimit: 10;
      }

      .st1 {
        fill: #a0a0a0;
      }

      .st2 {
        fill: none;
        stroke-width: 3px;
      }
    </style>
  </defs>
  <g>
    <polygon class="st0" points="4.5 4.5 4.5 22.5 22.5 22.5 4.5 4.5"/>
    <polygon class="st1" points="4.5 22.5 4.5 40.5 22.5 40.5 4.5 22.5"/>
    <polygon class="st0" points="22.5 22.5 22.5 40.5 40.5 40.5 22.5 22.5"/>
    <polygon class="st0" points="4.5 40.5 4.5 58.5 22.5 58.5 4.5 40.5"/>
    <polygon class="st1" points="4.5 58.5 4.5 76.5 22.5 76.5 4.5 58.5"/>
    <polygon class="st1" points="22.5 40.5 22.5 58.5 40.5 58.5 22.5 40.5"/>
    <polygon class="st0" points="40.5 40.5 40.5 58.5 58.5 58.5 40.5 40.5"/>
    <polygon class="st1" points="4.5 22.5 22.5 22.5 22.5 40.5 4.5 22.5"/>
    <polygon class="st1" points="22.5 40.5 40.5 40.5 40.5 58.5 22.5 40.5"/>
    <polygon class="st0" points="4.5 40.5 22.5 40.5 22.5 58.5 4.5 40.5"/>
    <polygon class="st1" points="4.5 58.5 22.5 58.5 22.5 76.5 4.5 58.5"/>
    <polygon class="st0" points="22.5 58.5 22.5 76.5 40.5 76.5 22.5 58.5"/>
    <polygon class="st0" points="22.5 58.5 40.5 58.5 40.5 76.5 22.5 58.5"/>
    <polygon class="st1" points="40.5 58.5 40.5 76.5 58.5 76.5 40.5 58.5"/>
    <polygon class="st0" points="58.5 58.5 58.5 76.5 76.5 76.5 58.5 58.5"/>
    <polygon class="st1" points="40.5 58.5 58.5 58.5 58.5 76.5 40.5 58.5"/>
    <polygon class="st0" points="76.5 76.5 76.5 94.5 94.5 94.5 76.5 76.5"/>
    <polygon class="st1" points="76.5 94.5 76.5 112.5 94.5 112.5 76.5 94.5"/>
    <polygon class="st0" points="94.5 94.5 94.5 112.5 112.5 112.5 94.5 94.5"/>
    <polygon class="st0" points="76.5 112.5 76.5 130.5 94.5 130.5 76.5 112.5"/>
    <polygon class="st1" points="76.5 130.5 76.5 148.5 94.5 148.5 76.5 130.5"/>
    <polygon class="st1" points="94.5 112.5 94.5 130.5 112.5 130.5 94.5 112.5"/>
    <polygon class="st0" points="112.5 112.5 112.5 130.5 130.5 130.5 112.5 112.5"/>
    <polygon class="st1" points="76.5 94.5 94.5 94.5 94.5 112.5 76.5 94.5"/>
    <polygon class="st1" points="94.5 112.5 112.5 112.5 112.5 130.5 94.5 112.5"/>
    <polygon class="st0" points="76.5 112.5 94.5 112.5 94.5 130.5 76.5 112.5"/>
    <polygon class="st1" points="76.5 130.5 94.5 130.5 94.5 148.5 76.5 130.5"/>
    <polygon class="st0" points="94.5 130.5 94.5 148.5 112.5 148.5 94.5 130.5"/>
    <polygon class="st0" points="94.5 130.5 112.5 130.5 112.5 148.5 94.5 130.5"/>
    <polygon class="st0" points="4.5 76.5 4.5 94.5 22.5 94.5 4.5 76.5"/>
    <polygon class="st1" points="4.5 94.5 4.5 112.5 22.5 112.5 4.5 94.5"/>
    <polygon class="st1" points="22.5 76.5 22.5 94.5 40.5 94.5 22.5 76.5"/>
    <polygon class="st1" points="22.5 76.5 40.5 76.5 40.5 94.5 22.5 76.5"/>
    <polygon class="st0" points="4.5 76.5 22.5 76.5 22.5 94.5 4.5 76.5"/>
    <polygon class="st1" points="4.5 94.5 22.5 94.5 22.5 112.5 4.5 94.5"/>
    <polygon class="st0" points="22.5 94.5 22.5 112.5 40.5 112.5 22.5 94.5"/>
    <polygon class="st0" points="22.5 94.5 40.5 94.5 40.5 112.5 22.5 94.5"/>
    <polygon class="st0" points="40.5 76.5 40.5 94.5 58.5 94.5 40.5 76.5"/>
    <polygon class="st1" points="40.5 94.5 40.5 112.5 58.5 112.5 40.5 94.5"/>
    <polygon class="st1" points="58.5 76.5 58.5 94.5 76.5 94.5 58.5 76.5"/>
    <polygon class="st1" points="58.5 76.5 76.5 76.5 76.5 94.5 58.5 76.5"/>
    <polygon class="st0" points="40.5 76.5 58.5 76.5 58.5 94.5 40.5 76.5"/>
    <polygon class="st1" points="40.5 94.5 58.5 94.5 58.5 112.5 40.5 94.5"/>
    <polygon class="st0" points="58.5 94.5 58.5 112.5 76.5 112.5 58.5 94.5"/>
    <polygon class="st0" points="58.5 94.5 76.5 94.5 76.5 112.5 58.5 94.5"/>
    <polygon class="st0" points="40.5 112.5 40.5 130.5 58.5 130.5 40.5 112.5"/>
    <polygon class="st1" points="40.5 130.5 40.5 148.5 58.5 148.5 40.5 130.5"/>
    <polygon class="st1" points="58.5 112.5 58.5 130.5 76.5 130.5 58.5 112.5"/>
    <polygon class="st1" points="58.5 112.5 76.5 112.5 76.5 130.5 58.5 112.5"/>
    <polygon class="st0" points="40.5 112.5 58.5 112.5 58.5 130.5 40.5 112.5"/>
    <polygon class="st1" points="40.5 130.5 58.5 130.5 58.5 148.5 40.5 130.5"/>
    <polygon class="st0" points="58.5 130.5 58.5 148.5 76.5 148.5 58.5 130.5"/>
    <polygon class="st0" points="58.5 130.5 76.5 130.5 76.5 148.5 58.5 130.5"/>
    <polygon class="st0" points="4.5 112.5 4.5 130.5 22.5 130.5 4.5 112.5"/>
    <polygon class="st1" points="4.5 130.5 4.5 148.5 22.5 148.5 4.5 130.5"/>
    <polygon class="st1" points="22.5 112.5 22.5 130.5 40.5 130.5 22.5 112.5"/>
    <polygon class="st1" points="22.5 112.5 40.5 112.5 40.5 130.5 22.5 112.5"/>
    <polygon class="st0" points="4.5 112.5 22.5 112.5 22.5 130.5 4.5 112.5"/>
    <polygon class="st1" points="4.5 130.5 22.5 130.5 22.5 148.5 4.5 130.5"/>
    <polygon class="st0" points="22.5 130.5 22.5 148.5 40.5 148.5 22.5 130.5"/>
    <polygon class="st0" points="22.5 130.5 40.5 130.5 40.5 148.5 22.5 130.5"/>
    <polygon class="st1" points="112.5 130.5 112.5 148.5 130.5 148.5 112.5 130.5"/>
    <polygon class="st0" points="130.5 130.5 130.5 148.5 148.5 148.5 130.5 130.5"/>
    <polygon class="st1" points="112.5 130.5 130.5 130.5 130.5 148.5 112.5 130.5"/>
    <polygon class="st2" points="4.5 4.5 4.5 148.5 148.5 148.5 4.5 4.5"/>
  </g>
  <g>
    <polygon class="st0" points="189.15 45 187.44 49.79 194.64 52.14 189.15 45"/>
    <polygon class="st1" points="187.44 49.79 185.73 54.58 192.93 56.94 187.44 49.79"/>
    <polygon class="st0" points="194.64 52.14 192.93 56.94 200.13 59.29 194.64 52.14"/>
    <polygon class="st0" points="185.73 54.58 184.03 59.37 191.22 61.73 185.73 54.58"/>
    <polygon class="st1" points="184.03 59.37 182.32 64.17 189.52 66.52 184.03 59.37"/>
    <polygon class="st1" points="192.93 56.94 191.22 61.73 198.42 64.08 192.93 56.94"/>
    <polygon class="st0" points="200.13 59.29 198.42 64.08 205.62 66.43 200.13 59.29"/>
    <polygon class="st1" points="187.44 49.79 194.64 52.14 192.93 56.94 187.44 49.79"/>
    <polygon class="st1" points="192.93 56.94 200.13 59.29 198.42 64.08 192.93 56.94"/>
    <polygon class="st0" points="185.73 54.58 192.93 56.94 191.22 61.73 185.73 54.58"/>
    <polygon class="st1" points="184.03 59.37 191.22 61.73 189.52 66.52 184.03 59.37"/>
    <polygon class="st0" points="191.22 61.73 189.52 66.52 196.72 68.87 191.22 61.73"/>
    <polygon class="st0" points="191.22 61.73 198.42 64.08 196.72 68.87 191.22 61.73"/>
    <polygon class="st1" points="198.42 64.08 196.72 68.87 203.91 71.22 198.42 64.08"/>
    <polygon class="st0" points="205.62 66.43 203.91 71.22 211.11 73.58 205.62 66.43"/>
    <polygon class="st1" points="198.42 64.08 205.62 66.43 203.91 71.22 198.42 64.08"/>
    <polygon class="st0" points="211.11 73.58 209.4 78.37 216.6 80.72 211.11 73.58"/>
    <polygon class="st1" points="209.4 78.37 207.7 83.16 214.89 85.51 209.4 78.37"/>
    <polygon class="st0" points="216.6 80.72 214.89 85.51 222.09 87.86 216.6 80.72"/>
    <polygon class="st0" points="207.7 83.16 205.99 87.95 213.19 90.3 207.7 83.16"/>
    <polygon class="st1" points="205.99 87.95 204.29 92.74 211.48 95.09 205.99 87.95"/>
    <polygon class="st1" points="214.89 85.51 213.19 90.3 220.38 92.66 214.89 85.51"/>
    <polygon class="st0" points="222.09 87.86 220.38 92.66 227.58 95.01 222.09 87.86"/>
    <polygon class="st1" points="209.4 78.37 216.6 80.72 214.89 85.51 209.4 78.37"/>
    <polygon class="st1" points="214.89 85.51 222.09 87.86 220.38 92.66 214.89 85.51"/>
    <polygon class="st0" points="207.7 83.16 214.89 85.51 213.19 90.3 207.7 83.16"/>
    <polygon class="st1" points="205.99 87.95 213.19 90.3 211.48 95.09 205.99 87.95"/>
    <polygon class="st0" points="213.19 90.3 211.48 95.09 218.68 97.45 213.19 90.3"/>
    <polygon class="st0" points="213.19 90.3 220.38 92.66 218.68 97.45 213.19 90.3"/>
    <polygon class="st0" points="182.32 64.17 180.62 68.96 187.81 71.31 182.32 64.17"/>
    <polygon class="st1" points="180.62 68.96 178.91 73.75 186.11 76.1 180.62 68.96"/>
    <polygon class="st1" points="189.52 66.52 187.81 71.31 195.01 73.66 189.52 66.52"/>
    <polygon class="st1" points="189.52 66.52 196.72 68.87 195.01 73.66 189.52 66.52"/>
    <polygon class="st0" points="182.32 64.17 189.52 66.52 187.81 71.31 182.32 64.17"/>
    <polygon class="st1" points="180.62 68.96 187.81 71.31 186.11 76.1 180.62 68.96"/>
    <polygon class="st0" points="187.81 71.31 186.11 76.1 193.3 78.45 187.81 71.31"/>
    <polygon class="st0" points="187.81 71.31 195.01 73.66 193.3 78.45 187.81 71.31"/>
    <polygon class="st0" points="196.72 68.87 195.01 73.66 202.21 76.02 196.72 68.87"/>
    <polygon class="st1" points="195.01 73.66 193.3 78.45 200.5 80.81 195.01 73.66"/>
    <polygon class="st1" points="203.91 71.22 202.21 76.02 209.4 78.37 203.91 71.22"/>
    <polygon class="st1" points="203.91 71.22 211.11 73.58 209.4 78.37 203.91 71.22"/>
    <polygon class="st0" points="196.72 68.87 203.91 71.22 202.21 76.02 196.72 68.87"/>
    <polygon class="st1" points="195.01 73.66 202.21 76.02 200.5 80.81 195.01 73.66"/>
    <polygon class="st0" points="202.21 76.02 200.5 80.81 207.7 83.16 202.21 76.02"/>
    <polygon class="st0" points="202.21 76.02 209.4 78.37 207.7 83.16 202.21 76.02"/>
    <polygon class="st0" points="193.3 78.45 191.6 83.25 198.8 85.6 193.3 78.45"/>
    <polygon class="st1" points="191.6 83.25 189.89 88.04 197.09 90.39 191.6 83.25"/>
    <polygon class="st1" points="200.5 80.81 198.8 85.6 205.99 87.95 200.5 80.81"/>
    <polygon class="st1" points="200.5 80.81 207.7 83.16 205.99 87.95 200.5 80.81"/>
    <polygon class="st0" points="193.3 78.45 200.5 80.81 198.8 85.6 193.3 78.45"/>
    <polygon class="st1" points="191.6 83.25 198.8 85.6 197.09 90.39 191.6 83.25"/>
    <polygon class="st0" points="198.8 85.6 197.09 90.39 204.29 92.74 198.8 85.6"/>
    <polygon class="st0" points="198.8 85.6 205.99 87.95 204.29 92.74 198.8 85.6"/>
    <polygon class="st0" points="178.91 73.75 177.21 78.54 184.4 80.89 178.91 73.75"/>
    <polygon class="st1" points="177.21 78.54 175.5 83.33 182.7 85.69 177.21 78.54"/>
    <polygon class="st1" points="186.11 76.1 184.4 80.89 191.6 83.25 186.11 76.1"/>
    <polygon class="st1" points="186.11 76.1 193.3 78.45 191.6 83.25 186.11 76.1"/>
    <polygon class="st0" points="178.91 73.75 186.11 76.1 184.4 80.89 178.91 73.75"/>
    <polygon class="st1" points="177.21 78.54 184.4 80.89 182.7 85.69 177.21 78.54"/>
    <polygon class="st0" points="184.4 80.89 182.7 85.69 189.89 88.04 184.4 80.89"/>
    <polygon class="st0" points="184.4 80.89 191.6 83.25 189.89 88.04 184.4 80.89"/>
    <polygon class="st1" points="220.38 92.66 218.68 97.45 225.88 99.8 220.38 92.66"/>
    <polygon class="st0" points="227.58 95.01 225.88 99.8 233.07 102.15 227.58 95.01"/>
    <polygon class="st1" points="220.38 92.66 227.58 95.01 225.88 99.8 220.38 92.66"/>
    <polygon class="st2" points="189.15 45 175.5 83.33 233.07 102.15 189.15 45"/>
  </g>
</svg>