<?xml version="1.0" encoding="UTF-8"?>
<svg id="Layer_1" xmlns="http://www.w3.org/2000/svg" version="1.1" viewBox="0 0 292.5 130.5">
  <!-- Generator: Adobe Illustrator 30.2.1, SVG Export Plug-In . SVG Version: 2.1.1 Build 1)  -->
  <defs>
    <style>
      .st0 {
        fill: #231f20;
        font-family: ArialMT, Arial;
        font-size: 8px;
      }

      .st1 {
        stroke: #a0a0a0;
      }

      .st1, .st2, .st3, .st4, .st5 {
        stroke-miterlimit: 10;
      }

      .st1, .st2, .st4 {
        fill: none;
      }

      .st2 {
        stroke: #ed1c24;
      }

      .st6 {
        fill: #ed1c24;
      }

      .st7 {
        fill: #a0a0a0;
      }

      .st3 {
        stroke-width: 3px;
      }

      .st3, .st5 {
        fill: #fff;
        stroke: #231f20;
      }

      .st4 {
        stroke: #000;
      }
    </style>
  </defs>
  <rect class="st5" x="4.5" y="4.5" width="144" height="103.5"/>
  <polygon class="st3" points="40.5 49.5 18 94.5 81 76.5 40.5 49.5"/>
  <text class="st0" transform="translate(32.71 121.5)"><tspan x="0" y="0">Positions on screen (x,y)</tspan></text>
  <text class="st0" transform="translate(195.59 121.5)"><tspan x="0" y="0">Positions in texture (u,v)</tspan></text>
  <rect class="st2" x="42.75" y="60.75" width="4.5" height="4.5"/>
  <rect class="st2" x="222.75" y="20.25" width="4.5" height="4.5"/>
  <rect class="st4" x="184.5" y="4.5" width="103.5" height="103.5"/>
  <polygon class="st1" points="238.5 18 198 18 198 63 238.5 18"/>
  <g>
    <path class="st1" d="M40.5,49.5c4.27-8.55,150.56-57.67,192.27-35.63"/>
    <polygon class="st7" points="238.5 18 228.01 15.67 232.26 13.68 232.64 8.99 238.5 18"/>
  </g>
  <g>
    <path class="st1" d="M81,76.5c12.05-8.03,85.03-59.07,110.18-60.36"/>
    <polygon class="st7" points="198 18 187.39 19.73 190.6 16.3 189.22 11.81 198 18"/>
  </g>
  <g>
    <path class="st1" d="M18,94.5c16.84,4.21,143.95-3.4,175.01-26.5"/>
    <polygon class="st7" points="198 63 193.63 72.82 192.52 68.25 188 66.95 198 63"/>
  </g>
  <g>
    <path class="st2" d="M45,63c4.18-12.53,140.08-56.05,174.04-44.29"/>
    <polygon class="st6" points="225 22.5 214.37 20.89 218.48 18.61 218.54 13.91 225 22.5"/>
  </g>
  <rect class="st2" x="24.75" y="83.25" width="4.5" height="4.5"/>
  <rect class="st2" x="200.25" y="47.25" width="4.5" height="4.5"/>
  <g>
    <path class="st2" d="M27,85.5c12.55-8.36,133.91-47.82,169.06-38.91"/>
    <polygon class="st6" points="202.5 49.5 191.75 49.4 195.5 46.57 194.9 41.91 202.5 49.5"/>
  </g>
</svg>