<?xml version="1.0" encoding="UTF-8"?>
<svg xmlns="http://www.w3.org/2000/svg" xmlns:xlink="http://www.w3.org/1999/xlink"
     width="537" height="202" viewBox="0 0 537.28 201.72">
  <defs>
    
  </defs>
  <rect x="4.80" y="5.20" width="31.94" height="31.94" fill="#D9E2F3" stroke="#223962" stroke-width="3.00" />
  <rect x="4.80" y="37.17" width="31.94" height="31.94" fill="#335593" stroke="#223962" stroke-width="3.00" />
  <rect x="4.80" y="69.11" width="31.94" height="31.94" fill="#D9E2F3" stroke="#223962" stroke-width="3.00" />
  <rect x="4.80" y="101.07" width="31.94" height="31.94" fill="#335593" stroke="#223962" stroke-width="3.00" />
  <rect x="4.80" y="133.04" width="31.94" height="31.94" fill="#D9E2F3" stroke="#223962" stroke-width="3.00" />
  <rect x="4.80" y="164.98" width="31.94" height="31.94" fill="#335593" stroke="#223962" stroke-width="3.00" />
  <rect x="36.74" y="164.98" width="31.94" height="31.94" fill="#D9E2F3" stroke="#223962" stroke-width="3.00" />
  <rect x="68.71" y="164.98" width="31.94" height="31.94" fill="#335593" stroke="#223962" stroke-width="3.00" />
  <rect x="100.62" y="164.98" width="31.94" height="31.94" fill="#D9E2F3" stroke="#223962" stroke-width="3.00" />
  <rect x="132.62" y="164.98" width="31.94" height="31.94" fill="#335593" stroke="#223962" stroke-width="3.00" />
  <rect x="164.48" y="164.98" width="31.94" height="31.94" fill="#D9E2F3" stroke="#223962" stroke-width="3.00" />
  <rect x="36.74" y="5.20" width="31.94" height="31.94" fill="#335593" stroke="#223962" stroke-width="3.00" />
  <rect x="36.74" y="37.17" width="31.94" height="31.94" fill="#D9E2F3" stroke="#223962" stroke-width="3.00" />
  <rect x="36.74" y="69.11" width="31.94" height="31.94" fill="#335593" stroke="#223962" stroke-width="3.00" />
  <rect x="36.74" y="101.07" width="31.94" height="31.94" fill="#D9E2F3" stroke="#223962" stroke-width="3.00" />
  <rect x="36.74" y="133.04" width="31.94" height="31.94" fill="#335593" stroke="#223962" stroke-width="3.00" />
  <rect x="68.65" y="5.20" width="31.94" height="31.94" fill="#D9E2F3" stroke="#223962" stroke-width="3.00" />
  <rect x="68.65" y="37.17" width="31.94" height="31.94" fill="#335593" stroke="#223962" stroke-width="3.00" />
  <rect x="68.65" y="69.11" width="31.94" height="31.94" fill="#D9E2F3" stroke="#223962" stroke-width="3.00" />
  <rect x="68.65" y="101.07" width="31.94" height="31.94" fill="#335593" stroke="#223962" stroke-width="3.00" />
  <rect x="68.65" y="133.04" width="31.94" height="31.94" fill="#D9E2F3" stroke="#223962" stroke-width="3.00" />
  <rect x="100.61" y="5.20" width="31.94" height="31.94" fill="#335593" stroke="#223962" stroke-width="3.00" />
  <rect x="100.61" y="69.11" width="31.94" height="31.94" fill="#335593" stroke="#223962" stroke-width="3.00" />
  <rect x="100.61" y="101.07" width="31.94" height="31.94" fill="#D9E2F3" stroke="#223962" stroke-width="3.00" />
  <rect x="132.55" y="5.20" width="31.94" height="31.94" fill="#D9E2F3" stroke="#223962" stroke-width="3.00" />
  <rect x="132.55" y="37.17" width="31.94" height="31.94" fill="#335593" stroke="#223962" stroke-width="3.00" />
  <rect x="132.55" y="69.10" width="31.94" height="31.94" fill="#D9E2F3" stroke="#223962" stroke-width="3.00" />
  <rect x="132.55" y="101.07" width="31.94" height="31.94" fill="#335593" stroke="#223962" stroke-width="3.00" />
  <rect x="132.55" y="133.04" width="31.94" height="31.94" fill="#D9E2F3" stroke="#223962" stroke-width="3.00" />
  <rect x="164.46" y="5.20" width="31.94" height="31.94" fill="#335593" stroke="#223962" stroke-width="3.00" />
  <rect x="164.46" y="37.17" width="31.94" height="31.94" fill="#D9E2F3" stroke="#223962" stroke-width="3.00" />
  <rect x="164.46" y="69.10" width="31.94" height="31.94" fill="#335593" stroke="#223962" stroke-width="3.00" />
  <rect x="164.46" y="101.07" width="31.94" height="31.94" fill="#D9E2F3" stroke="#223962" stroke-width="3.00" />
  <rect x="164.46" y="133.04" width="31.94" height="31.94" fill="#335593" stroke="#223962" stroke-width="3.00" />
  <rect x="100.59" y="37.15" width="31.94" height="31.94" fill="#D9E2F3" stroke="#223962" stroke-width="3.00" />
  <rect x="100.59" y="132.64" width="31.94" height="31.94" fill="#335593" stroke="#223962" stroke-width="3.00" />
  <path d="M 208.83 94.86 L 289.54 94.86 L 289.54 84.55 L 324.13 105.17 L 289.54 125.78 L 289.54 115.48 L 208.83 115.48 Z" fill="#FFE599" stroke="#223962" stroke-width="1.33" />
  <rect x="340.86" y="4.80" width="31.94" height="31.94" fill="#8EAADB" stroke="#223962" stroke-width="3.00" />
  <rect x="340.86" y="36.77" width="31.94" height="31.94" fill="#8EAADB" stroke="#223962" stroke-width="3.00" />
  <rect x="340.86" y="68.71" width="31.94" height="31.94" fill="#8EAADB" stroke="#223962" stroke-width="3.00" />
  <rect x="340.86" y="100.68" width="31.94" height="31.94" fill="#8EAADB" stroke="#223962" stroke-width="3.00" />
  <rect x="340.86" y="132.64" width="31.94" height="31.94" fill="#8EAADB" stroke="#223962" stroke-width="3.00" />
  <rect x="340.86" y="164.58" width="31.94" height="31.94" fill="#8EAADB" stroke="#223962" stroke-width="3.00" />
  <rect x="372.80" y="164.58" width="31.94" height="31.94" fill="#8EAADB" stroke="#223962" stroke-width="3.00" />
  <rect x="404.77" y="164.58" width="31.94" height="31.94" fill="#8EAADB" stroke="#223962" stroke-width="3.00" />
  <rect x="436.68" y="164.58" width="31.94" height="31.94" fill="#8EAADB" stroke="#223962" stroke-width="3.00" />
  <rect x="468.68" y="164.58" width="31.94" height="31.94" fill="#8EAADB" stroke="#223962" stroke-width="3.00" />
  <rect x="500.54" y="164.58" width="31.94" height="31.94" fill="#8EAADB" stroke="#223962" stroke-width="3.00" />
  <rect x="372.80" y="4.80" width="31.94" height="31.94" fill="#8EAADB" stroke="#223962" stroke-width="3.00" />
  <rect x="372.80" y="36.77" width="31.94" height="31.94" fill="#8EAADB" stroke="#223962" stroke-width="3.00" />
  <rect x="372.80" y="68.71" width="31.94" height="31.94" fill="#8EAADB" stroke="#223962" stroke-width="3.00" />
  <rect x="372.80" y="100.68" width="31.94" height="31.94" fill="#8EAADB" stroke="#223962" stroke-width="3.00" />
  <rect x="372.80" y="132.64" width="31.94" height="31.94" fill="#8EAADB" stroke="#223962" stroke-width="3.00" />
  <rect x="404.71" y="4.80" width="31.94" height="31.94" fill="#8EAADB" stroke="#223962" stroke-width="3.00" />
  <rect x="404.71" y="36.77" width="31.94" height="31.94" fill="#8EAADB" stroke="#223962" stroke-width="3.00" />
  <rect x="404.71" y="68.71" width="31.94" height="31.94" fill="#8EAADB" stroke="#223962" stroke-width="3.00" />
  <rect x="404.71" y="100.68" width="31.94" height="31.94" fill="#8EAADB" stroke="#223962" stroke-width="3.00" />
  <rect x="404.71" y="132.64" width="31.94" height="31.94" fill="#8EAADB" stroke="#223962" stroke-width="3.00" />
  <rect x="436.67" y="4.80" width="31.94" height="31.94" fill="#8EAADB" stroke="#223962" stroke-width="3.00" />
  <rect x="436.67" y="68.71" width="31.94" height="31.94" fill="#8EAADB" stroke="#223962" stroke-width="3.00" />
  <rect x="436.67" y="100.68" width="31.94" height="31.94" fill="#8EAADB" stroke="#223962" stroke-width="3.00" />
  <rect x="468.61" y="4.80" width="31.94" height="31.94" fill="#8EAADB" stroke="#223962" stroke-width="3.00" />
  <rect x="468.61" y="36.77" width="31.94" height="31.94" fill="#8EAADB" stroke="#223962" stroke-width="3.00" />
  <rect x="468.61" y="68.71" width="31.94" height="31.94" fill="#8EAADB" stroke="#223962" stroke-width="3.00" />
  <rect x="468.61" y="100.67" width="31.94" height="31.94" fill="#8EAADB" stroke="#223962" stroke-width="3.00" />
  <rect x="468.61" y="132.64" width="31.94" height="31.94" fill="#8EAADB" stroke="#223962" stroke-width="3.00" />
  <rect x="500.52" y="4.80" width="31.94" height="31.94" fill="#8EAADB" stroke="#223962" stroke-width="3.00" />
  <rect x="500.52" y="36.77" width="31.94" height="31.94" fill="#8EAADB" stroke="#223962" stroke-width="3.00" />
  <rect x="500.52" y="68.71" width="31.94" height="31.94" fill="#8EAADB" stroke="#223962" stroke-width="3.00" />
  <rect x="500.52" y="100.67" width="31.94" height="31.94" fill="#8EAADB" stroke="#223962" stroke-width="3.00" />
  <rect x="500.52" y="132.64" width="31.94" height="31.94" fill="#8EAADB" stroke="#223962" stroke-width="3.00" />
  <rect x="436.65" y="36.75" width="31.94" height="31.94" fill="#8EAADB" stroke="#223962" stroke-width="3.00" />
  <rect x="436.65" y="132.25" width="31.94" height="31.94" fill="#8EAADB" stroke="#223962" stroke-width="3.00" />
</svg>