<?xml version="1.0" encoding="UTF-8"?>
<svg xmlns="http://www.w3.org/2000/svg" xmlns:xlink="http://www.w3.org/1999/xlink"
     width="409" height="409" viewBox="0 0 408.83 409.05">
  <defs>
    
  </defs>
  <path d="M 301.90 48.94 L 391.26 240.22 L 238.42 387.14 L 301.90 48.94 Z" fill="#FFC000" stroke="#223962" stroke-width="1.33" />
  <path d="M 301.42 50.68 L 13.42 236.53 L 238.65 387.91 L 301.42 50.68 Z" fill="#4472C4" stroke="#223962" stroke-width="1.33" />
  <rect x="4.80" y="4.81" width="66.55" height="66.55" fill="none" stroke="#223962" stroke-width="3.00" />
  <rect x="4.80" y="71.41" width="66.55" height="66.55" fill="none" stroke="#223962" stroke-width="3.00" />
  <rect x="4.80" y="137.95" width="66.55" height="66.55" fill="none" stroke="#223962" stroke-width="3.00" />
  <rect x="4.80" y="204.56" width="66.55" height="66.55" fill="none" stroke="#223962" stroke-width="3.00" />
  <rect x="4.80" y="271.16" width="66.55" height="66.55" fill="none" stroke="#223962" stroke-width="3.00" />
  <rect x="4.80" y="337.71" width="66.55" height="66.55" fill="none" stroke="#223962" stroke-width="3.00" />
  <rect x="71.35" y="337.71" width="66.55" height="66.55" fill="none" stroke="#223962" stroke-width="3.00" />
  <rect x="137.95" y="337.71" width="66.55" height="66.55" fill="none" stroke="#223962" stroke-width="3.00" />
  <rect x="204.44" y="337.71" width="66.55" height="66.55" fill="none" stroke="#223962" stroke-width="3.00" />
  <rect x="271.11" y="337.71" width="66.55" height="66.55" fill="none" stroke="#223962" stroke-width="3.00" />
  <rect x="337.48" y="337.71" width="66.55" height="66.55" fill="none" stroke="#223962" stroke-width="3.00" />
  <rect x="71.35" y="4.80" width="66.55" height="66.55" fill="none" stroke="#223962" stroke-width="3.00" />
  <rect x="71.35" y="71.41" width="66.55" height="66.55" fill="none" stroke="#223962" stroke-width="3.00" />
  <rect x="71.35" y="137.95" width="66.55" height="66.55" fill="none" stroke="#223962" stroke-width="3.00" />
  <rect x="71.35" y="204.55" width="66.55" height="66.55" fill="none" stroke="#223962" stroke-width="3.00" />
  <rect x="71.35" y="271.16" width="66.55" height="66.55" fill="none" stroke="#223962" stroke-width="3.00" />
  <rect x="137.84" y="4.80" width="66.55" height="66.55" fill="none" stroke="#223962" stroke-width="3.00" />
  <rect x="137.84" y="71.41" width="66.55" height="66.55" fill="none" stroke="#223962" stroke-width="3.00" />
  <rect x="137.84" y="137.95" width="66.55" height="66.55" fill="none" stroke="#223962" stroke-width="3.00" />
  <rect x="137.84" y="204.55" width="66.55" height="66.55" fill="none" stroke="#223962" stroke-width="3.00" />
  <rect x="137.84" y="271.16" width="66.55" height="66.55" fill="none" stroke="#223962" stroke-width="3.00" />
  <rect x="204.42" y="4.80" width="66.55" height="66.55" fill="none" stroke="#223962" stroke-width="3.00" />
  <rect x="204.42" y="71.41" width="66.55" height="66.55" fill="none" stroke="#223962" stroke-width="3.00" />
  <rect x="204.42" y="137.95" width="66.55" height="66.55" fill="none" stroke="#223962" stroke-width="3.00" />
  <rect x="204.42" y="204.55" width="66.55" height="66.55" fill="none" stroke="#223962" stroke-width="3.00" />
  <rect x="204.42" y="271.16" width="66.55" height="66.55" fill="none" stroke="#223962" stroke-width="3.00" />
  <rect x="270.96" y="4.80" width="66.55" height="66.55" fill="none" stroke="#223962" stroke-width="3.00" />
  <rect x="270.96" y="71.40" width="66.55" height="66.55" fill="none" stroke="#223962" stroke-width="3.00" />
  <rect x="270.96" y="137.95" width="66.55" height="66.55" fill="none" stroke="#223962" stroke-width="3.00" />
  <rect x="270.96" y="204.55" width="66.55" height="66.55" fill="none" stroke="#223962" stroke-width="3.00" />
  <rect x="270.96" y="271.15" width="66.55" height="66.55" fill="none" stroke="#223962" stroke-width="3.00" />
  <rect x="337.45" y="4.80" width="66.55" height="66.55" fill="none" stroke="#223962" stroke-width="3.00" />
  <rect x="337.45" y="71.40" width="66.55" height="66.55" fill="none" stroke="#223962" stroke-width="3.00" />
  <rect x="337.45" y="137.95" width="66.55" height="66.55" fill="none" stroke="#223962" stroke-width="3.00" />
  <rect x="337.45" y="204.55" width="66.55" height="66.55" fill="none" stroke="#223962" stroke-width="3.00" />
  <rect x="337.45" y="271.15" width="66.55" height="66.55" fill="none" stroke="#223962" stroke-width="3.00" />
  <ellipse cx="38.07" cy="38.07" rx="8.00" ry="8.00" fill="#BFBFBF" stroke="#223962" stroke-width="1.33" />
  <ellipse cx="104.62" cy="38.13" rx="8.00" ry="8.00" fill="#BFBFBF" stroke="#223962" stroke-width="1.33" />
  <ellipse cx="171.23" cy="37.96" rx="8.00" ry="8.00" fill="#BFBFBF" stroke="#223962" stroke-width="1.33" />
  <ellipse cx="237.77" cy="38.02" rx="8.00" ry="8.00" fill="#BFBFBF" stroke="#223962" stroke-width="1.33" />
  <ellipse cx="304.18" cy="38.01" rx="8.00" ry="8.00" fill="#BFBFBF" stroke="#223962" stroke-width="1.33" />
  <ellipse cx="370.73" cy="38.07" rx="8.00" ry="8.00" fill="#BFBFBF" stroke="#223962" stroke-width="1.33" />
  <ellipse cx="38.07" cy="104.50" rx="8.00" ry="8.00" fill="#BFBFBF" stroke="#223962" stroke-width="1.33" />
  <ellipse cx="104.62" cy="104.56" rx="8.00" ry="8.00" fill="#BFBFBF" stroke="#223962" stroke-width="1.33" />
  <ellipse cx="171.23" cy="104.38" rx="8.00" ry="8.00" fill="#BFBFBF" stroke="#223962" stroke-width="1.33" />
  <ellipse cx="237.77" cy="104.44" rx="8.00" ry="8.00" fill="#BFBFBF" stroke="#223962" stroke-width="1.33" />
  <ellipse cx="304.18" cy="104.44" rx="8.00" ry="8.00" fill="#BFBFBF" stroke="#223962" stroke-width="1.33" />
  <ellipse cx="370.73" cy="104.50" rx="8.00" ry="8.00" fill="#BFBFBF" stroke="#223962" stroke-width="1.33" />
  <ellipse cx="38.07" cy="171.37" rx="8.00" ry="8.00" fill="#BFBFBF" stroke="#223962" stroke-width="1.33" />
  <ellipse cx="104.62" cy="171.43" rx="8.00" ry="8.00" fill="#BFBFBF" stroke="#223962" stroke-width="1.33" />
  <ellipse cx="171.23" cy="171.26" rx="8.00" ry="8.00" fill="#BFBFBF" stroke="#223962" stroke-width="1.33" />
  <ellipse cx="237.77" cy="171.32" rx="8.00" ry="8.00" fill="#BFBFBF" stroke="#223962" stroke-width="1.33" />
  <ellipse cx="304.18" cy="171.31" rx="8.00" ry="8.00" fill="#BFBFBF" stroke="#223962" stroke-width="1.33" />
  <ellipse cx="370.73" cy="171.37" rx="8.00" ry="8.00" fill="#BFBFBF" stroke="#223962" stroke-width="1.33" />
  <ellipse cx="38.07" cy="237.80" rx="8.00" ry="8.00" fill="#BFBFBF" stroke="#223962" stroke-width="1.33" />
  <ellipse cx="104.62" cy="237.86" rx="8.00" ry="8.00" fill="#BFBFBF" stroke="#223962" stroke-width="1.33" />
  <ellipse cx="171.23" cy="237.68" rx="8.00" ry="8.00" fill="#BFBFBF" stroke="#223962" stroke-width="1.33" />
  <ellipse cx="237.77" cy="237.74" rx="8.00" ry="8.00" fill="#BFBFBF" stroke="#223962" stroke-width="1.33" />
  <ellipse cx="304.18" cy="237.74" rx="8.00" ry="8.00" fill="#BFBFBF" stroke="#223962" stroke-width="1.33" />
  <ellipse cx="370.73" cy="237.80" rx="8.00" ry="8.00" fill="#BFBFBF" stroke="#223962" stroke-width="1.33" />
  <ellipse cx="38.07" cy="304.31" rx="8.00" ry="8.00" fill="#BFBFBF" stroke="#223962" stroke-width="1.33" />
  <ellipse cx="104.62" cy="304.37" rx="8.00" ry="8.00" fill="#BFBFBF" stroke="#223962" stroke-width="1.33" />
  <ellipse cx="171.23" cy="304.19" rx="8.00" ry="8.00" fill="#BFBFBF" stroke="#223962" stroke-width="1.33" />
  <ellipse cx="237.77" cy="304.25" rx="8.00" ry="8.00" fill="#BFBFBF" stroke="#223962" stroke-width="1.33" />
  <ellipse cx="304.18" cy="304.25" rx="8.00" ry="8.00" fill="#BFBFBF" stroke="#223962" stroke-width="1.33" />
  <ellipse cx="370.73" cy="304.31" rx="8.00" ry="8.00" fill="#BFBFBF" stroke="#223962" stroke-width="1.33" />
  <ellipse cx="38.07" cy="370.73" rx="8.00" ry="8.00" fill="#BFBFBF" stroke="#223962" stroke-width="1.33" />
  <ellipse cx="104.62" cy="370.80" rx="8.00" ry="8.00" fill="#BFBFBF" stroke="#223962" stroke-width="1.33" />
  <ellipse cx="171.23" cy="370.62" rx="8.00" ry="8.00" fill="#BFBFBF" stroke="#223962" stroke-width="1.33" />
  <ellipse cx="237.77" cy="370.68" rx="8.00" ry="8.00" fill="#BFBFBF" stroke="#223962" stroke-width="1.33" />
  <ellipse cx="304.18" cy="370.67" rx="8.00" ry="8.00" fill="#BFBFBF" stroke="#223962" stroke-width="1.33" />
  <ellipse cx="370.73" cy="370.73" rx="8.00" ry="8.00" fill="#BFBFBF" stroke="#223962" stroke-width="1.33" />
</svg>