<!-- here is a big, empty SVG! make it into something interesting! -->
<svg xmlns="http://www.w3.org/2000/svg" xmlns:xlink="http://www.w3.org/1999/xlink" height="600px" width="600px">
    <!-- you can delete this big rectangle - it's just a placeholder -->
    <rect x="0" y="0" height="600" width="600" fill="#DDD" />
  <defs>
    <g id="heart">
      <path d="M 0 0 
               A 5 5 0 0 1 10 0 
               A 5 5 0 0 1 20 0 
               L 10 12 Z" 
            fill="#ff5e6c" />
    </g>

    <g id="frame">
      <rect x="0" y="0" width="160" height="220" fill="#8d5524" />
      <rect x="10" y="10" width="140" height="200" fill="#f0f0f0" />
      <polygon points="0,0 10,10 10,210 0,220" fill="#6d3e1a" />
    </g>
  </defs>

  <rect width="100%" height="100%" fill="white" />

  <g transform="translate(30, 40)">
    <use href="#frame" />
    <rect x="10" y="10" width="140" height="200" fill="#ff4d6d" /> <g transform="translate(20, 40)">
      <path d="M 10 160 Q 30 50 60 50 T 110 160" fill="#2d2926" />
      <ellipse cx="60" cy="80" rx="30" ry="45" fill="#fbc2b5" />
      <rect x="50" y="140" width="40" height="20" rx="5" fill="#fbc2b5" />
      <use href="#heart" transform="translate(65, 125) scale(1.2)" />
    </g>
  </g>

  <g transform="translate(210, 40)">
    <use href="#frame" />
    <rect x="10" y="10" width="140" height="200" fill="#ffed4a" /> <g transform="translate(20, 40)">
      <polygon points="10,160 110,160 90,80 30,80" fill="#2d5a27" />
      <path d="M 40 40 L 80 40 L 80 100 L 40 100 Z" fill="#fbc2b5" />
      <rect x="35" y="60" width="15" height="30" fill="white" /> <path d="M 35 40 L 85 40 L 80 20 L 40 20 Z" fill="#1a1a2e" />
      <path d="M 80 85 L 100 85 L 105 75" stroke="black" stroke-width="3" fill="none" />
      <rect x="40" y="140" width="40" height="20" rx="5" fill="#fbc2b5" />
      <use href="#heart" transform="translate(25, 125) scale(1.2)" />
    </g>
  </g>
</svg>



