<?xml version="1.0" encoding="UTF-8"?>
<svg id="Layer_1" data-name="Layer 1" xmlns="http://www.w3.org/2000/svg" viewBox="0 0 355.5 113.47">
  <defs>
    <style>
      .cls-1, .cls-2, .cls-3, .cls-4, .cls-5, .cls-6, .cls-7, .cls-8, .cls-9, .cls-10, .cls-11, .cls-12, .cls-13 {
        stroke-miterlimit: 10;
      }

      .cls-1, .cls-2, .cls-6, .cls-7, .cls-8, .cls-9, .cls-11 {
        stroke: #231f20;
      }

      .cls-1, .cls-3, .cls-4, .cls-5, .cls-7, .cls-10, .cls-12, .cls-13 {
        fill: none;
      }

      .cls-14 {
        fill: #231f20;
        font-family: ArialMT, Arial;
        font-size: 9px;
      }

      .cls-2, .cls-5, .cls-7, .cls-9, .cls-10, .cls-12 {
        stroke-width: .5px;
      }

      .cls-2, .cls-11 {
        fill: #ed1c24;
      }

      .cls-3 {
        stroke: #9d1c20;
      }

      .cls-4, .cls-5, .cls-10, .cls-13 {
        stroke: #006838;
      }

      .cls-15 {
        fill: #9d1c20;
      }

      .cls-6, .cls-9, .cls-16 {
        fill: #006838;
      }

      .cls-8 {
        fill: #f9ed32;
      }

      .cls-10 {
        stroke-dasharray: 1.02 1.02;
      }

      .cls-17 {
        letter-spacing: -.02em;
      }

      .cls-12 {
        stroke: #ed1c24;
      }

      .cls-13 {
        stroke-dasharray: 1.01 1.01;
      }
    </style>
  </defs>
  <circle class="cls-8" cx="58.5" cy="27.97" r="4.5"/>
  <rect class="cls-1" x="42.75" y="55.53" width="3.94" height="3.94"/>
  <rect class="cls-1" x="46.69" y="55.53" width="3.94" height="3.94"/>
  <rect class="cls-1" x="50.62" y="55.53" width="3.94" height="3.94"/>
  <rect class="cls-11" x="54.56" y="55.53" width="3.94" height="3.94"/>
  <rect class="cls-11" x="58.5" y="55.53" width="3.94" height="3.94"/>
  <rect class="cls-6" x="62.44" y="55.53" width="3.94" height="3.94"/>
  <rect class="cls-1" x="66.38" y="55.53" width="3.94" height="3.94"/>
  <rect class="cls-1" x="70.31" y="55.53" width="3.94" height="3.94"/>
  <line class="cls-7" x1="58.5" y1="27.97" x2="25.23" y2="99.87"/>
  <line class="cls-7" x1="34.68" y1="99.8" x2="58.5" y2="27.97"/>
  <line class="cls-7" x1="44.14" y1="100.23" x2="58.5" y2="27.97"/>
  <line class="cls-12" x1="61.4" y1="72.97" x2="58.5" y2="27.97"/>
  <line class="cls-12" x1="63.13" y1="99.87" x2="61.4" y2="72.97"/>
  <line class="cls-5" x1="72.59" y1="99.8" x2="58.5" y2="27.97"/>
  <line class="cls-7" x1="82.33" y1="100.01" x2="58.5" y2="27.97"/>
  <line class="cls-7" x1="91.37" y1="99.94" x2="58.5" y2="27.97"/>
  <line class="cls-12" x1="55.66" y1="72.97" x2="58.5" y2="27.97"/>
  <line class="cls-12" x1="53.95" y1="99.94" x2="55.66" y2="72.97"/>
  <polygon class="cls-2" points="58.5 77.47 49.5 90.97 67.5 90.97 58.5 77.47"/>
  <polygon class="cls-9" points="67.5 95.47 58.5 108.97 76.5 108.97 67.5 95.47"/>
  <circle class="cls-8" cx="274.7" cy="27.97" r="4.5"/>
  <circle class="cls-8" cx="211.5" cy="95.04" r="4.5"/>
  <rect class="cls-1" x="258.95" y="55.53" width="3.94" height="3.94"/>
  <rect class="cls-1" x="220.5" y="86.6" width="3.94" height="3.94"/>
  <rect class="cls-1" x="220.5" y="91.1" width="3.94" height="3.94"/>
  <rect class="cls-1" x="220.5" y="95.04" width="3.94" height="3.94"/>
  <rect class="cls-1" x="220.5" y="99.54" width="3.94" height="3.94"/>
  <rect class="cls-1" x="262.89" y="55.53" width="3.94" height="3.94"/>
  <rect class="cls-1" x="266.83" y="55.53" width="3.94" height="3.94"/>
  <rect class="cls-11" x="270.77" y="55.53" width="3.94" height="3.94"/>
  <rect class="cls-11" x="274.7" y="55.53" width="3.94" height="3.94"/>
  <rect class="cls-6" x="278.64" y="55.53" width="3.94" height="3.94"/>
  <rect class="cls-1" x="282.58" y="55.53" width="3.94" height="3.94"/>
  <rect class="cls-1" x="286.52" y="55.53" width="3.94" height="3.94"/>
  <g>
    <line class="cls-5" x1="276.67" y1="58.45" x2="276.64" y2="57.95"/>
    <line class="cls-10" x1="276.57" y1="56.94" x2="274.77" y2="28.98"/>
    <line class="cls-5" x1="274.74" y1="28.47" x2="274.7" y2="27.97"/>
  </g>
  <line class="cls-12" x1="272.79" y1="58.28" x2="274.7" y2="27.97"/>
  <g>
    <line class="cls-3" x1="270.71" y1="83.4" x2="272.39" y2="63.15"/>
    <path class="cls-15" d="M272.3,64.23l-2.26,1.13-.04-.08,1.69-3.4c.37-1.2.74-2.4,1.11-3.6.17,1.25.34,2.49.5,3.74l1.1,3.63-.04.07-2.06-1.49Z"/>
  </g>
  <polygon class="cls-2" points="274.7 77.47 265.7 90.97 283.7 90.97 274.7 77.47"/>
  <polygon class="cls-9" points="283.7 95.47 274.7 108.97 292.7 108.97 283.7 95.47"/>
  <text class="cls-14" transform="translate(72 27.97)"><tspan x="0" y="0">Light Source</tspan></text>
  <text class="cls-14" transform="translate(288 27.97)"><tspan x="0" y="0">Light Source</tspan></text>
  <text class="cls-14" transform="translate(184.5 81.54)"><tspan class="cls-17" x="0" y="0">V</tspan><tspan x="5.84" y="0">iew Point</tspan></text>
  <text class="cls-14" transform="translate(81 59.47)"><tspan x="0" y="0">Shadow Map</tspan></text>
  <text class="cls-14" transform="translate(297 59.47)"><tspan x="0" y="0">Shadow Map</tspan></text>
  <line class="cls-12" x1="211.5" y1="95.04" x2="272.02" y2="83.11"/>
  <line class="cls-5" x1="211.5" y1="95.04" x2="278.9" y2="104.47"/>
  <text class="cls-14" transform="translate(4.72 9.97)"><tspan x="0" y="0">Pass 1: Build Shadow Map</tspan></text>
  <text class="cls-14" transform="translate(207.72 9.97)"><tspan x="0" y="0">Pass 2: Draw Image with Lighting</tspan></text>
  <g>
    <line class="cls-4" x1="280.12" y1="101.66" x2="280.08" y2="101.16"/>
    <line class="cls-13" x1="280" y1="100.15" x2="277.14" y2="64.33"/>
    <line class="cls-4" x1="277.1" y1="63.83" x2="277.06" y2="63.33"/>
    <path class="cls-16" d="M277.14,64.4l-2.05,1.48-.05-.07,1.11-3.63c.17-1.25.34-2.49.51-3.74.37,1.2.73,2.41,1.1,3.61l1.68,3.4-.03.08-2.27-1.14Z"/>
  </g>
</svg>