<?xml version="1.0" encoding="UTF-8"?>
<svg id="Layer_1" data-name="Layer 1" xmlns="http://www.w3.org/2000/svg" xmlns:xlink="http://www.w3.org/1999/xlink" viewBox="0 0 274.5 126">
  <defs>
    <style>
      .cls-1 {
        font-family: ArialMT, Arial;
        font-size: 8px;
      }

      .cls-1, .cls-2 {
        fill: #231f20;
      }

      .cls-3 {
        fill: none;
        stroke: #f7941d;
      }

      .cls-3, .cls-4, .cls-5 {
        stroke-miterlimit: 10;
      }

      .cls-6 {
        fill: #f9ed32;
      }

      .cls-4 {
        fill: #fff;
        stroke: #231f20;
      }

      .cls-5 {
        fill: url(#linear-gradient);
        stroke: #ed1c24;
      }

      .cls-7 {
        fill: #f7941d;
      }
    </style>
    <linearGradient id="linear-gradient" x1="211.5" y1="92.25" x2="229.5" y2="92.25" gradientUnits="userSpaceOnUse">
      <stop offset="0" stop-color="#231f20"/>
      <stop offset="1" stop-color="#f7941d"/>
    </linearGradient>
  </defs>
  <rect class="cls-6" x="193.5" y="15.75" width="18" height="4.5"/>
  <rect class="cls-4" x="18" y="54" width="36" height="22.5"/>
  <line class="cls-3" x1="36" y1="18" x2="72" y2="90"/>
  <line class="cls-3" x1="81" y1="90" x2="36" y2="18"/>
  <line class="cls-3" x1="90" y1="90" x2="36" y2="18"/>
  <line class="cls-3" x1="99" y1="90" x2="36" y2="18"/>
  <line class="cls-3" x1="108" y1="90" x2="36" y2="18"/>
  <rect class="cls-2" x="18" y="90" width="54" height="4.5"/>
  <rect class="cls-7" x="72" y="90" width="36" height="4.5"/>
  <text class="cls-1" transform="translate(76.5 108)"><tspan x="0" y="0">Anti-Umbra</tspan><tspan x="0" y="9.6">(not shadow)</tspan></text>
  <text class="cls-1" transform="translate(18 108)"><tspan x="0" y="0">Umbra</tspan><tspan x="0" y="9.6">(fully shadow)</tspan></text>
  <circle class="cls-6" cx="36" cy="18" r="2.25"/>
  <text class="cls-1" transform="translate(3.31 13.5)"><tspan x="0" y="0">Point Light Source</tspan></text>
  <rect class="cls-4" x="175.5" y="54" width="36" height="22.5"/>
  <line class="cls-3" x1="193.5" y1="18" x2="229.5" y2="90"/>
  <line class="cls-3" x1="238.5" y1="90" x2="193.5" y2="18"/>
  <line class="cls-3" x1="247.5" y1="90" x2="193.5" y2="18"/>
  <line class="cls-3" x1="256.5" y1="90" x2="193.5" y2="18"/>
  <line class="cls-3" x1="265.5" y1="90" x2="193.5" y2="18"/>
  <rect class="cls-2" x="175.5" y="90" width="36" height="4.5"/>
  <rect class="cls-7" x="229.5" y="90" width="36" height="4.5"/>
  <text class="cls-1" transform="translate(211.5 108)"><tspan x="0" y="0">Penumbra</tspan><tspan x="0" y="9.6">(partial shadow)</tspan></text>
  <text class="cls-1" transform="translate(161.48 13.5)"><tspan x="0" y="0">Area Light Source</tspan></text>
  <line class="cls-3" x1="220.5" y1="90" x2="211.5" y2="18"/>
  <line class="cls-3" x1="211.5" y1="90" x2="211.5" y2="18"/>
  <line class="cls-3" x1="229.5" y1="90" x2="211.5" y2="18"/>
  <line class="cls-3" x1="238.5" y1="90" x2="211.5" y2="18"/>
  <line class="cls-3" x1="247.5" y1="90" x2="211.5" y2="18"/>
  <line class="cls-3" x1="256.5" y1="90" x2="211.5" y2="18"/>
  <line class="cls-3" x1="265.5" y1="90" x2="211.5" y2="18"/>
  <line class="cls-3" x1="202.5" y1="18" x2="220.5" y2="90"/>
  <line class="cls-3" x1="229.5" y1="90" x2="202.5" y2="18"/>
  <line class="cls-3" x1="238.5" y1="90" x2="202.5" y2="18"/>
  <line class="cls-3" x1="247.5" y1="90" x2="202.5" y2="18"/>
  <line class="cls-3" x1="256.5" y1="90" x2="202.5" y2="18"/>
  <line class="cls-3" x1="265.5" y1="90" x2="202.5" y2="18"/>
  <rect class="cls-5" x="211.5" y="90" width="18" height="4.5"/>
</svg>