<?xml version="1.0" encoding="UTF-8"?>
<svg id="Layer_1" xmlns="http://www.w3.org/2000/svg" version="1.1" viewBox="0 0 162 85.5">
  <!-- Generator: Adobe Illustrator 30.2.1, SVG Export Plug-In . SVG Version: 2.1.1 Build 1)  -->
  <defs>
    <style>
      .st0, .st1, .st2, .st3, .st4 {
        stroke-miterlimit: 10;
      }

      .st0, .st1, .st2, .st4 {
        fill: none;
      }

      .st0, .st3 {
        stroke: #231f20;
      }

      .st5 {
        fill: #f15a29;
      }

      .st1 {
        stroke: #9e1f63;
      }

      .st2 {
        stroke: #f15a29;
      }

      .st3 {
        fill: #fff;
      }

      .st4 {
        stroke: #000;
        stroke-width: 2px;
      }

      .st6 {
        fill: #9e1f63;
      }
    </style>
  </defs>
  <circle class="st3" cx="81" cy="76.5" r="4.5"/>
  <line class="st0" x1="9" y1="76.5" x2="153" y2="76.5"/>
  <g>
    <line class="st1" x1="148.5" y1="9" x2="125.72" y2="31.78"/>
    <polygon class="st6" points="125.09 27.17 126.59 30.91 130.33 32.41 121.5 36 125.09 27.17"/>
  </g>
  <g>
    <line class="st1" x1="126" y1="31.5" x2="103.22" y2="54.28"/>
    <polygon class="st6" points="102.59 49.67 104.09 53.41 107.83 54.91 99 58.5 102.59 49.67"/>
  </g>
  <line class="st1" x1="81" y1="76.5" x2="99" y2="58.5"/>
  <g>
    <line class="st2" x1="81" y1="76.5" x2="63.49" y2="58.99"/>
    <polygon class="st5" points="58.5 54 68.41 58.16 63.87 59.37 62.66 63.91 58.5 54"/>
  </g>
  <g>
    <line class="st2" x1="58.5" y1="54" x2="40.99" y2="36.49"/>
    <polygon class="st5" points="36 31.5 45.91 35.66 41.37 36.87 40.16 41.41 36 31.5"/>
  </g>
  <line class="st2" x1="13.5" y1="9" x2="36" y2="31.5"/>
  <g>
    <line class="st4" x1="81" y1="76.5" x2="81" y2="45.85"/>
    <polygon points="90.97 48.77 81 31.5 71.03 48.77 90.97 48.77"/>
  </g>
</svg>