<?xml version="1.0" encoding="UTF-8"?>
<svg id="Layer_1" xmlns="http://www.w3.org/2000/svg" version="1.1" viewBox="0 0 162 85.5">
  <!-- Generator: Adobe Illustrator 30.2.1, SVG Export Plug-In . SVG Version: 2.1.1 Build 1)  -->
  <defs>
    <style>
      .st0, .st1, .st2, .st3, .st4 {
        stroke-miterlimit: 10;
      }

      .st0, .st1, .st2, .st4 {
        fill: none;
      }

      .st0, .st3 {
        stroke: #231f20;
      }

      .st5 {
        fill: #f15a29;
      }

      .st1 {
        stroke: #9e1f63;
      }

      .st2 {
        stroke: #f15a29;
      }

      .st3 {
        fill: #fff;
      }

      .st4 {
        stroke: #000;
        stroke-width: 2px;
      }

      .st6 {
        fill: #9e1f63;
      }
    </style>
  </defs>
  <circle class="st3" cx="81" cy="76.5" r="4.5"/>
  <line class="st0" x1="9" y1="76.5" x2="153" y2="76.5"/>
  <g>
    <line class="st1" x1="148.5" y1="9" x2="125.72" y2="31.78"/>
    <polygon class="st6" points="125.09 27.17 126.59 30.91 130.33 32.41 121.5 36 125.09 27.17"/>
  </g>
  <g>
    <line class="st1" x1="126" y1="31.5" x2="103.22" y2="54.28"/>
    <polygon class="st6" points="102.59 49.67 104.09 53.41 107.83 54.91 99 58.5 102.59 49.67"/>
  </g>
  <line class="st1" x1="81" y1="76.5" x2="99" y2="58.5"/>
  <g>
    <line class="st2" x1="81" y1="76.5" x2="63.49" y2="58.99"/>
    <polygon class="st5" points="58.5 54 68.41 58.16 63.87 59.37 62.66 63.91 58.5 54"/>
  </g>
  <g>
    <line class="st2" x1="81" y1="76.5" x2="58.79" y2="65.56"/>
    <polygon class="st5" points="52.46 62.44 63.18 63.19 59.26 65.79 59.58 70.48 52.46 62.44"/>
  </g>
  <g>
    <line class="st2" x1="81" y1="76.5" x2="70.5" y2="54.08"/>
    <polygon class="st5" points="67.5 47.69 75.4 54.97 70.72 54.56 68.04 58.42 67.5 47.69"/>
  </g>
  <g>
    <line class="st2" x1="81" y1="76.5" x2="79.16" y2="51.81"/>
    <polygon class="st5" points="78.64 44.77 83.43 54.39 79.2 52.34 75.32 54.99 78.64 44.77"/>
  </g>
  <g>
    <line class="st2" x1="81" y1="76.5" x2="88.41" y2="52.88"/>
    <polygon class="st5" points="90.52 46.14 91.42 56.85 88.25 53.38 83.67 54.42 90.52 46.14"/>
  </g>
  <g>
    <line class="st2" x1="81" y1="76.5" x2="96.18" y2="56.94"/>
    <polygon class="st5" points="100.5 51.36 97.62 61.71 95.85 57.35 91.19 56.73 100.5 51.36"/>
  </g>
  <g>
    <line class="st2" x1="81" y1="76.5" x2="102.06" y2="63.49"/>
    <polygon class="st5" points="108.07 59.78 101.74 68.46 101.62 63.76 97.47 61.55 108.07 59.78"/>
  </g>
  <g>
    <line class="st2" x1="81" y1="76.5" x2="105.27" y2="71.59"/>
    <polygon class="st5" points="112.19 70.19 103.24 76.14 104.75 71.69 101.63 68.18 112.19 70.19"/>
  </g>
  <g>
    <line class="st2" x1="81" y1="76.5" x2="56.6" y2="72.32"/>
    <polygon class="st5" points="49.64 71.12 60.13 68.8 57.12 72.41 58.76 76.81 49.64 71.12"/>
  </g>
  <g>
    <line class="st4" x1="81" y1="76.5" x2="81" y2="45.85"/>
    <polygon points="90.97 48.77 81 31.5 71.03 48.77 90.97 48.77"/>
  </g>
</svg>