<?xml version="1.0" encoding="UTF-8"?>
<svg id="Layer_1" data-name="Layer 1" xmlns="http://www.w3.org/2000/svg" xmlns:xlink="http://www.w3.org/1999/xlink" viewBox="0 0 586.35 361">
  <defs>
    <style>
      .cls-1 {
        fill: url(#linear-gradient-2);
      }

      .cls-1, .cls-2, .cls-3, .cls-4, .cls-5, .cls-6, .cls-7 {
        fill-rule: evenodd;
      }

      .cls-2, .cls-8, .cls-7 {
        fill: #bdd7ee;
      }

      .cls-9 {
        font-family: ArialMT, Arial;
        font-size: 10px;
        isolation: isolate;
      }

      .cls-3 {
        fill: #ffd966;
      }

      .cls-3, .cls-4, .cls-8, .cls-6, .cls-7, .cls-10 {
        stroke-miterlimit: 8;
      }

      .cls-3, .cls-8, .cls-7, .cls-10 {
        stroke: #41719c;
        stroke-width: 2px;
      }

      .cls-4 {
        fill: #e2f0d9;
        stroke: #70ad47;
        stroke-width: 2.29px;
      }

      .cls-11 {
        filter: url(#fx1);
      }

      .cls-12 {
        filter: url(#fx3);
      }

      .cls-13 {
        filter: url(#fx5);
      }

      .cls-14 {
        fill: #5b9bd5;
      }

      .cls-5 {
        fill: url(#linear-gradient);
      }

      .cls-6 {
        fill: #f8cbad;
        stroke: #843c0c;
      }

      .cls-15 {
        letter-spacing: -.11em;
      }

      .cls-16 {
        letter-spacing: -.02em;
      }

      .cls-17 {
        letter-spacing: -.06em;
      }

      .cls-18 {
        letter-spacing: -.04em;
      }

      .cls-10 {
        fill: none;
      }
    </style>
    <filter id="fx1" x="-10%" y="-10%" width="120%" height="120%">
      <feComponentTransfer>
        <feFuncR tableValues="0.000000 0.000000" type="discrete"/>
        <feFuncG tableValues="0.000000 0.000000" type="discrete"/>
        <feFuncB tableValues="0.000000 0.000000" type="discrete"/>
        <feFuncA slope="0.631373" type="linear"/>
      </feComponentTransfer>
      <feGaussianBlur stdDeviation="6.875000 6.875000"/>
    </filter>
    <filter id="fx3" x="-10%" y="-10%" width="120%" height="120%">
      <feComponentTransfer>
        <feFuncR tableValues="0.000000 0.000000" type="discrete"/>
        <feFuncG tableValues="0.000000 0.000000" type="discrete"/>
        <feFuncB tableValues="0.000000 0.000000" type="discrete"/>
        <feFuncA slope="0.631373" type="linear"/>
      </feComponentTransfer>
      <feGaussianBlur stdDeviation="6.875000 6.875000"/>
    </filter>
    <linearGradient id="linear-gradient" x1="615.78" y1="1418.79" x2="615.78" y2="1377.04" gradientTransform="translate(-527 1632) scale(1 -1)" gradientUnits="userSpaceOnUse">
      <stop offset="0" stop-color="#81b861"/>
      <stop offset=".5" stop-color="#6fb242"/>
      <stop offset="1" stop-color="#61a235"/>
    </linearGradient>
    <filter id="fx5" x="-10%" y="-10%" width="120%" height="120%">
      <feComponentTransfer>
        <feFuncR tableValues="0.000000 0.000000" type="discrete"/>
        <feFuncG tableValues="0.000000 0.000000" type="discrete"/>
        <feFuncB tableValues="0.000000 0.000000" type="discrete"/>
        <feFuncA slope="0.631373" type="linear"/>
      </feComponentTransfer>
      <feGaussianBlur stdDeviation="6.875000 6.875000"/>
    </filter>
    <linearGradient id="linear-gradient-2" x1="985.83" y1="1418.79" x2="985.83" y2="1377.04" gradientTransform="translate(-527 1632) scale(1 -1)" gradientUnits="userSpaceOnUse">
      <stop offset="0" stop-color="#81b861"/>
      <stop offset=".5" stop-color="#6fb242"/>
      <stop offset="1" stop-color="#61a235"/>
    </linearGradient>
  </defs>
  <path class="cls-3" d="M15.37,11.02c0-3.38,2.74-6.12,6.12-6.12h95.06c3.38,0,6.12,2.74,6.12,6.12v24.5c0,3.38-2.74,6.12-6.12,6.12H21.49c-3.38,0-6.12-2.74-6.12-6.12V11.02Z"/>
  <text class="cls-9" transform="translate(47.21 20.5)"><tspan x="0" y="0">Application</tspan></text>
  <text class="cls-9" transform="translate(52.59 31.89)"><tspan x="0" y="0">Program</tspan></text>
  <path class="cls-7" d="M15.37,61.97c0-3.03,2.46-5.49,5.49-5.49h96.32c3.03,0,5.49,2.46,5.49,5.49v21.97c0,3.03-2.46,5.49-5.49,5.49H20.86c-3.03,0-5.49-2.46-5.49-5.49v-21.97Z"/>
  <text class="cls-9" transform="translate(52.22 70.19)"><tspan x="0" y="0">Graphics </tspan></text>
  <text class="cls-9" transform="translate(57.25 81.58)"><tspan x="0" y="0">Driver</tspan></text>
  <rect class="cls-8" x="51.6" y="152.57" width="71.08" height="71.25"/>
  <text class="cls-9" transform="translate(74.71 179.74)"><tspan class="cls-17" x="0" y="0">V</tspan><tspan x="6.12" y="0">ertex</tspan></text>
  <text class="cls-9" transform="translate(66.57 191.13)"><tspan x="0" y="0">Processing</tspan></text>
  <text class="cls-9" transform="translate(77.46 202.51)"><tspan x="0" y="0">(TCL)</tspan></text>
  <path class="cls-2" d="M29.52,109.7c0-2.81,17.88-5.09,39.94-5.09s39.94,2.28,39.94,5.09v20.36c0,2.81-17.88,5.09-39.94,5.09s-39.94-2.28-39.94-5.09v-20.36Z"/>
  <path class="cls-10" d="M109.39,109.7c0,2.81-17.88,5.09-39.94,5.09s-39.94-2.28-39.94-5.09"/>
  <path class="cls-10" d="M29.52,109.7c0-2.81,17.88-5.09,39.94-5.09s39.94,2.28,39.94,5.09v20.36c0,2.81-17.88,5.09-39.94,5.09s-39.94-2.28-39.94-5.09v-20.36Z"/>
  <text class="cls-9" transform="translate(30.85 127)"><tspan x="0" y="0">Command Bu</tspan><tspan class="cls-16" x="61.14" y="0">f</tspan><tspan x="63.74" y="0">fer</tspan></text>
  <g class="cls-11">
    <g>
      <path d="M21.96,204.3s.06.03.08.05c.02.02.04.05.05.09.01.04.02.09.03.15,0,.06,0,.14,0,.22,0,.07,0,.13,0,.18,0,.05,0,.09-.01.13,0,.04-.01.07-.02.09,0,.03-.02.05-.03.07-.01.02-.03.03-.04.04-.02.01-.04.02-.06.03l-5.57,1.96c-.07.02-.12.04-.16.04-.04,0-.07-.01-.09-.04-.02-.03-.04-.07-.04-.13,0-.06,0-.15,0-.25,0-.09,0-.16,0-.21,0-.05.01-.09.03-.12.01-.03.03-.05.05-.06.02-.01.05-.03.08-.04l5.05-1.72h0s-5.04-1.68-5.04-1.68c-.03,0-.06-.02-.08-.03-.02-.01-.04-.03-.05-.06-.01-.03-.02-.07-.03-.13,0-.06,0-.13,0-.22s0-.17.01-.23c0-.06.02-.09.04-.11.02-.02.05-.03.09-.02.04,0,.1.02.16.04l5.57,1.96ZM19.72,198.39c.12,0,.21.03.26.09.05.06.08.13.08.21v2.75c.23,0,.44-.02.63-.07.19-.05.34-.12.48-.23.13-.11.23-.25.31-.42.07-.17.11-.39.11-.64,0-.2-.02-.38-.05-.53-.03-.16-.07-.29-.11-.4-.04-.11-.08-.21-.11-.28-.03-.07-.05-.13-.05-.17,0-.02,0-.04.02-.06.01-.02.03-.03.05-.04.02,0,.05-.02.09-.02.04,0,.09,0,.14,0,.04,0,.07,0,.1,0,.03,0,.06,0,.08.01.02,0,.04.01.06.02s.04.02.05.04c.02.02.04.07.08.15.04.08.08.19.11.32.04.13.07.29.1.46.03.17.04.36.04.56,0,.34-.05.64-.14.9-.1.26-.24.47-.43.65-.19.18-.42.31-.71.4-.28.09-.61.13-.99.13s-.68-.05-.97-.14c-.29-.09-.53-.23-.73-.4-.2-.17-.35-.39-.46-.63-.11-.25-.16-.52-.16-.83,0-.33.05-.61.16-.84.11-.23.25-.42.42-.57.18-.15.39-.26.63-.33.24-.07.49-.1.77-.1h.14ZM19.49,199.15c-.4,0-.72.08-.95.27-.23.19-.34.47-.34.84,0,.19.04.36.11.5.07.14.17.26.28.36.12.1.25.17.41.22.16.05.32.08.49.09v-2.27ZM18.08,194.76c.07,0,.13,0,.17,0,.05,0,.08,0,.11.02.03,0,.05.02.06.03.01.01.02.03.02.06s0,.05-.02.09c-.01.04-.03.08-.04.12-.01.04-.03.09-.04.15-.01.06-.02.12-.02.18,0,.08.02.15.05.23.03.07.08.15.15.23.07.08.17.17.28.26.12.09.26.19.43.3h2.74s.05,0,.06.02.03.03.04.06c.01.03.02.07.03.12,0,.05,0,.11,0,.19s0,.14,0,.19c0,.05-.02.09-.03.12-.01.03-.03.05-.04.06-.02.01-.04.02-.06.02h-4.17s-.05,0-.06-.01c-.02,0-.03-.03-.05-.06-.01-.03-.02-.06-.03-.11,0-.04,0-.1,0-.17s0-.12,0-.17c0-.04.01-.08.03-.1.01-.02.03-.04.05-.05.02-.01.04-.02.06-.02h.61c-.17-.11-.3-.22-.41-.32s-.19-.2-.25-.28c-.06-.09-.1-.18-.13-.27s-.03-.18-.03-.27c0-.04,0-.09,0-.14,0-.05.01-.1.03-.16.01-.06.03-.11.04-.15.02-.04.03-.08.05-.09.02-.02.03-.03.04-.04.01,0,.03-.01.05-.02.02,0,.05,0,.09,0,.04,0,.1,0,.17,0ZM21.68,191.77c.09,0,.16,0,.21.02.05.01.09.03.12.06.02.02.05.06.07.11.02.05.04.11.05.17.01.06.03.13.03.2,0,.07.01.14.01.21,0,.22-.03.4-.09.56-.06.15-.14.28-.26.38-.12.1-.26.17-.44.22-.18.04-.39.07-.63.07h-2.44v.58s-.02.08-.07.11c-.05.03-.13.04-.24.04-.06,0-.11,0-.15-.01-.04,0-.07-.02-.1-.03-.03-.01-.04-.03-.06-.05-.01-.02-.02-.04-.02-.07v-.58h-.99s-.04,0-.06-.02c-.02-.01-.03-.03-.05-.06-.01-.03-.02-.07-.03-.12,0-.05,0-.11,0-.19s0-.14,0-.19c0-.05.02-.09.03-.12.01-.03.03-.05.05-.06.02-.01.04-.02.06-.02h.99v-1.07s0-.05.02-.06c.01-.02.03-.03.06-.05.03-.01.06-.02.1-.03.04,0,.09,0,.15,0,.11,0,.19.01.24.04.05.03.07.06.07.11v1.07h2.33c.29,0,.5-.04.65-.13.15-.08.22-.24.22-.46,0-.07,0-.13-.02-.19-.01-.06-.03-.11-.04-.15-.02-.04-.03-.08-.04-.11s-.02-.06-.02-.08c0-.02,0-.03.01-.04,0-.01.02-.02.04-.03.02,0,.05-.01.09-.02s.08,0,.14,0ZM19.72,187.32c.12,0,.21.03.26.09s.08.13.08.21v2.75c.23,0,.44-.02.63-.07.19-.05.34-.12.48-.23.13-.11.23-.25.31-.42.07-.17.11-.39.11-.64,0-.2-.02-.38-.05-.53-.03-.16-.07-.29-.11-.4-.04-.11-.08-.21-.11-.28-.03-.07-.05-.13-.05-.17,0-.02,0-.04.02-.06.01-.02.03-.03.05-.04.02,0,.05-.02.09-.02.04,0,.09,0,.14,0,.04,0,.07,0,.1,0,.03,0,.06,0,.08.01.02,0,.04.01.06.02.02.01.04.02.05.04.02.02.04.07.08.15.04.08.08.19.11.32.04.13.07.29.1.46.03.17.04.36.04.56,0,.34-.05.64-.14.9-.1.26-.24.47-.43.65-.19.18-.42.31-.71.4-.28.09-.61.13-.99.13s-.68-.05-.97-.14c-.29-.09-.53-.23-.73-.4-.2-.17-.35-.39-.46-.63-.11-.25-.16-.52-.16-.83,0-.33.05-.61.16-.84s.25-.42.42-.57c.18-.15.39-.26.63-.33.24-.07.49-.1.77-.1h.14ZM19.49,188.09c-.4,0-.72.08-.95.27-.23.19-.34.47-.34.84,0,.19.04.36.11.5.07.14.17.26.28.36.12.1.25.17.41.22.16.05.32.08.49.09v-2.27ZM21.89,183.12s.08-.04.11-.04.05.01.07.04c.02.03.03.07.04.13,0,.06.01.14.01.23s0,.17,0,.22c0,.05-.01.1-.02.13-.01.03-.02.06-.04.07-.02.02-.04.03-.06.04l-1.65,1,1.65,1s.04.03.06.04c.02.02.03.04.04.07.01.03.02.07.02.13,0,.05,0,.12,0,.21s0,.16-.01.22c0,.06-.02.1-.04.13-.02.03-.04.04-.07.04-.03,0-.07-.02-.11-.04l-2.03-1.3-1.96,1.23s-.08.04-.11.04c-.03,0-.05-.01-.07-.04-.02-.03-.03-.07-.04-.13,0-.06,0-.14,0-.24,0-.09,0-.16,0-.22,0-.05.01-.1.02-.13,0-.03.02-.05.04-.07.02-.02.03-.03.06-.04l1.55-.95-1.55-.96s-.04-.03-.05-.04c-.02-.02-.03-.04-.04-.06-.01-.03-.02-.06-.02-.11,0-.05,0-.11,0-.2,0-.09,0-.16,0-.22,0-.06.02-.1.03-.13.02-.03.04-.04.07-.04.03,0,.07.02.12.05l1.94,1.22,2.06-1.29Z"/>
      <path d="M34.01,201.48c.07,0,.13,0,.18.01.05,0,.08.02.11.03.03.02.04.03.05.05s.01.04.01.06c0,.06-.03.16-.08.3-.05.14-.13.3-.22.47-.1.18-.22.37-.35.57-.14.2-.3.4-.49.59.09.15.17.34.24.57.07.23.1.5.1.81,0,.45-.07.84-.2,1.17-.13.33-.33.6-.58.82-.26.21-.58.37-.96.48-.38.11-.82.16-1.31.16s-.91-.06-1.29-.17c-.38-.11-.71-.29-.98-.51-.27-.23-.48-.51-.63-.86-.15-.34-.22-.74-.22-1.2,0-.43.07-.81.2-1.13.13-.33.33-.6.58-.82.25-.22.57-.39.94-.5.37-.11.8-.17,1.29-.17.25,0,.49.01.72.04.23.03.44.08.65.14.2.06.39.14.57.24.17.1.33.21.47.34.19-.23.33-.42.43-.59.1-.17.18-.31.23-.42.05-.11.09-.2.11-.26.02-.06.05-.11.08-.14.03-.03.07-.05.13-.06.05-.01.13-.02.22-.02ZM30.47,203.05c-.34,0-.65.03-.95.09-.29.06-.54.16-.76.3-.21.14-.38.33-.5.56-.12.23-.18.53-.18.87s.06.64.19.87c.13.23.3.43.52.57.22.15.47.25.76.32.29.06.59.09.91.09.35,0,.68-.03.97-.09s.55-.16.77-.3c.22-.14.38-.33.5-.56.12-.23.18-.53.18-.88s-.06-.64-.19-.88c-.13-.24-.31-.43-.53-.57-.22-.15-.48-.25-.77-.31-.29-.06-.6-.09-.92-.09ZM33.37,197.33s.05,0,.06.02c.02.01.03.03.04.06.01.03.02.06.03.11,0,.04,0,.1,0,.16,0,.07,0,.13,0,.17,0,.04-.02.08-.03.11-.01.03-.03.04-.04.05s-.04.01-.06.01h-.55c.26.24.45.47.57.7.12.23.18.47.18.7,0,.28-.05.51-.14.7-.09.19-.22.34-.38.46-.16.12-.34.2-.56.25-.21.05-.47.08-.77.08h-2.53s-.05,0-.06-.02c-.02-.01-.03-.03-.05-.06-.01-.03-.02-.07-.03-.12,0-.05,0-.11,0-.19s0-.14,0-.19c0-.05.01-.09.03-.12.01-.03.03-.05.05-.06.02-.01.04-.02.06-.02h2.43c.24,0,.44-.02.59-.05.15-.04.27-.09.38-.16.1-.07.18-.16.24-.28.06-.11.09-.24.09-.39,0-.19-.07-.38-.2-.57-.14-.19-.34-.39-.6-.6h-2.91s-.05,0-.06-.02c-.02-.01-.03-.03-.05-.06-.01-.03-.02-.07-.03-.12,0-.05,0-.11,0-.19s0-.14,0-.19c0-.05.01-.09.03-.12.01-.03.03-.05.05-.06.02-.01.04-.02.06-.02h4.17ZM31.1,192.4c.12,0,.21.03.26.09s.08.13.08.21v2.75c.23,0,.44-.02.63-.07.19-.05.34-.12.48-.23.13-.11.23-.25.31-.42.07-.17.11-.39.11-.64,0-.2-.02-.38-.05-.53-.03-.16-.07-.29-.11-.4-.04-.11-.08-.21-.11-.28-.03-.07-.05-.13-.05-.17,0-.02,0-.04.02-.06.01-.02.03-.03.05-.04.02,0,.05-.02.09-.02.04,0,.09,0,.14,0,.04,0,.07,0,.1,0,.03,0,.06,0,.08.01.02,0,.04.01.06.02.02.01.04.02.05.04.02.02.04.07.08.15.04.08.08.19.11.32.04.13.07.29.1.46.03.17.04.36.04.56,0,.34-.05.64-.14.9-.1.26-.24.47-.43.65-.19.18-.42.31-.71.4-.28.09-.61.13-.99.13s-.68-.05-.97-.14c-.29-.09-.53-.23-.73-.4-.2-.17-.35-.39-.46-.63-.11-.25-.16-.52-.16-.83,0-.33.05-.61.16-.84.11-.23.25-.42.42-.57.18-.15.39-.26.63-.33.24-.07.49-.1.77-.1h.14ZM30.87,193.17c-.4,0-.72.08-.95.27-.23.19-.34.47-.34.84,0,.19.04.36.11.5s.17.26.28.36c.12.1.25.17.41.22.16.05.32.08.49.09v-2.27ZM33.37,187.64s.05,0,.06.02c.02.01.03.03.04.06.01.03.02.06.03.11,0,.04,0,.1,0,.16,0,.07,0,.13,0,.17,0,.04-.02.08-.03.11-.01.03-.03.04-.04.05s-.04.01-.06.01h-.55c.26.24.45.47.57.7.12.23.18.47.18.7,0,.28-.05.51-.14.7-.09.19-.22.34-.38.46-.16.12-.34.2-.56.25s-.47.08-.77.08h-2.53s-.05,0-.06-.02c-.02-.01-.03-.03-.05-.06-.01-.03-.02-.07-.03-.12,0-.05,0-.11,0-.19s0-.14,0-.19c0-.05.01-.09.03-.12.01-.03.03-.05.05-.06.02-.01.04-.02.06-.02h2.43c.24,0,.44-.02.59-.05.15-.04.27-.09.38-.16s.18-.16.24-.28c.06-.11.09-.24.09-.39,0-.19-.07-.38-.2-.57-.14-.19-.34-.39-.6-.6h-2.91s-.05,0-.06-.02c-.02-.01-.03-.03-.05-.06-.01-.03-.02-.07-.03-.12,0-.05,0-.11,0-.19s0-.14,0-.19c0-.05.01-.09.03-.12.01-.03.03-.05.05-.06.02-.01.04-.02.06-.02h4.17ZM31.1,182.71c.12,0,.21.03.26.09s.08.13.08.21v2.75c.23,0,.44-.02.63-.07s.34-.12.48-.23c.13-.11.23-.25.31-.42.07-.17.11-.39.11-.64,0-.2-.02-.38-.05-.53-.03-.16-.07-.29-.11-.4-.04-.11-.08-.21-.11-.28-.03-.07-.05-.13-.05-.17,0-.02,0-.04.02-.06.01-.02.03-.03.05-.04.02,0,.05-.02.09-.02.04,0,.09,0,.14,0,.04,0,.07,0,.1,0,.03,0,.06,0,.08.01.02,0,.04.01.06.02.02.01.04.02.05.04.02.02.04.07.08.15.04.08.08.19.11.32.04.13.07.29.1.46.03.17.04.36.04.56,0,.34-.05.64-.14.9-.1.26-.24.47-.43.65-.19.18-.42.31-.71.4-.28.09-.61.13-.99.13s-.68-.05-.97-.14c-.29-.09-.53-.23-.73-.4-.2-.17-.35-.39-.46-.63-.11-.25-.16-.52-.16-.83,0-.33.05-.61.16-.84s.25-.42.42-.57c.18-.15.39-.26.63-.33.24-.07.49-.1.77-.1h.14ZM30.87,183.48c-.4,0-.72.08-.95.27-.23.19-.34.47-.34.84,0,.19.04.36.11.5.07.14.17.26.28.36.12.1.25.17.41.22.16.05.32.08.49.09v-2.27Z"/>
    </g>
  </g>
  <path class="cls-7" d="M10.45,164.36c0-6.56,6.37-11.87,14.23-11.87s14.23,5.32,14.23,11.87v47.5c0,6.56-6.37,11.87-14.23,11.87s-14.23-5.32-14.23-11.87v-47.5Z"/>
  <text class="cls-9" transform="translate(22.1 206.31) rotate(-90)"><tspan class="cls-17" x="0" y="0">V</tspan><tspan x="6.12" y="0">ertex </tspan></text>
  <text class="cls-9" transform="translate(33.48 207) rotate(-90)"><tspan x="0" y="0">Queue</tspan></text>
  <path class="cls-2" d="M137,164.44c0-6.56,6.37-11.87,14.23-11.87s14.23,5.32,14.23,11.87v47.5c0,6.56-6.37,11.87-14.23,11.87s-14.23-5.32-14.23-11.87v-47.5Z"/>
  <path class="cls-10" d="M165.46,164.44c0,6.56-6.37,11.88-14.23,11.88s-14.23-5.32-14.23-11.88"/>
  <path class="cls-10" d="M137,164.44c0-6.56,6.37-11.87,14.23-11.87s14.23,5.32,14.23,11.87v47.5c0,6.56-6.37,11.87-14.23,11.87s-14.23-5.32-14.23-11.87v-47.5Z"/>
  <text class="cls-9" transform="translate(148.51 206.31) rotate(-90)"><tspan class="cls-17" x="0" y="0">V</tspan><tspan x="6.12" y="0">ertex </tspan></text>
  <text class="cls-9" transform="translate(159.89 205.62) rotate(-90)"><tspan x="0" y="0">Cache</tspan></text>
  <rect class="cls-8" x="179.61" y="152.57" width="28.47" height="71.25"/>
  <text class="cls-9" transform="translate(196.9 206.48) rotate(-90)"><tspan x="0" y="0">Assembly</tspan></text>
  <rect class="cls-8" x="222.39" y="152.57" width="71.08" height="71.25"/>
  <text class="cls-9" transform="translate(242.67 185.43)"><tspan class="cls-18" x="0" y="0">T</tspan><tspan x="5.74" y="0">riangle</tspan></text>
  <text class="cls-9" transform="translate(237.36 196.82)"><tspan x="0" y="0">Processing</tspan></text>
  <rect class="cls-8" x="307.79" y="152.57" width="56.93" height="71.25"/>
  <text class="cls-9" transform="translate(318.69 191.13)"><tspan x="0" y="0">Rasterize</tspan></text>
  <rect class="cls-8" x="423.38" y="152.57" width="71.08" height="71.25"/>
  <text class="cls-9" transform="translate(436.96 185.5)"><tspan x="0" y="0">Fragment</tspan></text>
  <text class="cls-9" transform="translate(438.12 199)"><tspan x="0" y="0">Processing</tspan></text>
  <path class="cls-2" d="M380.59,164.44c0-6.56,6.37-11.87,14.23-11.87s14.23,5.32,14.23,11.87v47.5c0,6.56-6.37,11.87-14.23,11.87s-14.23-5.32-14.23-11.87v-47.5Z"/>
  <path class="cls-10" d="M409.06,164.44c0,6.56-6.37,11.88-14.23,11.88s-14.23-5.32-14.23-11.88"/>
  <path class="cls-10" d="M380.59,164.44c0-6.56,6.37-11.87,14.23-11.87s14.23,5.32,14.23,11.87v47.5c0,6.56-6.37,11.87-14.23,11.87s-14.23-5.32-14.23-11.87v-47.5Z"/>
  <text class="cls-9" transform="translate(390.85 215.9) rotate(-90)"><tspan x="0" y="0">Fragment</tspan></text>
  <text class="cls-9" transform="translate(404.35 209.51) rotate(-90)"><tspan x="0" y="0">Queue</tspan></text>
  <rect class="cls-8" x="508.78" y="152.57" width="71.08" height="71.25"/>
  <text class="cls-9" transform="translate(522.46 185.5)"><tspan x="0" y="0">Fragment</tspan><tspan class="cls-15" x="9.73" y="12">T</tspan><tspan x="14.73" y="12">ests</tspan></text>
  <path class="cls-6" d="M522.92,229.43l7.68-7.68,7.68,7.68h-3.84v71.16h-7.68v-71.16h-3.84Z"/>
  <path class="cls-6" d="M550.18,286.62h4.14v-61.93h8.28v61.93h4.14l-8.28,8.28-8.28-8.28Z"/>
  <path class="cls-7" d="M508.78,304.56c0-5.24,4.25-9.49,9.49-9.49h52.1c5.24,0,9.49,4.25,9.49,9.49v37.95c0,5.24-4.25,9.49-9.49,9.49h-52.1c-5.24,0-9.49-4.25-9.49-9.49v-37.95Z"/>
  <text class="cls-9" transform="translate(532.03 320.86)"><tspan x="0" y="0">Frame</tspan></text>
  <text class="cls-9" transform="translate(532.44 332.25)"><tspan x="0" y="0">Bu</tspan><tspan class="cls-16" x="12.23" y="0">f</tspan><tspan x="14.83" y="0">fer</tspan></text>
  <path class="cls-7" d="M314.17,304.38c0-5.24,4.25-9.49,9.49-9.49h52.27c5.24,0,9.49,4.25,9.49,9.49v37.95c0,5.24-4.25,9.49-9.49,9.49h-52.27c-5.24,0-9.49-4.25-9.49-9.49v-37.95Z"/>
  <text class="cls-9" transform="translate(335.38 320.69)"><tspan class="cls-15" x="0" y="0">T</tspan><tspan x="5" y="0">exture</tspan></text>
  <text class="cls-9" transform="translate(333.14 332.07)"><tspan x="0" y="0">Memory</tspan></text>
  <path class="cls-6" d="M386.11,326.98l13.97-13.97v6.99h108.69v13.97h-108.69v6.99l-13.97-13.97Z"/>
  <text class="cls-9" transform="translate(416.87 330)"><tspan x="0" y="0">Render to texture</tspan></text>
  <path class="cls-14" d="M350.91,294.78l-.05-.57-.18-.66-.28-.63-.37-.59-.45-.56-.53-.54-.6-.52-.67-.51-.74-.49-.81-.49-.87-.48-.94-.47-1.01-.46-1.07-.46-1.14-.45-1.2-.45-1.26-.44-1.33-.44-2.82-.86-3.06-.84-3.28-.82-3.5-.8-3.7-.77-3.89-.75-4.07-.72-4.24-.69-4.41-.66-4.56-.62-4.7-.59-4.82-.55-4.94-.51-5.05-.47-5.15-.43-5.23-.39-5.31-.34-5.37-.29-5.43-.25-10.97-.33-11.05-.11-11.04-.11h.02s-10.95-.33-10.95-.33h.02s-5.42-.24-5.42-.24h.01s-5.36-.29-5.36-.29h.01s-5.3-.34-5.3-.34h.01s-5.22-.39-5.22-.39h.01s-5.14-.43-5.14-.43h.01s-5.04-.47-5.04-.47h.01s-4.93-.51-4.93-.51h.01s-4.81-.55-4.81-.55h.01s-4.68-.59-4.68-.59h.01s-4.54-.62-4.54-.62h.02s-4.39-.65-4.39-.65h.02s-4.23-.68-4.23-.68h.02s-4.06-.71-4.06-.71h.02s-3.87-.74-3.87-.74h.02s-3.68-.77-3.68-.77h.02s-3.47-.79-3.47-.79h.02s-3.26-.81-3.26-.81h.03s-3.03-.83-3.03-.83h.03s-2.79-.84-2.79-.84h.03s-1.3-.42-1.3-.42h.02s-1.24-.43-1.24-.43l.22.1-1.58-.94-1.22,2.04,1.68,1.01,1.36.48,1.33.44,2.82.86,3.06.84,3.28.82,3.5.8,3.7.77,3.89.75,4.07.72,4.24.69,4.4.66,4.56.62,4.69.59,4.83.55,4.94.51,5.05.47,5.15.43,5.23.39,5.31.34,5.37.29,5.43.25,10.97.33,11.05.11,11.04.11h-.02s10.95.33,10.95.33h-.02s5.42.24,5.42.24h-.01s5.36.29,5.36.29h-.01s5.3.34,5.3.34h-.01s5.22.39,5.22.39h-.01s5.14.43,5.14.43h-.01s5.04.47,5.04.47h-.01s4.93.51,4.93.51h-.01s4.81.55,4.81.55h-.01s4.68.59,4.68.59h-.01s4.54.62,4.54.62h-.01s4.39.65,4.39.65h-.02s4.23.68,4.23.68h-.02s4.06.71,4.06.71h-.02s3.87.74,3.87.74h-.02s3.68.77,3.68.77h-.02s3.47.79,3.47.79h-.02s3.26.81,3.26.81h-.03s3.03.83,3.03.83h-.03s2.79.84,2.79.84h-.03s1.3.42,1.3.42h-.02s1.24.43,1.24.43h-.02s1.18.43,1.18.43h-.02s1.11.43,1.11.43h-.03s1.04.44,1.04.44h-.03s.97.44.97.44l-.03-.02.9.45-.04-.02.83.46-.04-.02.76.46-.05-.03.69.46-.06-.04.61.46-.06-.05.53.46-.07-.07.45.46-.08-.09.37.47-.08-.11.29.47-.08-.14.21.47-.06-.18.13.47-.04-.2.04.47,2.36-.22ZM127.02,257.3l-13.05-2.34,5.96,11.85,7.1-9.5Z"/>
  <g class="cls-12">
    <g>
      <path d="M79.63,232.56s-.03.06-.05.08c-.02.02-.05.04-.09.05-.04.01-.09.02-.15.03-.06,0-.14,0-.22,0-.07,0-.13,0-.18,0-.05,0-.09,0-.13-.01-.04,0-.07-.01-.09-.02-.03,0-.05-.02-.07-.03-.02-.01-.03-.03-.04-.04-.01-.02-.02-.04-.03-.06l-1.96-5.57c-.02-.07-.04-.12-.04-.16,0-.04.01-.07.04-.09.03-.02.07-.04.13-.04.06,0,.15,0,.25,0,.09,0,.16,0,.21,0,.05,0,.09.01.12.03.03.01.05.03.06.05.01.02.03.05.04.08l1.72,5.05h0l1.67-5.04s.02-.06.03-.08c.01-.02.03-.04.06-.05.03-.01.07-.02.13-.03.06,0,.13,0,.22,0s.17,0,.23.01c.06,0,.09.02.11.04.02.02.03.05.02.09,0,.04-.02.1-.04.16l-1.96,5.57ZM85.54,230.32c0,.12-.03.21-.09.26-.06.05-.13.08-.21.08h-2.75c0,.23.02.44.07.63.05.19.12.34.23.48.11.13.25.23.42.31.17.07.39.11.64.11.2,0,.38-.02.53-.05.16-.03.29-.07.4-.11.11-.04.21-.08.28-.11.07-.03.13-.05.17-.05.02,0,.04,0,.06.02.02.01.03.03.04.05,0,.02.02.05.02.09,0,.04,0,.09,0,.14,0,.04,0,.07,0,.1,0,.03,0,.06-.01.08,0,.02-.01.04-.02.06s-.02.04-.04.05c-.02.02-.07.04-.15.08-.08.04-.19.08-.32.11-.13.04-.29.07-.46.1-.17.03-.36.04-.56.04-.34,0-.64-.05-.9-.14-.26-.1-.47-.24-.65-.43-.18-.19-.31-.42-.4-.71-.09-.28-.13-.61-.13-.99s.05-.68.14-.97c.09-.29.23-.53.4-.73.17-.2.39-.35.63-.46.25-.11.52-.16.83-.16.33,0,.61.05.84.16.23.11.42.25.57.42.15.18.26.39.33.63.07.24.1.49.1.77v.14ZM84.78,230.09c0-.4-.08-.72-.27-.95-.19-.23-.47-.34-.84-.34-.19,0-.36.04-.5.11-.14.07-.26.17-.36.28-.1.12-.17.25-.22.41-.05.16-.08.32-.09.49h2.27ZM89.17,228.69c0,.07,0,.13,0,.17,0,.05,0,.08-.02.11,0,.03-.02.05-.03.06-.01.01-.03.02-.06.02s-.05,0-.09-.02c-.04-.01-.08-.03-.12-.04-.04-.01-.09-.03-.15-.04-.06-.01-.12-.02-.18-.02-.08,0-.15.02-.23.05-.07.03-.15.08-.23.15-.08.07-.17.17-.26.28-.09.12-.19.26-.3.43v2.74s0,.05-.02.06-.03.03-.06.04c-.03.01-.07.02-.12.03-.05,0-.11,0-.19,0s-.14,0-.19,0c-.05,0-.09-.02-.12-.03-.03-.01-.05-.03-.06-.04-.01-.02-.02-.04-.02-.06v-4.17s0-.05.01-.06c0-.02.03-.03.06-.05.03-.01.06-.02.11-.03.04,0,.1,0,.17,0s.12,0,.17,0c.04,0,.08.01.1.03.02.01.04.03.05.05.01.02.02.04.02.06v.61c.11-.17.22-.3.32-.41s.2-.19.28-.25c.09-.06.18-.1.27-.13s.18-.03.27-.03c.04,0,.09,0,.14,0,.05,0,.1.01.16.03.06.01.11.03.15.04.04.02.08.03.09.05.02.02.03.03.04.04,0,.01.01.03.02.05,0,.02,0,.05,0,.09,0,.04,0,.1,0,.17ZM92.16,232.28c0,.09,0,.16-.02.21-.01.05-.03.09-.06.12-.02.02-.06.05-.11.07-.05.02-.11.04-.17.05-.06.01-.13.03-.2.03-.07,0-.14.01-.21.01-.22,0-.4-.03-.56-.09-.15-.06-.28-.14-.38-.26-.1-.12-.17-.26-.22-.44-.04-.18-.07-.39-.07-.63v-2.44h-.58s-.08-.02-.11-.07c-.03-.05-.04-.13-.04-.24,0-.06,0-.11.01-.15,0-.04.02-.07.03-.1.01-.03.03-.04.05-.06.02-.01.04-.02.07-.02h.58v-.99s0-.04.02-.06c.01-.02.03-.03.06-.05.03-.01.07-.02.12-.03.05,0,.11,0,.19,0s.14,0,.19,0c.05,0,.09.02.12.03.03.01.05.03.06.05.01.02.02.04.02.06v.99h1.07s.05,0,.06.02c.02.01.03.03.05.06.01.03.02.06.03.1,0,.04,0,.09,0,.15,0,.11-.01.19-.04.24-.03.05-.06.07-.11.07h-1.07v2.33c0,.29.04.5.13.65.08.15.24.22.46.22.07,0,.13,0,.19-.02.06-.01.11-.03.15-.04.04-.02.08-.03.11-.04s.06-.02.08-.02c.02,0,.03,0,.04.01.01,0,.02.02.03.04,0,.02.01.05.02.09s0,.08,0,.14ZM96.61,230.32c0,.12-.03.21-.09.26s-.13.08-.21.08h-2.75c0,.23.02.44.07.63.05.19.12.34.23.48.11.13.25.23.42.31.17.07.39.11.64.11.2,0,.38-.02.53-.05.16-.03.29-.07.4-.11.11-.04.21-.08.28-.11.07-.03.13-.05.17-.05.02,0,.04,0,.06.02.02.01.03.03.04.05,0,.02.02.05.02.09,0,.04,0,.09,0,.14,0,.04,0,.07,0,.1,0,.03,0,.06-.01.08,0,.02-.01.04-.02.06-.01.02-.02.04-.04.05-.02.02-.07.04-.15.08-.08.04-.19.08-.32.11-.13.04-.29.07-.46.1-.17.03-.36.04-.56.04-.34,0-.64-.05-.9-.14-.26-.1-.47-.24-.65-.43-.18-.19-.31-.42-.4-.71-.09-.28-.13-.61-.13-.99s.05-.68.14-.97c.09-.29.23-.53.4-.73.17-.2.39-.35.63-.46.25-.11.52-.16.83-.16.33,0,.61.05.84.16s.42.25.57.42c.15.18.26.39.33.63.07.24.1.49.1.77v.14ZM95.84,230.09c0-.4-.08-.72-.27-.95-.19-.23-.47-.34-.84-.34-.19,0-.36.04-.5.11-.14.07-.26.17-.36.28-.1.12-.17.25-.22.41-.05.16-.08.32-.09.49h2.27ZM100.81,232.5s.04.08.04.11-.01.05-.04.07c-.03.02-.07.03-.13.04-.06,0-.14.01-.23.01s-.17,0-.22,0c-.05,0-.1-.01-.13-.02-.03-.01-.06-.02-.07-.04-.02-.02-.03-.04-.04-.06l-1-1.65-1,1.65s-.03.04-.04.06c-.02.02-.04.03-.07.04-.03.01-.07.02-.13.02-.05,0-.12,0-.21,0s-.16,0-.22-.01c-.06,0-.1-.02-.13-.04-.03-.02-.04-.04-.04-.07,0-.03.02-.07.04-.11l1.3-2.03-1.23-1.96s-.04-.08-.04-.11c0-.03.01-.05.04-.07.03-.02.07-.03.13-.04.06,0,.14,0,.24,0,.09,0,.16,0,.22,0,.05,0,.1.01.13.02.03,0,.05.02.07.04.02.02.03.03.04.06l.95,1.55.96-1.55s.03-.04.04-.05c.02-.02.04-.03.06-.04.03-.01.06-.02.11-.02.05,0,.11,0,.2,0,.09,0,.16,0,.22,0,.06,0,.1.02.13.03.03.02.04.04.04.07,0,.03-.02.07-.05.12l-1.22,1.94,1.29,2.06Z"/>
      <path d="M77.21,242.84c0,.21-.04.4-.12.57-.08.17-.19.31-.34.42-.15.11-.32.2-.52.26-.2.06-.42.09-.66.09-.15,0-.29-.01-.42-.03-.13-.02-.25-.05-.36-.09-.11-.04-.2-.07-.27-.11-.07-.04-.13-.07-.16-.1-.03-.03-.06-.07-.07-.13-.02-.06-.02-.13-.02-.23,0-.06,0-.11,0-.15,0-.04.01-.07.02-.1,0-.02.02-.04.04-.05.02-.01.04-.02.06-.02.03,0,.08.02.15.06.07.04.15.09.25.14.1.05.21.09.35.14.13.04.29.06.46.06.13,0,.25-.01.35-.04.11-.03.2-.07.27-.12.08-.05.14-.12.18-.21.04-.08.06-.18.06-.3s-.03-.22-.09-.3c-.06-.08-.14-.15-.24-.21-.1-.06-.21-.12-.33-.16-.12-.05-.25-.1-.38-.15-.13-.05-.26-.11-.38-.18-.13-.07-.24-.15-.34-.24-.1-.1-.18-.21-.24-.34-.06-.13-.09-.29-.09-.48,0-.16.03-.32.09-.47.06-.15.16-.28.28-.39.13-.11.28-.2.47-.27.19-.07.41-.1.66-.1.11,0,.22,0,.33.03.11.02.21.04.3.07.09.03.17.06.23.09.06.03.11.06.14.09.03.02.05.05.06.06.01.02.02.04.02.06,0,.02,0,.05.01.09,0,.03,0,.08,0,.13,0,.05,0,.1,0,.14,0,.04-.01.07-.02.09-.01.02-.02.04-.04.05-.02.01-.03.02-.05.02-.03,0-.07-.02-.12-.05-.05-.03-.12-.07-.2-.11-.08-.04-.18-.07-.29-.11s-.24-.05-.39-.05c-.13,0-.24.01-.34.04-.1.03-.18.07-.24.13-.06.05-.11.12-.14.19-.03.07-.05.15-.05.24,0,.12.03.22.09.3.06.08.14.15.24.22.1.06.21.12.34.17.13.05.26.1.39.15.13.05.26.11.39.18.13.06.24.14.34.24.1.09.18.2.24.33.06.13.09.28.09.46ZM81.94,243.97s0,.05-.02.06c-.01.02-.03.03-.06.04-.03.01-.07.02-.12.03-.05,0-.11,0-.19,0s-.14,0-.19,0c-.05,0-.09-.02-.12-.03-.03-.01-.05-.03-.06-.04-.01-.02-.02-.04-.02-.06v-2.44c0-.24-.02-.43-.06-.57-.04-.15-.09-.27-.16-.38-.07-.11-.16-.19-.28-.24-.11-.06-.24-.08-.39-.08-.19,0-.38.07-.57.2-.19.14-.39.34-.6.6v2.91s0,.05-.02.06c-.01.02-.03.03-.06.04-.03.01-.07.02-.12.03-.05,0-.11,0-.19,0s-.14,0-.19,0c-.05,0-.09-.02-.12-.03-.03-.01-.05-.03-.06-.04s-.02-.04-.02-.06v-6.19s0-.05.02-.06c.01-.02.03-.03.06-.05.03-.01.07-.02.12-.03.05,0,.11,0,.19,0s.14,0,.19,0c.05,0,.09.02.12.03.03.01.05.03.06.05.01.02.02.04.02.06v2.5c.22-.23.44-.4.66-.52.22-.11.45-.17.67-.17.28,0,.51.05.7.14.19.09.34.22.46.38.12.16.2.34.25.55s.08.47.08.77v2.54ZM86.43,243.98s-.01.06-.04.08c-.02.02-.06.03-.1.04-.04,0-.11.01-.19.01s-.14,0-.19-.01c-.05,0-.08-.02-.1-.04-.02-.02-.03-.05-.03-.08v-.42c-.18.19-.39.35-.61.45-.22.11-.46.16-.71.16-.22,0-.42-.03-.6-.09-.18-.06-.33-.14-.45-.25-.13-.11-.22-.24-.29-.4s-.1-.34-.1-.54c0-.23.05-.44.14-.61.1-.17.23-.32.41-.43.18-.11.4-.2.66-.26.26-.06.55-.09.88-.09h.57v-.32c0-.16-.02-.3-.05-.43-.03-.12-.09-.23-.16-.31-.08-.08-.17-.14-.29-.19-.12-.04-.27-.06-.44-.06-.19,0-.36.02-.51.07-.15.04-.28.09-.39.15-.11.05-.21.1-.28.15-.08.04-.13.07-.17.07-.02,0-.05,0-.06-.02-.02-.01-.03-.03-.05-.06-.01-.02-.02-.06-.03-.09s0-.08,0-.13c0-.08,0-.14.02-.18.01-.04.04-.09.08-.13.04-.04.11-.09.22-.14.1-.05.22-.1.35-.15.13-.04.28-.08.44-.11.16-.03.32-.04.48-.04.3,0,.55.03.76.1.21.07.38.17.51.3.13.13.22.29.28.49.06.19.09.42.09.68v2.81ZM85.67,242.07h-.65c-.21,0-.39.02-.55.05-.15.04-.28.09-.38.16-.1.07-.18.15-.22.25-.05.1-.07.21-.07.34,0,.22.07.39.21.52.14.13.33.19.58.19.2,0,.39-.05.56-.15.17-.1.35-.26.54-.47v-.88ZM91.41,243.97s0,.05-.02.06c-.01.02-.03.03-.06.04s-.06.02-.1.03c-.04,0-.1,0-.16,0-.06,0-.12,0-.16,0-.04,0-.08-.01-.11-.03-.03-.01-.05-.03-.06-.04-.01-.02-.02-.04-.02-.06v-.55c-.22.24-.45.42-.68.56-.24.13-.49.2-.78.2-.31,0-.57-.06-.78-.18-.22-.12-.39-.28-.53-.48s-.23-.44-.29-.71c-.06-.27-.09-.56-.09-.86,0-.36.04-.68.12-.97.08-.29.19-.54.34-.74.15-.2.34-.36.56-.47.22-.11.48-.16.78-.16.24,0,.47.05.67.16.2.11.4.26.6.47v-2.42s0-.04.02-.06c.01-.02.03-.04.06-.05.03-.01.07-.02.12-.03.05,0,.11-.01.18-.01s.14,0,.19.01c.05,0,.09.02.12.03.03.01.05.03.06.05.01.02.02.04.02.06v6.17ZM90.64,241.04c-.21-.26-.41-.45-.6-.59-.19-.13-.39-.2-.6-.2-.19,0-.36.05-.5.14-.14.09-.25.21-.33.37-.08.15-.15.32-.19.51s-.06.39-.06.58c0,.21.02.42.05.62.03.2.09.38.17.54.08.16.19.28.32.38.13.09.3.14.5.14.1,0,.2-.01.29-.04.09-.03.19-.07.29-.14.1-.06.2-.15.31-.25.11-.1.22-.23.34-.38v-1.67ZM93.54,243.97s0,.05-.02.06c-.01.02-.03.03-.06.04-.03.01-.07.02-.12.03-.05,0-.11,0-.19,0s-.14,0-.19,0c-.05,0-.09-.02-.12-.03-.03-.01-.05-.03-.06-.04-.01-.02-.02-.04-.02-.06v-4.17s0-.04.02-.06c.01-.02.03-.03.06-.05s.07-.02.12-.03c.05,0,.11,0,.19,0s.14,0,.19,0c.05,0,.09.02.12.03s.05.03.06.05c.01.02.02.04.02.06v4.17ZM93.63,238.4c0,.18-.03.3-.1.37-.07.06-.19.1-.38.1s-.3-.03-.37-.09c-.07-.06-.1-.18-.1-.36s.03-.3.1-.37c.07-.06.19-.1.38-.1s.3.03.37.09c.07.06.1.18.1.36ZM98.54,243.97s0,.05-.02.06c-.01.02-.03.03-.06.04-.03.01-.07.02-.12.03-.05,0-.11,0-.19,0s-.14,0-.19,0c-.05,0-.09-.02-.12-.03-.03-.01-.05-.03-.06-.04-.01-.02-.02-.04-.02-.06v-2.44c0-.24-.02-.43-.06-.57-.04-.15-.09-.27-.16-.38-.07-.11-.16-.19-.28-.24-.11-.06-.24-.08-.39-.08-.19,0-.38.07-.57.2-.19.14-.39.34-.6.6v2.91s0,.05-.02.06c-.01.02-.03.03-.06.04-.03.01-.07.02-.12.03-.05,0-.11,0-.19,0s-.14,0-.19,0c-.05,0-.09-.02-.12-.03-.03-.01-.05-.03-.06-.04-.01-.02-.02-.04-.02-.06v-4.17s0-.05.01-.06c0-.02.03-.03.06-.05.03-.01.06-.02.11-.03.04,0,.1,0,.17,0s.12,0,.17,0c.04,0,.08.01.1.03.02.01.04.03.05.05.01.02.02.04.02.06v.55c.23-.26.47-.45.7-.58.23-.12.47-.18.71-.18.28,0,.51.05.7.14.19.09.34.22.46.38.12.16.2.34.25.55.05.21.08.47.08.76v2.54ZM103.38,239.99c0,.11-.01.19-.04.23s-.07.07-.11.07h-.6c.11.11.18.23.23.37.04.13.06.27.06.42,0,.24-.04.45-.12.64-.08.19-.19.34-.33.47-.14.13-.31.23-.51.29-.2.07-.42.1-.66.1-.17,0-.33-.02-.48-.07-.15-.04-.27-.1-.35-.17-.06.06-.1.12-.14.19-.04.07-.05.15-.05.25,0,.11.05.2.15.27.1.07.23.11.4.12l1.09.05c.21,0,.4.03.57.09.17.05.32.12.45.22.13.09.23.21.3.35.07.14.11.3.11.48,0,.19-.04.37-.12.55-.08.17-.2.33-.37.46-.17.13-.38.23-.63.31-.26.08-.56.11-.91.11-.34,0-.62-.03-.86-.09-.24-.06-.43-.14-.58-.23-.15-.1-.26-.22-.33-.35-.07-.14-.1-.29-.1-.45,0-.1.01-.2.04-.3.02-.1.06-.19.11-.27.05-.09.11-.17.19-.25.08-.08.16-.16.26-.23-.15-.08-.26-.17-.34-.29-.07-.12-.11-.24-.11-.38,0-.19.04-.36.12-.51.08-.15.17-.28.29-.4-.1-.11-.17-.24-.23-.39-.06-.14-.08-.32-.08-.52,0-.24.04-.45.12-.64.08-.19.19-.35.33-.48.14-.13.31-.23.51-.3.2-.07.42-.1.65-.1.13,0,.24,0,.35.02.11.01.21.03.31.06h1.26c.05,0,.09.03.12.08.03.05.04.13.04.23ZM102.18,241.09c0-.28-.08-.51-.23-.66-.16-.16-.38-.24-.66-.24-.15,0-.28.02-.39.07-.11.05-.2.12-.27.2-.07.09-.13.19-.16.3-.04.11-.05.23-.05.35,0,.27.08.49.23.65.16.16.37.24.66.24.15,0,.28-.02.39-.07.11-.05.2-.11.28-.2.07-.08.13-.18.16-.29.04-.11.05-.23.05-.35ZM102.57,244.4c0-.18-.07-.32-.22-.41-.15-.1-.35-.15-.6-.16l-1.08-.04c-.1.08-.18.15-.24.22-.06.07-.11.14-.15.2-.04.06-.06.13-.08.19-.01.06-.02.13-.02.19,0,.2.1.35.31.46.2.1.49.16.85.16.23,0,.43-.02.58-.07.16-.04.28-.1.38-.18.1-.07.16-.16.21-.25.04-.1.06-.2.06-.3Z"/>
    </g>
  </g>
  <path class="cls-5" d="M53.24,234.08l10.44-20.87h50.2l10.44,20.87-10.44,20.87h-50.2l-10.44-20.87Z"/>
  <text class="cls-9" transform="translate(76.42 231.5)"><tspan class="cls-17" x="0" y="0">V</tspan><tspan x="6.12" y="0">ertex</tspan></text>
  <text class="cls-9" transform="translate(73.88 242.88)"><tspan x="0" y="0">shading</tspan></text>
  <path class="cls-4" d="M224.03,234.08l10.44-20.87h50.2l10.44,20.87-10.44,20.87h-50.2l-10.44-20.87Z"/>
  <text class="cls-9" transform="translate(240.11 231.5)"><tspan x="0" y="0">Geometry </tspan></text>
  <text class="cls-9" transform="translate(244.35 242.88)"><tspan x="0" y="0">Shading</tspan></text>
  <g class="cls-13">
    <g>
      <path d="M454.3,228.46c0,.3-.05.57-.15.81-.1.24-.24.45-.42.62-.18.17-.41.3-.68.39-.27.09-.59.14-.96.14h-.68v2.16s0,.05-.02.06c-.01.02-.04.03-.06.04-.03.01-.07.02-.12.03-.05,0-.12.01-.19.01s-.14,0-.19-.01c-.05,0-.09-.02-.12-.03-.03-.01-.05-.03-.06-.04-.01-.02-.02-.04-.02-.06v-5.53c0-.12.03-.21.1-.26.06-.05.14-.08.22-.08h1.28c.13,0,.25,0,.37.02.12.01.26.03.42.07.16.04.33.1.5.2.17.1.31.22.43.36.12.14.21.31.27.49.06.19.09.39.09.62ZM453.46,228.53c0-.24-.05-.45-.14-.61-.09-.16-.2-.29-.34-.37-.13-.08-.27-.13-.42-.15-.14-.02-.28-.03-.42-.03h-.74v2.4h.72c.24,0,.44-.03.6-.09.16-.06.29-.15.4-.26.11-.11.19-.24.25-.39s.08-.32.08-.5ZM456.23,232.59s0,.05-.02.06c-.01.02-.03.03-.06.04-.03.01-.07.02-.12.03-.05,0-.11,0-.19,0s-.14,0-.19,0c-.05,0-.09-.02-.12-.03-.03-.01-.05-.03-.06-.04-.01-.02-.02-.04-.02-.06v-4.17s0-.04.02-.06c.01-.02.03-.03.06-.05s.07-.02.12-.03c.05,0,.11,0,.19,0s.14,0,.19,0c.05,0,.09.02.12.03.03.01.05.03.06.05.01.02.02.04.02.06v4.17ZM456.32,227.01c0,.18-.03.3-.1.37-.07.06-.19.1-.38.1s-.3-.03-.37-.09c-.07-.06-.1-.18-.1-.36s.03-.3.1-.37c.07-.06.19-.1.38-.1s.3.03.37.09c.07.06.1.18.1.36ZM460.8,232.5s.04.08.04.11-.01.05-.04.07c-.03.02-.07.03-.13.04-.06,0-.14.01-.23.01s-.17,0-.22,0c-.05,0-.1-.01-.13-.02-.03-.01-.06-.02-.07-.04-.02-.02-.03-.04-.04-.06l-1-1.65-1,1.65s-.03.04-.04.06c-.02.02-.04.03-.07.04-.03.01-.07.02-.13.02-.05,0-.12,0-.21,0s-.16,0-.22-.01c-.06,0-.1-.02-.13-.04-.03-.02-.04-.04-.04-.07,0-.03.02-.07.04-.11l1.3-2.03-1.23-1.96s-.04-.08-.04-.11c0-.03.01-.05.04-.07.03-.02.07-.03.13-.04.06,0,.14,0,.24,0,.09,0,.16,0,.22,0,.05,0,.1.01.13.02.03,0,.05.02.07.04.02.02.03.03.04.06l.95,1.55.96-1.55s.03-.04.04-.05.04-.03.06-.04c.03-.01.06-.02.11-.02.05,0,.11,0,.2,0,.09,0,.16,0,.22,0,.06,0,.1.02.13.03.03.02.04.04.04.07,0,.03-.02.07-.05.12l-1.22,1.94,1.29,2.06ZM465.1,230.32c0,.12-.03.21-.09.26-.06.05-.13.08-.21.08h-2.75c0,.23.02.44.07.63.05.19.12.34.23.48.11.13.25.23.42.31.17.07.39.11.64.11.2,0,.38-.02.53-.05.16-.03.29-.07.4-.11.11-.04.21-.08.28-.11.07-.03.13-.05.17-.05.02,0,.04,0,.06.02.02.01.03.03.04.05,0,.02.02.05.02.09,0,.04,0,.09,0,.14,0,.04,0,.07,0,.1,0,.03,0,.06-.01.08,0,.02-.01.04-.02.06-.01.02-.02.04-.04.05-.02.02-.07.04-.15.08-.08.04-.19.08-.32.11-.13.04-.29.07-.46.1-.17.03-.36.04-.56.04-.34,0-.64-.05-.9-.14-.26-.1-.47-.24-.65-.43-.18-.19-.31-.42-.4-.71-.09-.28-.13-.61-.13-.99s.05-.68.14-.97c.09-.29.23-.53.4-.73.17-.2.39-.35.63-.46.25-.11.52-.16.83-.16.33,0,.61.05.84.16s.42.25.57.42c.15.18.26.39.33.63.07.24.1.49.1.77v.14ZM464.34,230.09c0-.4-.08-.72-.27-.95-.19-.23-.47-.34-.84-.34-.19,0-.36.04-.5.11s-.26.17-.36.28c-.1.12-.17.25-.22.41-.05.16-.08.32-.09.49h2.27ZM467.06,232.59s0,.05-.02.06c-.01.02-.03.03-.06.04-.03.01-.07.02-.12.03-.05,0-.11,0-.19,0s-.14,0-.19,0c-.05,0-.09-.02-.12-.03-.03-.01-.05-.03-.06-.04-.01-.02-.02-.04-.02-.06v-6.19s0-.05.02-.06c.01-.02.03-.03.06-.05.03-.01.07-.02.12-.03.05,0,.11,0,.19,0s.14,0,.19,0c.05,0,.09.02.12.03.03.01.05.03.06.05.01.02.02.04.02.06v6.19Z"/>
      <path d="M447.63,242.41c0,.28-.05.53-.16.75-.1.22-.25.41-.43.56-.18.15-.4.27-.65.35-.25.08-.52.12-.8.12-.2,0-.39-.02-.56-.05-.17-.03-.32-.08-.46-.13-.13-.05-.25-.1-.34-.15-.09-.05-.15-.1-.19-.13-.04-.04-.06-.08-.08-.14-.02-.06-.03-.13-.03-.23,0-.07,0-.12,0-.17,0-.04.02-.08.03-.11.01-.03.03-.05.05-.06.02-.01.04-.02.06-.02.04,0,.1.03.18.08.08.05.18.11.3.17.12.06.27.12.45.17.17.05.38.08.6.08.17,0,.33-.02.47-.07.14-.05.27-.11.37-.2.1-.08.18-.19.24-.31.06-.12.08-.26.08-.42,0-.17-.04-.32-.12-.44-.08-.12-.18-.23-.31-.32-.13-.09-.27-.17-.43-.25-.16-.08-.33-.15-.5-.23-.17-.08-.34-.17-.5-.26s-.3-.21-.43-.34c-.13-.13-.23-.28-.31-.46-.08-.17-.12-.38-.12-.63s.05-.47.14-.67c.09-.2.22-.36.38-.49.16-.13.36-.23.58-.3.22-.07.47-.1.73-.1.13,0,.27.01.4.03s.26.05.38.09c.12.04.22.08.32.13.09.05.15.09.18.12s.05.05.06.07c0,.02.02.04.02.06,0,.03.01.06.01.09,0,.04,0,.08,0,.14,0,.06,0,.11,0,.15,0,.04-.01.08-.02.11,0,.03-.02.05-.04.06-.02.01-.04.02-.06.02-.03,0-.09-.02-.16-.06-.07-.04-.16-.09-.27-.15-.11-.05-.23-.1-.37-.15-.14-.04-.31-.07-.48-.07-.17,0-.31.02-.44.07-.12.04-.23.1-.31.18-.08.07-.14.16-.18.26-.04.1-.06.21-.06.32,0,.17.04.31.12.43.08.12.18.23.31.32.13.09.27.18.44.25.16.08.33.16.5.23.17.08.34.17.5.26.16.09.31.21.44.33.13.13.23.28.31.45.08.17.12.38.12.62ZM452.26,243.97s0,.05-.02.06c-.01.02-.03.03-.06.04-.03.01-.07.02-.12.03-.05,0-.11,0-.19,0s-.14,0-.19,0c-.05,0-.09-.02-.12-.03-.03-.01-.05-.03-.06-.04-.01-.02-.02-.04-.02-.06v-2.44c0-.24-.02-.43-.06-.57-.04-.15-.09-.27-.16-.38-.07-.11-.16-.19-.28-.24-.11-.06-.24-.08-.39-.08-.19,0-.38.07-.57.2-.19.14-.39.34-.6.6v2.91s0,.05-.02.06c-.01.02-.03.03-.06.04-.03.01-.07.02-.12.03-.05,0-.11,0-.19,0s-.14,0-.19,0c-.05,0-.09-.02-.12-.03-.03-.01-.05-.03-.06-.04s-.02-.04-.02-.06v-6.19s0-.05.02-.06c.01-.02.03-.03.06-.05.03-.01.07-.02.12-.03.05,0,.11,0,.19,0s.14,0,.19,0c.05,0,.09.02.12.03.03.01.05.03.06.05.01.02.02.04.02.06v2.5c.22-.23.44-.4.66-.52.22-.11.45-.17.67-.17.28,0,.51.05.7.14.19.09.34.22.46.38.12.16.2.34.25.55s.08.47.08.77v2.54ZM456.76,243.98s-.01.06-.04.08c-.02.02-.06.03-.1.04-.04,0-.11.01-.19.01s-.14,0-.19-.01c-.05,0-.08-.02-.1-.04-.02-.02-.03-.05-.03-.08v-.42c-.18.19-.39.35-.61.45-.22.11-.46.16-.71.16-.22,0-.42-.03-.6-.09-.18-.06-.33-.14-.45-.25-.13-.11-.22-.24-.29-.4s-.1-.34-.1-.54c0-.23.05-.44.14-.61.1-.17.23-.32.41-.43.18-.11.4-.2.66-.26.26-.06.55-.09.88-.09h.57v-.32c0-.16-.02-.3-.05-.43-.03-.12-.09-.23-.16-.31-.08-.08-.17-.14-.29-.19-.12-.04-.27-.06-.44-.06-.19,0-.36.02-.51.07-.15.04-.28.09-.39.15-.11.05-.21.1-.28.15-.08.04-.13.07-.17.07-.02,0-.05,0-.06-.02-.02-.01-.03-.03-.05-.06-.01-.02-.02-.06-.03-.09s0-.08,0-.13c0-.08,0-.14.02-.18.01-.04.04-.09.08-.13.04-.04.11-.09.22-.14.1-.05.22-.1.35-.15.13-.04.28-.08.44-.11.16-.03.32-.04.48-.04.3,0,.55.03.76.1.21.07.38.17.51.3.13.13.22.29.28.49.06.19.09.42.09.68v2.81ZM456,242.07h-.65c-.21,0-.39.02-.55.05-.15.04-.28.09-.38.16-.1.07-.18.15-.22.25-.05.1-.07.21-.07.34,0,.22.07.39.21.52.14.13.33.19.58.19.2,0,.39-.05.56-.15.17-.1.35-.26.54-.47v-.88ZM461.73,243.97s0,.05-.02.06c-.01.02-.03.03-.06.04-.03.01-.06.02-.1.03-.04,0-.1,0-.16,0-.06,0-.12,0-.16,0-.04,0-.08-.01-.11-.03-.03-.01-.05-.03-.06-.04-.01-.02-.02-.04-.02-.06v-.55c-.22.24-.45.42-.68.56-.24.13-.49.2-.78.2-.31,0-.57-.06-.78-.18-.22-.12-.39-.28-.53-.48s-.23-.44-.29-.71c-.06-.27-.09-.56-.09-.86,0-.36.04-.68.12-.97.08-.29.19-.54.34-.74.15-.2.34-.36.56-.47.22-.11.48-.16.78-.16.24,0,.47.05.67.16.2.11.4.26.6.47v-2.42s0-.04.02-.06c.01-.02.03-.04.06-.05.03-.01.07-.02.12-.03.05,0,.11-.01.18-.01s.14,0,.19.01c.05,0,.09.02.12.03.03.01.05.03.06.05.01.02.02.04.02.06v6.17ZM460.97,241.04c-.21-.26-.41-.45-.6-.59-.19-.13-.39-.2-.6-.2-.19,0-.36.05-.5.14-.14.09-.25.21-.33.37-.08.15-.15.32-.19.51s-.06.39-.06.58c0,.21.02.42.05.62.03.2.09.38.17.54.08.16.19.28.32.38.13.09.3.14.5.14.1,0,.2-.01.29-.04.09-.03.19-.07.29-.14.1-.06.2-.15.31-.25.11-.1.22-.23.34-.38v-1.67ZM463.87,243.97s0,.05-.02.06c-.01.02-.03.03-.06.04-.03.01-.07.02-.12.03-.05,0-.11,0-.19,0s-.14,0-.19,0c-.05,0-.09-.02-.12-.03-.03-.01-.05-.03-.06-.04-.01-.02-.02-.04-.02-.06v-4.17s0-.04.02-.06c.01-.02.03-.03.06-.05s.07-.02.12-.03c.05,0,.11,0,.19,0s.14,0,.19,0c.05,0,.09.02.12.03.03.01.05.03.06.05.01.02.02.04.02.06v4.17ZM463.96,238.4c0,.18-.03.3-.1.37-.07.06-.19.1-.38.1s-.3-.03-.37-.09c-.07-.06-.1-.18-.1-.36s.03-.3.1-.37c.07-.06.19-.1.38-.1s.3.03.37.09c.07.06.1.18.1.36ZM468.87,243.97s0,.05-.02.06c-.01.02-.03.03-.06.04-.03.01-.07.02-.12.03-.05,0-.11,0-.19,0s-.14,0-.19,0c-.05,0-.09-.02-.12-.03-.03-.01-.05-.03-.06-.04-.01-.02-.02-.04-.02-.06v-2.44c0-.24-.02-.43-.06-.57-.04-.15-.09-.27-.16-.38s-.16-.19-.28-.24c-.11-.06-.24-.08-.39-.08-.19,0-.38.07-.57.2-.19.14-.39.34-.6.6v2.91s0,.05-.02.06c-.01.02-.03.03-.06.04-.03.01-.07.02-.12.03-.05,0-.11,0-.19,0s-.14,0-.19,0c-.05,0-.09-.02-.12-.03-.03-.01-.05-.03-.06-.04-.01-.02-.02-.04-.02-.06v-4.17s0-.05.01-.06c0-.02.03-.03.06-.05.03-.01.06-.02.11-.03.04,0,.1,0,.17,0s.12,0,.17,0c.04,0,.08.01.1.03.02.01.04.03.05.05.01.02.02.04.02.06v.55c.23-.26.47-.45.7-.58.23-.12.47-.18.71-.18.28,0,.51.05.7.14.19.09.34.22.46.38.12.16.2.34.25.55s.08.47.08.76v2.54ZM473.7,239.99c0,.11-.01.19-.04.23s-.07.07-.11.07h-.6c.11.11.18.23.23.37.04.13.06.27.06.42,0,.24-.04.45-.12.64-.08.19-.19.34-.33.47-.14.13-.31.23-.51.29-.2.07-.42.1-.66.1-.17,0-.33-.02-.48-.07-.15-.04-.27-.1-.35-.17-.06.06-.1.12-.14.19-.04.07-.05.15-.05.25,0,.11.05.2.15.27.1.07.23.11.4.12l1.09.05c.21,0,.4.03.57.09.17.05.32.12.45.22.13.09.23.21.3.35.07.14.11.3.11.48,0,.19-.04.37-.12.55-.08.17-.2.33-.37.46-.17.13-.38.23-.63.31-.26.08-.56.11-.91.11-.34,0-.62-.03-.86-.09-.24-.06-.43-.14-.58-.23-.15-.1-.26-.22-.33-.35-.07-.14-.1-.29-.1-.45,0-.1.01-.2.04-.3.02-.1.06-.19.11-.27.05-.09.11-.17.19-.25.08-.08.16-.16.26-.23-.15-.08-.26-.17-.34-.29-.07-.12-.11-.24-.11-.38,0-.19.04-.36.12-.51.08-.15.17-.28.29-.4-.1-.11-.17-.24-.23-.39-.06-.14-.08-.32-.08-.52,0-.24.04-.45.12-.64.08-.19.19-.35.33-.48.14-.13.31-.23.51-.3.2-.07.42-.1.65-.1.13,0,.24,0,.35.02.11.01.21.03.31.06h1.26c.05,0,.09.03.12.08.03.05.04.13.04.23ZM472.51,241.09c0-.28-.08-.51-.23-.66-.16-.16-.38-.24-.66-.24-.15,0-.28.02-.39.07-.11.05-.2.12-.27.2-.07.09-.13.19-.16.3-.04.11-.05.23-.05.35,0,.27.08.49.23.65.16.16.37.24.66.24.15,0,.28-.02.39-.07.11-.05.2-.11.28-.2.07-.08.13-.18.16-.29.04-.11.05-.23.05-.35ZM472.89,244.4c0-.18-.07-.32-.22-.41-.15-.1-.35-.15-.6-.16l-1.08-.04c-.1.08-.18.15-.24.22-.06.07-.11.14-.15.2-.04.06-.06.13-.08.19-.01.06-.02.13-.02.19,0,.2.1.35.31.46.2.1.49.16.85.16.23,0,.43-.02.58-.07.16-.04.28-.1.38-.18.1-.07.16-.16.21-.25.04-.1.06-.2.06-.3Z"/>
    </g>
  </g>
  <path class="cls-1" d="M423.29,234.08l10.44-20.87h50.2l10.44,20.87-10.44,20.87h-50.2l-10.44-20.87Z"/>
  <text class="cls-9" transform="translate(436.96 231.5)"><tspan x="0" y="0">Fragment</tspan></text>
  <text class="cls-9" transform="translate(440 242.88)"><tspan x="0" y="0">Shading</tspan></text>
  <path class="cls-6" d="M39.01,183.23h7.16v-4.96l7.16,9.92-7.16,9.92v-4.96h-7.16v-9.92Z"/>
  <path class="cls-6" d="M122.68,183.23h7.16v-4.96l7.16,9.92-7.16,9.92v-4.96h-7.16v-9.92Z"/>
  <path class="cls-6" d="M165.46,183.23h7.07v-4.96l7.07,9.92-7.07,9.92v-4.96h-7.07v-9.92Z"/>
  <path class="cls-6" d="M208.07,183.23h7.16v-4.96l7.16,9.92-7.16,9.92v-4.96h-7.16v-9.92Z"/>
  <path class="cls-6" d="M293.47,183.23h7.16v-4.96l7.16,9.92-7.16,9.92v-4.96h-7.16v-9.92Z"/>
  <path class="cls-6" d="M366.45,183.23h7.07v-4.96l7.07,9.92-7.07,9.92v-4.96h-7.07v-9.92Z"/>
  <path class="cls-6" d="M409.06,184.05h7.16v-4.92l7.16,9.83-7.16,9.83v-4.92h-7.16v-9.83Z"/>
  <path class="cls-6" d="M494.46,184.05h7.16v-4.92l7.16,9.83-7.16,9.83v-4.92h-7.16v-9.83Z"/>
  <path class="cls-6" d="M12.96,145.15h3.71v-55.72h7.42v55.72h3.71l-7.42,7.42-7.42-7.42Z"/>
  <path class="cls-6" d="M61.61,96.84h3.84v-7.42h7.68v7.42h3.84l-7.68,7.42-7.68-7.42Z"/>
  <path class="cls-6" d="M27.79,144.63h3.97v-11.21h7.94v11.21h3.97l-7.94,7.94-7.94-7.94Z"/>
  <path class="cls-14" d="M350.85,294.84l-.08-2.88-.24-2.91-.39-2.89-.54-2.87-.68-2.85-.82-2.82-.95-2.78-1.08-2.74-1.2-2.7-1.32-2.64-1.43-2.59-1.53-2.52-1.63-2.45-1.73-2.38-1.82-2.3-1.91-2.22-1.99-2.13-2.07-2.03-2.14-1.93-2.21-1.82-2.27-1.71-2.33-1.59-2.38-1.47-2.43-1.34-2.47-1.21-2.51-1.06-2.59-.93-2.21-.49-.51,2.32,2.14.47-.15-.04,2.48.9-.06-.02,2.45,1.04-.06-.03,2.42,1.18-.05-.03,2.38,1.31-.05-.03,2.33,1.44-.05-.03,2.28,1.56-.04-.03,2.23,1.68-.04-.03,2.17,1.79-.04-.03,2.1,1.9-.04-.03,2.03,2-.03-.04,1.96,2.09-.03-.04,1.88,2.18-.03-.04,1.79,2.26-.03-.04,1.7,2.34-.03-.04,1.61,2.41-.03-.04,1.51,2.48-.02-.04,1.4,2.54-.02-.04,1.29,2.6-.02-.05,1.18,2.65-.02-.05,1.06,2.69-.02-.05.93,2.73-.02-.05.8,2.76v-.05s.65,2.79.65,2.79v-.06s.52,2.82.52,2.82v-.06s.37,2.83.37,2.83v-.06s.23,2.84.23,2.84v-.06s.08,2.85.08,2.85l2.37-.07ZM307.74,230.05l-12.63,4.04,10.81,7.68,1.82-11.72Z"/>
  <path class="cls-14" d="M348.44,294.82l.11-2.89.32-2.93.53-2.91.73-2.89.92-2.86,1.11-2.83,1.29-2.79,1.46-2.75,1.62-2.7,1.78-2.65,1.92-2.59,2.07-2.52,2.2-2.45,2.33-2.38,2.45-2.3,2.57-2.21,2.68-2.12,2.78-2.03,2.87-1.92,2.96-1.81,3.04-1.7,3.12-1.59,3.19-1.46,3.25-1.33,3.31-1.2,3.35-1.05,3.4-.91,3.45-.76,3.13-.44.33,2.35-3.08.43.09-.02-3.38.74h.05s-3.35.88-3.35.88h.05s-3.31,1.02-3.31,1.02l.05-.02-3.26,1.18.04-.02-3.2,1.31.04-.02-3.14,1.44.04-.02-3.07,1.56.04-.02-3,1.68.04-.02-2.92,1.79.04-.02-2.83,1.9.04-.03-2.74,2,.04-.03-2.64,2.09.04-.03-2.53,2.18.04-.03-2.42,2.27.04-.04-2.29,2.34.04-.04-2.17,2.41.03-.04-2.03,2.48.03-.04-1.89,2.54.03-.05-1.74,2.6.03-.05-1.59,2.65.03-.06-1.43,2.69.03-.06-1.26,2.73.03-.06-1.08,2.77.02-.07-.9,2.79.02-.07-.71,2.82.02-.08-.52,2.83v-.08s-.3,2.84-.3,2.84v-.09s-.1,2.85-.1,2.85l-2.37-.09ZM410.83,229.21l12.33,4.87-11.3,6.94-1.04-11.82Z"/>
  <path class="cls-6" d="M62.81,49.92h3.8v-7.42h7.59v7.42h3.8l-7.59,7.42-7.59-7.42Z"/>
</svg>