<?xml version="1.0" encoding="UTF-8"?>
<svg id="Layer_1" data-name="Layer 1" xmlns="http://www.w3.org/2000/svg" viewBox="0 0 504 279">
  <defs>
    <style>
      .cls-1 {
        font-family: ArialMT, Arial;
        font-size: 9px;
      }

      .cls-1, .cls-2 {
        fill: #231f20;
      }

      .cls-3 {
        fill: none;
        stroke: #ed1c24;
      }

      .cls-3, .cls-4, .cls-5, .cls-6 {
        stroke-miterlimit: 10;
      }

      .cls-7 {
        fill: #ed1c24;
      }

      .cls-4 {
        fill: #4a72b8;
      }

      .cls-4, .cls-5, .cls-6 {
        stroke: #231f20;
      }

      .cls-5 {
        fill: #aec4e6;
      }

      .cls-6 {
        fill: #7b9acf;
      }
    </style>
  </defs>
  <rect class="cls-4" x="4.5" y="4.5" width="18" height="18"/>
  <rect class="cls-5" x="22.5" y="4.5" width="18" height="18"/>
  <rect class="cls-4" x="40.5" y="4.5" width="18" height="18"/>
  <rect class="cls-5" x="58.5" y="4.5" width="18" height="18"/>
  <rect class="cls-4" x="76.5" y="4.5" width="18" height="18"/>
  <rect class="cls-5" x="94.5" y="4.5" width="18" height="18"/>
  <rect class="cls-6" x="292.5" y="4.5" width="18" height="18"/>
  <rect class="cls-6" x="310.5" y="4.5" width="18" height="18"/>
  <rect class="cls-6" x="328.5" y="4.5" width="18" height="18"/>
  <rect class="cls-6" x="346.5" y="4.5" width="18" height="18"/>
  <rect class="cls-6" x="364.5" y="4.5" width="18" height="18"/>
  <rect class="cls-6" x="382.5" y="4.5" width="18" height="18"/>
  <rect class="cls-6" x="292.5" y="22.5" width="18" height="18"/>
  <rect class="cls-6" x="310.5" y="22.5" width="18" height="18"/>
  <rect class="cls-6" x="328.5" y="22.5" width="18" height="18"/>
  <rect class="cls-6" x="346.5" y="22.5" width="18" height="18"/>
  <rect class="cls-6" x="364.5" y="22.5" width="18" height="18"/>
  <rect class="cls-6" x="382.5" y="22.5" width="18" height="18"/>
  <rect class="cls-6" x="292.5" y="40.5" width="18" height="18"/>
  <rect class="cls-6" x="310.5" y="40.5" width="18" height="18"/>
  <rect class="cls-6" x="328.5" y="40.5" width="18" height="18"/>
  <rect class="cls-6" x="346.5" y="40.5" width="18" height="18"/>
  <rect class="cls-6" x="364.5" y="40.5" width="18" height="18"/>
  <rect class="cls-6" x="382.5" y="40.5" width="18" height="18"/>
  <rect class="cls-6" x="292.5" y="58.5" width="18" height="18"/>
  <rect class="cls-6" x="310.5" y="58.5" width="18" height="18"/>
  <rect class="cls-6" x="328.5" y="58.5" width="18" height="18"/>
  <rect class="cls-6" x="346.5" y="58.5" width="18" height="18"/>
  <rect class="cls-6" x="364.5" y="58.5" width="18" height="18"/>
  <rect class="cls-6" x="382.5" y="58.5" width="18" height="18"/>
  <rect class="cls-6" x="292.5" y="76.5" width="18" height="18"/>
  <rect class="cls-6" x="310.5" y="76.5" width="18" height="18"/>
  <rect class="cls-6" x="328.5" y="76.5" width="18" height="18"/>
  <rect class="cls-6" x="346.5" y="76.5" width="18" height="18"/>
  <rect class="cls-6" x="364.5" y="76.5" width="18" height="18"/>
  <rect class="cls-6" x="382.5" y="76.5" width="18" height="18"/>
  <rect class="cls-6" x="292.5" y="94.5" width="18" height="18"/>
  <rect class="cls-6" x="310.5" y="94.5" width="18" height="18"/>
  <rect class="cls-6" x="328.5" y="94.5" width="18" height="18"/>
  <rect class="cls-6" x="346.5" y="94.5" width="18" height="18"/>
  <rect class="cls-6" x="364.5" y="94.5" width="18" height="18"/>
  <rect class="cls-6" x="382.5" y="94.5" width="18" height="18"/>
  <rect class="cls-6" x="292.5" y="148.5" width="18" height="18"/>
  <rect class="cls-6" x="310.5" y="148.5" width="18" height="18"/>
  <rect class="cls-6" x="328.5" y="148.5" width="18" height="18"/>
  <rect class="cls-6" x="292.5" y="166.5" width="18" height="18"/>
  <rect class="cls-6" x="310.5" y="166.5" width="18" height="18"/>
  <rect class="cls-6" x="328.5" y="166.5" width="18" height="18"/>
  <rect class="cls-6" x="292.5" y="184.5" width="18" height="18"/>
  <rect class="cls-6" x="310.5" y="184.5" width="18" height="18"/>
  <rect class="cls-6" x="328.5" y="184.5" width="18" height="18"/>
  <rect class="cls-6" x="310.5" y="220.5" width="18" height="18"/>
  <rect class="cls-6" x="328.5" y="220.5" width="18" height="18"/>
  <rect class="cls-6" x="346.5" y="220.5" width="18" height="18"/>
  <rect class="cls-6" x="310.5" y="238.5" width="18" height="18"/>
  <rect class="cls-6" x="328.5" y="238.5" width="18" height="18"/>
  <rect class="cls-6" x="346.5" y="238.5" width="18" height="18"/>
  <rect class="cls-6" x="310.5" y="256.5" width="18" height="18"/>
  <rect class="cls-6" x="328.5" y="256.5" width="18" height="18"/>
  <rect class="cls-6" x="346.5" y="256.5" width="18" height="18"/>
  <rect class="cls-4" x="94.5" y="22.5" width="18" height="18"/>
  <rect class="cls-5" x="4.5" y="22.5" width="18" height="18"/>
  <rect class="cls-4" x="22.5" y="22.5" width="18" height="18"/>
  <rect class="cls-5" x="40.5" y="22.5" width="18" height="18"/>
  <rect class="cls-4" x="58.5" y="22.5" width="18" height="18"/>
  <rect class="cls-5" x="76.5" y="22.5" width="18" height="18"/>
  <rect class="cls-4" x="4.5" y="40.5" width="18" height="18"/>
  <rect class="cls-5" x="22.5" y="40.5" width="18" height="18"/>
  <rect class="cls-4" x="40.5" y="40.5" width="18" height="18"/>
  <rect class="cls-5" x="58.5" y="40.5" width="18" height="18"/>
  <rect class="cls-4" x="76.5" y="40.5" width="18" height="18"/>
  <rect class="cls-5" x="94.5" y="40.5" width="18" height="18"/>
  <rect class="cls-4" x="94.5" y="58.5" width="18" height="18"/>
  <rect class="cls-5" x="4.5" y="58.5" width="18" height="18"/>
  <rect class="cls-4" x="22.5" y="58.5" width="18" height="18"/>
  <rect class="cls-5" x="40.5" y="58.5" width="18" height="18"/>
  <rect class="cls-4" x="58.5" y="58.5" width="18" height="18"/>
  <rect class="cls-5" x="76.5" y="58.5" width="18" height="18"/>
  <rect class="cls-4" x="4.5" y="76.5" width="18" height="18"/>
  <rect class="cls-5" x="22.5" y="76.5" width="18" height="18"/>
  <rect class="cls-4" x="40.5" y="76.5" width="18" height="18"/>
  <rect class="cls-5" x="58.5" y="76.5" width="18" height="18"/>
  <rect class="cls-4" x="76.5" y="76.5" width="18" height="18"/>
  <rect class="cls-5" x="94.5" y="76.5" width="18" height="18"/>
  <rect class="cls-4" x="94.5" y="94.5" width="18" height="18"/>
  <rect class="cls-5" x="4.5" y="94.5" width="18" height="18"/>
  <rect class="cls-5" x="22.5" y="220.5" width="18" height="18"/>
  <rect class="cls-5" x="22.5" y="238.5" width="18" height="18"/>
  <rect class="cls-5" x="22.5" y="256.5" width="18" height="18"/>
  <rect class="cls-5" x="40.5" y="220.5" width="18" height="18"/>
  <rect class="cls-5" x="40.5" y="238.5" width="18" height="18"/>
  <rect class="cls-5" x="40.5" y="256.5" width="18" height="18"/>
  <rect class="cls-5" x="58.5" y="220.5" width="18" height="18"/>
  <rect class="cls-5" x="58.5" y="238.5" width="18" height="18"/>
  <rect class="cls-5" x="58.5" y="256.5" width="18" height="18"/>
  <rect class="cls-4" x="22.5" y="94.5" width="18" height="18"/>
  <rect class="cls-4" x="4.5" y="148.5" width="18" height="18"/>
  <rect class="cls-4" x="4.5" y="166.5" width="18" height="18"/>
  <rect class="cls-4" x="4.5" y="184.5" width="18" height="18"/>
  <rect class="cls-4" x="22.5" y="148.5" width="18" height="18"/>
  <rect class="cls-4" x="22.5" y="166.5" width="18" height="18"/>
  <rect class="cls-4" x="22.5" y="184.5" width="18" height="18"/>
  <rect class="cls-4" x="40.5" y="148.5" width="18" height="18"/>
  <rect class="cls-4" x="40.5" y="166.5" width="18" height="18"/>
  <rect class="cls-4" x="40.5" y="184.5" width="18" height="18"/>
  <rect class="cls-5" x="40.5" y="94.5" width="18" height="18"/>
  <rect class="cls-4" x="58.5" y="94.5" width="18" height="18"/>
  <rect class="cls-5" x="76.5" y="94.5" width="18" height="18"/>
  <g>
    <line class="cls-3" x1="9" y1="149.35" x2="9" y2="13.5"/>
    <path class="cls-7" d="M9,147.55l-3.6-2.19-.08.12,2.33,5.88c.45,2.05.9,4.09,1.35,6.14.45-2.05.9-4.09,1.35-6.14l2.33-5.88-.06-.12-3.62,2.19Z"/>
  </g>
  <g>
    <line class="cls-3" x1="13.5" y1="167.35" x2="13.5" y2="49.5"/>
    <path class="cls-7" d="M13.5,165.55l-3.6-2.19-.08.12,2.33,5.88c.45,2.05.9,4.09,1.35,6.14.45-2.05.9-4.09,1.35-6.14l2.33-5.88-.06-.12-3.62,2.19Z"/>
  </g>
  <g>
    <line class="cls-3" x1="18" y1="185.35" x2="18" y2="85.5"/>
    <path class="cls-7" d="M18,183.55l-3.6-2.19-.08.12,2.33,5.88c.45,2.05.9,4.09,1.35,6.14.45-2.05.9-4.09,1.35-6.14l2.33-5.88-.06-.12-3.62,2.19Z"/>
  </g>
  <g>
    <line class="cls-3" x1="27" y1="221.35" x2="27" y2="13.5"/>
    <path class="cls-7" d="M27,219.55l-3.6-2.19-.08.12,2.33,5.88c.45,2.05.9,4.09,1.35,6.14.45-2.05.9-4.09,1.35-6.14l2.33-5.88-.06-.12-3.62,2.19Z"/>
  </g>
  <g>
    <line class="cls-3" x1="31.5" y1="239.35" x2="31.5" y2="49.5"/>
    <path class="cls-7" d="M31.5,237.55l-3.6-2.19-.08.12,2.33,5.88c.45,2.05.9,4.09,1.35,6.14.45-2.05.9-4.09,1.35-6.14l2.33-5.88-.06-.12-3.62,2.19Z"/>
  </g>
  <g>
    <line class="cls-3" x1="36" y1="257.35" x2="36" y2="85.5"/>
    <path class="cls-7" d="M36,255.55l-3.6-2.19-.08.12,2.33,5.88c.45,2.05.9,4.09,1.35,6.14.45-2.05.9-4.09,1.35-6.14l2.33-5.88-.06-.12-3.62,2.19Z"/>
  </g>
  <g>
    <line class="cls-3" x1="297" y1="149.35" x2="297" y2="13.5"/>
    <path class="cls-7" d="M297,147.55l-3.6-2.19-.08.12,2.33,5.88c.45,2.05.9,4.09,1.35,6.14.45-2.05.9-4.09,1.35-6.14l2.33-5.88-.06-.12-3.62,2.19Z"/>
  </g>
  <g>
    <line class="cls-3" x1="301.5" y1="167.35" x2="301.5" y2="49.5"/>
    <path class="cls-7" d="M301.5,165.55l-3.6-2.19-.08.12,2.33,5.88c.45,2.05.9,4.09,1.35,6.14.45-2.05.9-4.09,1.35-6.14l2.33-5.88-.06-.12-3.62,2.19Z"/>
  </g>
  <g>
    <line class="cls-3" x1="306" y1="185.35" x2="306" y2="85.5"/>
    <path class="cls-7" d="M306,183.55l-3.6-2.19-.08.12,2.33,5.88c.45,2.05.9,4.09,1.35,6.14.45-2.05.9-4.09,1.35-6.14l2.33-5.88-.06-.12-3.62,2.19Z"/>
  </g>
  <g>
    <line class="cls-3" x1="315" y1="221.35" x2="315" y2="13.5"/>
    <path class="cls-7" d="M315,219.55l-3.6-2.19-.08.12,2.33,5.88c.45,2.05.9,4.09,1.35,6.14.45-2.05.9-4.09,1.35-6.14l2.33-5.88-.06-.12-3.62,2.19Z"/>
  </g>
  <g>
    <line class="cls-3" x1="319.5" y1="239.35" x2="319.5" y2="49.5"/>
    <path class="cls-7" d="M319.5,237.55l-3.6-2.19-.08.12,2.33,5.88c.45,2.05.9,4.09,1.35,6.14.45-2.05.9-4.09,1.35-6.14l2.33-5.88-.06-.12-3.62,2.19Z"/>
  </g>
  <g>
    <line class="cls-3" x1="324" y1="257.35" x2="324" y2="85.5"/>
    <path class="cls-7" d="M324,255.55l-3.6-2.19-.08.12,2.33,5.88c.45,2.05.9,4.09,1.35,6.14.45-2.05.9-4.09,1.35-6.14l2.33-5.88-.06-.12-3.62,2.19Z"/>
  </g>
  <text class="cls-1" transform="translate(88.98 166.5)"><tspan x="0" y="0">Every other pixel start on odd</tspan><tspan x="0" y="10.8">Downsample = all dark</tspan></text>
  <text class="cls-1" transform="translate(378 157.5)"><tspan x="0" y="0">Every other pixel start on odd</tspan><tspan x="0" y="10.8">Downsample = all mid blue</tspan></text>
  <text class="cls-1" transform="translate(378 234)"><tspan x="0" y="0">Every other pixel start on even</tspan><tspan x="0" y="10.8">Downsample = all mid blue</tspan></text>
  <text class="cls-1" transform="translate(90 234)"><tspan x="0" y="0">Every other pixel start on even</tspan><tspan x="0" y="10.8">Downsample = all light</tspan></text>
  <text class="cls-1" transform="translate(126 27)"><tspan x="0" y="0">Pre-filter first</tspan><tspan x="0" y="10.8">Checkboard becomes mid-tone</tspan><tspan x="0" y="21.6">Lose detail, but samples consistently</tspan></text>
  <polyline class="cls-2" points="121.5 54 121.5 63 274.5 63 274.5 72 288 58.5 274.5 45 274.5 54"/>
</svg>