<?xml version="1.0" encoding="UTF-8"?>
<svg id="Layer_1" data-name="Layer 1" xmlns="http://www.w3.org/2000/svg" viewBox="0 0 1091 220.22">
  <defs>
    <style>
      .cls-1, .cls-2, .cls-3, .cls-4, .cls-5, .cls-6, .cls-7, .cls-8, .cls-9, .cls-10, .cls-11, .cls-12, .cls-13, .cls-14, .cls-15, .cls-16 {
        stroke: #233a62;
      }

      .cls-1, .cls-2, .cls-3, .cls-7, .cls-16 {
        stroke-miterlimit: 10;
      }

      .cls-1, .cls-2, .cls-9, .cls-10, .cls-11 {
        stroke-width: 2px;
      }

      .cls-1, .cls-9, .cls-10, .cls-11 {
        fill: none;
      }

      .cls-2 {
        fill: rgba(237, 34, 36, .31);
      }

      .cls-3, .cls-4, .cls-5, .cls-6 {
        fill: #ed2224;
      }

      .cls-4, .cls-8, .cls-10, .cls-13 {
        stroke-miterlimit: 4;
      }

      .cls-5, .cls-11, .cls-14 {
        stroke-miterlimit: 3.99;
      }

      .cls-6, .cls-9, .cls-12, .cls-15 {
        stroke-miterlimit: 4;
      }

      .cls-7, .cls-8 {
        fill: rgba(237, 34, 36, .4);
      }

      .cls-17 {
        fill: #fff;
      }

      .cls-12 {
        fill: rgba(237, 34, 36, .41);
        stroke-width: 1.33px;
      }

      .cls-13, .cls-14, .cls-15, .cls-16 {
        fill: #c0bfbf;
      }
    </style>
  </defs>
  <rect class="cls-8" x="875.5" y="11.22" width="198" height="198"/>
  <rect class="cls-11" x="11.5" y="11.22" width="66.45" height="66.45"/>
  <rect class="cls-11" x="11.5" y="77.74" width="66.45" height="66.45"/>
  <rect class="cls-11" x="11.5" y="144.18" width="66.45" height="66.45"/>
  <rect class="cls-11" x="77.95" y="11.22" width="66.45" height="66.45"/>
  <rect class="cls-11" x="77.95" y="77.73" width="66.45" height="66.45"/>
  <rect class="cls-11" x="77.95" y="144.18" width="66.45" height="66.45"/>
  <rect class="cls-11" x="144.35" y="11.22" width="66.45" height="66.45"/>
  <rect class="cls-11" x="144.35" y="77.73" width="66.45" height="66.45"/>
  <rect class="cls-11" x="144.35" y="144.18" width="66.45" height="66.45"/>
  <circle class="cls-14" cx="44.72" cy="44.45" r="7.99"/>
  <circle class="cls-14" cx="111.18" cy="44.51" r="7.99"/>
  <circle class="cls-14" cx="177.69" cy="44.33" r="7.99"/>
  <circle class="cls-14" cx="44.72" cy="110.77" r="7.99"/>
  <circle class="cls-5" cx="111.18" cy="110.83" r="7.99"/>
  <circle class="cls-14" cx="177.69" cy="110.66" r="7.99"/>
  <circle class="cls-14" cx="44.72" cy="177.55" r="7.99"/>
  <circle class="cls-14" cx="111.18" cy="177.61" r="7.99"/>
  <circle class="cls-14" cx="177.69" cy="177.43" r="7.99"/>
  <rect class="cls-9" x="659.5" y="11.23" width="66.54" height="66.54"/>
  <rect class="cls-9" x="659.5" y="77.83" width="66.54" height="66.54"/>
  <rect class="cls-9" x="659.5" y="144.36" width="66.54" height="66.54"/>
  <rect class="cls-9" x="726.04" y="11.22" width="66.54" height="66.54"/>
  <rect class="cls-9" x="726.04" y="77.83" width="66.54" height="66.54"/>
  <rect class="cls-9" x="726.04" y="144.36" width="66.54" height="66.54"/>
  <rect class="cls-9" x="792.53" y="11.22" width="66.54" height="66.54"/>
  <rect class="cls-9" x="792.53" y="77.83" width="66.54" height="66.54"/>
  <rect class="cls-9" x="792.53" y="144.36" width="66.54" height="66.54"/>
  <circle class="cls-15" cx="692.77" cy="44.49" r="8"/>
  <circle class="cls-15" cx="759.31" cy="44.55" r="8"/>
  <circle class="cls-15" cx="825.91" cy="44.38" r="8"/>
  <circle class="cls-15" cx="692.77" cy="110.91" r="8"/>
  <circle class="cls-6" cx="759.31" cy="110.97" r="8"/>
  <circle class="cls-15" cx="825.91" cy="110.79" r="8"/>
  <circle class="cls-15" cx="692.77" cy="177.78" r="8"/>
  <circle class="cls-15" cx="759.31" cy="177.84" r="8"/>
  <circle class="cls-15" cx="825.91" cy="177.67" r="8"/>
  <rect class="cls-1" x="227.5" y="11.22" width="66.54" height="66.54"/>
  <rect class="cls-1" x="227.5" y="77.83" width="66.54" height="66.54"/>
  <rect class="cls-1" x="227.5" y="144.36" width="66.54" height="66.54"/>
  <rect class="cls-1" x="294.04" y="11.22" width="66.54" height="66.54"/>
  <rect class="cls-1" x="294.04" y="77.82" width="66.54" height="66.54"/>
  <rect class="cls-1" x="294.04" y="144.36" width="66.54" height="66.54"/>
  <rect class="cls-1" x="360.53" y="11.22" width="66.54" height="66.54"/>
  <rect class="cls-1" x="360.53" y="77.82" width="66.54" height="66.54"/>
  <rect class="cls-1" x="360.53" y="144.36" width="66.54" height="66.54"/>
  <circle class="cls-16" cx="260.77" cy="44.49" r="8"/>
  <circle class="cls-16" cx="327.31" cy="44.55" r="8"/>
  <circle class="cls-16" cx="393.91" cy="44.37" r="8"/>
  <circle class="cls-16" cx="260.77" cy="110.9" r="8"/>
  <circle class="cls-3" cx="327.31" cy="110.96" r="8"/>
  <circle class="cls-16" cx="393.91" cy="110.79" r="8"/>
  <circle class="cls-16" cx="260.77" cy="177.78" r="8"/>
  <circle class="cls-16" cx="327.31" cy="177.84" r="8"/>
  <circle class="cls-16" cx="393.91" cy="177.66" r="8"/>
  <rect class="cls-2" x="294.04" y="77.77" width="66.48" height="66.54"/>
  <path class="cls-12" d="M720.48,143.08l147.1-82.28-162.06,27.43,14.96,54.85Z"/>
  <rect class="cls-10" x="443.5" y="11.22" width="66.49" height="66.49"/>
  <rect class="cls-1" x="443.5" y="77.78" width="66.49" height="66.49"/>
  <rect class="cls-10" x="443.5" y="144.26" width="66.49" height="66.49"/>
  <rect class="cls-10" x="509.99" y="11.22" width="66.49" height="66.49"/>
  <rect class="cls-10" x="509.99" y="77.77" width="66.49" height="66.49"/>
  <rect class="cls-10" x="509.99" y="144.26" width="66.49" height="66.49"/>
  <rect class="cls-10" x="576.43" y="11.22" width="66.49" height="66.49"/>
  <rect class="cls-10" x="576.43" y="77.77" width="66.49" height="66.49"/>
  <rect class="cls-10" x="576.43" y="144.26" width="66.49" height="66.49"/>
  <circle class="cls-13" cx="476.74" cy="44.46" r="7.99"/>
  <circle class="cls-13" cx="543.23" cy="44.52" r="7.99"/>
  <circle class="cls-13" cx="609.79" cy="44.35" r="7.99"/>
  <circle class="cls-13" cx="476.74" cy="110.83" r="7.99"/>
  <circle class="cls-4" cx="543.23" cy="110.89" r="7.99"/>
  <circle class="cls-13" cx="609.79" cy="110.72" r="7.99"/>
  <circle class="cls-13" cx="476.74" cy="177.65" r="7.99"/>
  <circle class="cls-13" cx="543.23" cy="177.71" r="7.99"/>
  <circle class="cls-13" cx="609.79" cy="177.53" r="7.99"/>
  <rect class="cls-10" x="875.5" y="11.23" width="66.49" height="66.49"/>
  <rect class="cls-10" x="875.5" y="77.78" width="66.49" height="66.49"/>
  <rect class="cls-10" x="875.5" y="144.26" width="66.49" height="66.49"/>
  <rect class="cls-10" x="941.99" y="11.22" width="66.49" height="66.49"/>
  <rect class="cls-10" x="941.99" y="77.78" width="66.49" height="66.49"/>
  <rect class="cls-10" x="941.99" y="144.26" width="66.49" height="66.49"/>
  <rect class="cls-10" x="1008.43" y="11.22" width="66.49" height="66.49"/>
  <rect class="cls-10" x="1008.43" y="77.78" width="66.49" height="66.49"/>
  <rect class="cls-10" x="1008.43" y="144.26" width="66.49" height="66.49"/>
  <circle class="cls-13" cx="975.23" cy="44.52" r="7.99"/>
  <circle class="cls-13" cx="1041.79" cy="44.36" r="7.99"/>
  <circle class="cls-13" cx="908.74" cy="110.84" r="7.99"/>
  <circle class="cls-4" cx="975.23" cy="110.9" r="7.99"/>
  <circle class="cls-13" cx="1041.79" cy="110.72" r="7.99"/>
  <circle class="cls-13" cx="908.74" cy="177.65" r="7.99"/>
  <circle class="cls-13" cx="975.23" cy="177.71" r="7.99"/>
  <circle class="cls-13" cx="1041.79" cy="177.54" r="7.99"/>
  <circle class="cls-7" cx="542.81" cy="107.14" r="47.96"/>
  <rect class="cls-17" x="899.6" y="35.24" width="18.2" height="18.24"/>
  <circle class="cls-13" cx="908.74" cy="44.46" r="7.99"/>
  <rect class="cls-17" x="965.85" y="35.24" width="18.2" height="18.24"/>
  <circle class="cls-13" cx="975" cy="44.46" r="7.99"/>
  <rect class="cls-17" x="1033.1" y="35.24" width="18.2" height="18.24"/>
  <circle class="cls-13" cx="1042.24" cy="44.46" r="7.99"/>
  <rect class="cls-17" x="899.6" y="168.51" width="18.2" height="18.24"/>
  <circle class="cls-13" cx="908.74" cy="177.74" r="7.99"/>
  <rect class="cls-17" x="965.85" y="168.51" width="18.2" height="18.24"/>
  <circle class="cls-13" cx="975" cy="177.74" r="7.99"/>
  <rect class="cls-17" x="1033.1" y="168.51" width="18.2" height="18.24"/>
  <circle class="cls-13" cx="1042.24" cy="177.74" r="7.99"/>
  <rect class="cls-17" x="1033.1" y="101.17" width="18.2" height="18.24"/>
  <circle class="cls-13" cx="1042.24" cy="110.39" r="7.99"/>
  <rect class="cls-17" x="899.69" y="101.17" width="18.2" height="18.24"/>
  <circle class="cls-13" cx="908.83" cy="110.39" r="7.99"/>
</svg>