<?xml version="1.0" encoding="UTF-8"?>
<svg id="Layer_1" data-name="Layer 1" xmlns="http://www.w3.org/2000/svg" viewBox="0 0 400.5 130.5">
  <defs>
    <style>
      .cls-1 {
        fill: none;
        stroke: #231f20;
        stroke-miterlimit: 10;
      }

      .cls-2, .cls-3 {
        fill: #231f20;
        font-size: 9px;
      }

      .cls-2, .cls-4 {
        font-family: ArialMT, Arial;
      }

      .cls-5 {
        fill: #ed1c24;
      }

      .cls-6 {
        font-family: Arial-BoldMT, Arial;
        font-weight: 700;
      }
    </style>
  </defs>
  <rect class="cls-5" x="207" y="58.5" width="18" height="18"/>
  <text class="cls-3" transform="translate(6.22 112.5)"><tspan class="cls-6" x="0" y="0">Pixel:</tspan><tspan class="cls-4" x="24.01" y="0" xml:space="preserve"> measurement at point</tspan><tspan class="cls-4"><tspan x="38.52" y="10.8">(no area)</tspan></tspan></text>
  <text class="cls-2" transform="translate(161.47 112.5)"><tspan x="0" y="0">Square between pixels</tspan></text>
  <line class="cls-1" x1="27" y1="22.5" x2="99" y2="22.5"/>
  <line class="cls-1" x1="27" y1="40.5" x2="99" y2="40.5"/>
  <line class="cls-1" x1="27" y1="94.5" x2="99" y2="94.5"/>
  <line class="cls-1" x1="27" y1="76.5" x2="99" y2="76.5"/>
  <line class="cls-1" x1="27" y1="58.5" x2="99" y2="58.5"/>
  <line class="cls-1" x1="99" y1="22.5" x2="99" y2="94.5"/>
  <line class="cls-1" x1="81" y1="22.5" x2="81" y2="94.5"/>
  <line class="cls-1" x1="27" y1="22.5" x2="27" y2="94.5"/>
  <line class="cls-1" x1="45" y1="22.5" x2="45" y2="94.5"/>
  <line class="cls-1" x1="63" y1="22.5" x2="63" y2="94.5"/>
  <text class="cls-2" transform="translate(24.5 13.5)"><tspan x="0" y="0">0</tspan></text>
  <text class="cls-2" transform="translate(12.99 25.5)"><tspan x="0" y="0">0</tspan></text>
  <text class="cls-2" transform="translate(42.5 13.5)"><tspan x="0" y="0">1</tspan></text>
  <text class="cls-2" transform="translate(12.99 43.5)"><tspan x="0" y="0">1</tspan></text>
  <text class="cls-2" transform="translate(60.5 13.5)"><tspan x="0" y="0">2</tspan></text>
  <text class="cls-2" transform="translate(12.99 61.5)"><tspan x="0" y="0">2</tspan></text>
  <text class="cls-2" transform="translate(78.5 13.5)"><tspan x="0" y="0">3</tspan></text>
  <text class="cls-2" transform="translate(12.99 79.5)"><tspan x="0" y="0">3</tspan></text>
  <text class="cls-2" transform="translate(96.5 13.5)"><tspan x="0" y="0">4</tspan></text>
  <text class="cls-2" transform="translate(12.99 97.5)"><tspan x="0" y="0">4</tspan></text>
  <line class="cls-1" x1="171" y1="22.5" x2="243" y2="22.5"/>
  <line class="cls-1" x1="171" y1="40.5" x2="243" y2="40.5"/>
  <line class="cls-1" x1="171" y1="94.5" x2="243" y2="94.5"/>
  <line class="cls-1" x1="171" y1="76.5" x2="243" y2="76.5"/>
  <line class="cls-1" x1="171" y1="58.5" x2="243" y2="58.5"/>
  <line class="cls-1" x1="243" y1="22.5" x2="243" y2="94.5"/>
  <line class="cls-1" x1="225" y1="22.5" x2="225" y2="94.5"/>
  <line class="cls-1" x1="171" y1="22.5" x2="171" y2="94.5"/>
  <line class="cls-1" x1="189" y1="22.5" x2="189" y2="94.5"/>
  <line class="cls-1" x1="207" y1="22.5" x2="207" y2="94.5"/>
  <text class="cls-2" transform="translate(168.5 13.5)"><tspan x="0" y="0">0</tspan></text>
  <text class="cls-2" transform="translate(156.99 25.5)"><tspan x="0" y="0">0</tspan></text>
  <text class="cls-2" transform="translate(186.5 13.5)"><tspan x="0" y="0">1</tspan></text>
  <text class="cls-2" transform="translate(156.99 43.5)"><tspan x="0" y="0">1</tspan></text>
  <text class="cls-2" transform="translate(204.5 13.5)"><tspan x="0" y="0">2</tspan></text>
  <text class="cls-2" transform="translate(156.99 61.5)"><tspan x="0" y="0">2</tspan></text>
  <text class="cls-2" transform="translate(222.5 13.5)"><tspan x="0" y="0">3</tspan></text>
  <text class="cls-2" transform="translate(156.99 79.5)"><tspan x="0" y="0">3</tspan></text>
  <text class="cls-2" transform="translate(240.5 13.5)"><tspan x="0" y="0">4</tspan></text>
  <text class="cls-2" transform="translate(156.99 97.5)"><tspan x="0" y="0">4</tspan></text>
  <rect class="cls-5" x="342" y="49.5" width="18" height="18"/>
  <text class="cls-2" transform="translate(310.72 112.5)"><tspan x="0" y="0">Square around pixel</tspan><tspan x="5.51" y="10.8">(footprint of pixel)</tspan></text>
  <line class="cls-1" x1="315" y1="22.5" x2="387" y2="22.5"/>
  <line class="cls-1" x1="315" y1="40.5" x2="387" y2="40.5"/>
  <line class="cls-1" x1="315" y1="94.5" x2="387" y2="94.5"/>
  <line class="cls-1" x1="315" y1="76.5" x2="387" y2="76.5"/>
  <line class="cls-1" x1="315" y1="58.5" x2="387" y2="58.5"/>
  <line class="cls-1" x1="387" y1="22.5" x2="387" y2="94.5"/>
  <line class="cls-1" x1="369" y1="22.5" x2="369" y2="94.5"/>
  <line class="cls-1" x1="315" y1="22.5" x2="315" y2="94.5"/>
  <line class="cls-1" x1="333" y1="22.5" x2="333" y2="94.5"/>
  <line class="cls-1" x1="351" y1="22.5" x2="351" y2="94.5"/>
  <text class="cls-2" transform="translate(312.5 13.5)"><tspan x="0" y="0">0</tspan></text>
  <text class="cls-2" transform="translate(300.99 25.5)"><tspan x="0" y="0">0</tspan></text>
  <text class="cls-2" transform="translate(330.5 13.5)"><tspan x="0" y="0">1</tspan></text>
  <text class="cls-2" transform="translate(300.99 43.5)"><tspan x="0" y="0">1</tspan></text>
  <text class="cls-2" transform="translate(348.5 13.5)"><tspan x="0" y="0">2</tspan></text>
  <text class="cls-2" transform="translate(300.99 61.5)"><tspan x="0" y="0">2</tspan></text>
  <text class="cls-2" transform="translate(366.5 13.5)"><tspan x="0" y="0">3</tspan></text>
  <text class="cls-2" transform="translate(300.99 79.5)"><tspan x="0" y="0">3</tspan></text>
  <text class="cls-2" transform="translate(384.5 13.5)"><tspan x="0" y="0">4</tspan></text>
  <text class="cls-2" transform="translate(300.99 97.5)"><tspan x="0" y="0">4</tspan></text>
  <circle class="cls-5" cx="63" cy="58.5" r="2.25"/>
</svg>