<?xml version="1.0" encoding="UTF-8"?>
<!-- 1D Sampling Diagram: Aliasing and Anti-Aliasing
     Mathematically generated curves for accuracy.
     Each visual element is in its own named <g> layer for Illustrator editing.
     Text is live (not outlined) — uses Helvetica Neue / Helvetica / Arial. -->
<svg xmlns="http://www.w3.org/2000/svg"
     width="900" height="520"
     viewBox="0 0 900 520">

  <defs>
    <marker id="arrowhead" markerWidth="8" markerHeight="6"
            refX="8" refY="3" orient="auto">
      <path d="M0,0 L8,3 L0,6 Z" fill="#444"/>
    </marker>
    <clipPath id="top-clip">
      <rect x="60" y="25" width="810" height="205"/>
    </clipPath>
    <clipPath id="bot-clip">
      <rect x="60" y="285" width="810" height="205"/>
    </clipPath>
  </defs>

  <!-- =============================== -->
  <!-- LAYER: Background               -->
  <!-- =============================== -->
  <g id="Background">
    <rect x="0" y="0" width="900" height="520" fill="#ffffff"/>
  </g>

  <!-- =============================== -->
  <!-- LAYER: Panel-Titles             -->
  <!-- =============================== -->
  <g id="Panel-Titles" font-family="Helvetica Neue, Helvetica, Arial, sans-serif">
    <text x="450" y="18" text-anchor="middle" font-size="14" font-weight="bold" fill="#222"
          letter-spacing="0.3">Before Filtering: Samples Miss the Fast Variations</text>
    <text x="450" y="278" text-anchor="middle" font-size="14" font-weight="bold" fill="#222"
          letter-spacing="0.3">After Low-Pass Filtering: Samples Capture Everything That Remains</text>
  </g>

  <!-- ============================================================ -->
  <!--                     TOP PANEL                                 -->
  <!-- ============================================================ -->

  <g id="Top-Axes">
    <line x1="80" y1="140" x2="860" y2="140"
          stroke="#bbb" stroke-width="0.75" marker-end="url(#arrowhead)"/>
    <line x1="80" y1="230" x2="80" y2="30"
          stroke="#bbb" stroke-width="0.75" marker-end="url(#arrowhead)"/>
  </g>

  <g id="Top-Signal-Original" clip-path="url(#top-clip)">
    <path d="M 80.0,140.0 L 82.0,136.6 L 84.0,133.2 L 86.0,129.9 L 88.0,126.7 L 90.0,123.6 L 92.0,120.6 L 94.0,117.8 L 96.0,115.2 L 98.0,112.8 L 100.0,110.6 L 102.0,108.7 L 104.0,107.0 L 106.0,105.5 L 108.0,104.4 L 110.0,103.5 L 112.0,102.8 L 114.0,102.5 L 116.0,102.4 L 118.0,102.5 L 120.0,102.9 L 122.0,103.5 L 124.0,104.3 L 126.0,105.3 L 128.0,106.4 L 130.0,107.7 L 132.0,109.1 L 134.0,110.5 L 136.0,112.1 L 138.0,113.6 L 140.0,115.1 L 142.0,116.6 L 144.0,118.1 L 146.0,119.4 L 148.0,120.6 L 150.0,121.7 L 152.0,122.7 L 154.0,123.4 L 156.0,123.9 L 158.0,124.3 L 160.0,124.3 L 162.0,124.2 L 164.0,123.8 L 166.0,123.1 L 168.0,122.2 L 170.0,121.0 L 172.0,119.6 L 174.0,117.9 L 176.0,116.0 L 178.0,113.9 L 180.0,111.7 L 182.0,109.2 L 184.0,106.6 L 186.0,103.8 L 188.0,100.9 L 190.0,98.0 L 192.0,95.0 L 194.0,92.0 L 196.0,89.0 L 198.0,86.1 L 200.0,83.2 L 202.0,80.4 L 204.0,77.7 L 206.0,75.2 L 208.0,72.9 L 210.0,70.7 L 212.0,68.8 L 214.0,67.1 L 216.0,65.6 L 218.0,64.5 L 220.0,63.5 L 222.0,62.9 L 224.0,62.6 L 226.0,62.5 L 228.0,62.7 L 230.0,63.2 L 232.0,63.9 L 234.0,64.9 L 236.0,66.1 L 238.0,67.5 L 240.0,69.1 L 242.0,70.9 L 244.0,72.9 L 246.0,74.9 L 248.0,77.1 L 250.0,79.3 L 252.0,81.5 L 254.0,83.8 L 256.0,86.0 L 258.0,88.2 L 260.0,90.3 L 262.0,92.3 L 264.0,94.2 L 266.0,95.9 L 268.0,97.5 L 270.0,98.8 L 272.0,99.9 L 274.0,100.9 L 276.0,101.5 L 278.0,102.0 L 280.0,102.1 L 282.0,102.1 L 284.0,101.8 L 286.0,101.2 L 288.0,100.4 L 290.0,99.4 L 292.0,98.2 L 294.0,96.7 L 296.0,95.1 L 298.0,93.4 L 300.0,91.5 L 302.0,89.5 L 304.0,87.5 L 306.0,85.4 L 308.0,83.2 L 310.0,81.1 L 312.0,79.0 L 314.0,77.0 L 316.0,75.1 L 318.0,73.3 L 320.0,71.6 L 322.0,70.2 L 324.0,68.9 L 326.0,67.8 L 328.0,67.0 L 330.0,66.4 L 332.0,66.1 L 334.0,66.0 L 336.0,66.2 L 338.0,66.7 L 340.0,67.5 L 342.0,68.5 L 344.0,69.9 L 346.0,71.5 L 348.0,73.3 L 350.0,75.3 L 352.0,77.6 L 354.0,80.1 L 356.0,82.7 L 358.0,85.5 L 360.0,88.4 L 362.0,91.4 L 364.0,94.5 L 366.0,97.6 L 368.0,100.7 L 370.0,103.8 L 372.0,106.8 L 374.0,109.8 L 376.0,112.6 L 378.0,115.3 L 380.0,117.9 L 382.0,120.2 L 384.0,122.4 L 386.0,124.4 L 388.0,126.1 L 390.0,127.6 L 392.0,128.8 L 394.0,129.8 L 396.0,130.5 L 398.0,131.0 L 400.0,131.2 L 402.0,131.2 L 404.0,130.9 L 406.0,130.4 L 408.0,129.7 L 410.0,128.8 L 412.0,127.8 L 414.0,126.6 L 416.0,125.3 L 418.0,123.9 L 420.0,122.5 L 422.0,121.0 L 424.0,119.5 L 426.0,118.1 L 428.0,116.7 L 430.0,115.3 L 432.0,114.1 L 434.0,113.0 L 436.0,112.1 L 438.0,111.3 L 440.0,110.8 L 442.0,110.5 L 444.0,110.4 L 446.0,110.5 L 448.0,110.9 L 450.0,111.6 L 452.0,112.6 L 454.0,113.8 L 456.0,115.2 L 458.0,117.0 L 460.0,118.9 L 462.0,121.2 L 464.0,123.6 L 466.0,126.2 L 468.0,129.1 L 470.0,132.0 L 472.0,135.2 L 474.0,138.4 L 476.0,141.7 L 478.0,145.1 L 480.0,148.5 L 482.0,151.9 L 484.0,155.2 L 486.0,158.5 L 488.0,161.7 L 490.0,164.8 L 492.0,167.7 L 494.0,170.5 L 496.0,173.1 L 498.0,175.4 L 500.0,177.6 L 502.0,179.5 L 504.0,181.1 L 506.0,182.5 L 508.0,183.6 L 510.0,184.4 L 512.0,185.0 L 514.0,185.3 L 516.0,185.3 L 518.0,185.1 L 520.0,184.7 L 522.0,184.0 L 524.0,183.1 L 526.0,182.1 L 528.0,180.8 L 530.0,179.5 L 532.0,178.0 L 534.0,176.5 L 536.0,174.9 L 538.0,173.3 L 540.0,171.7 L 542.0,170.1 L 544.0,168.6 L 546.0,167.2 L 548.0,165.9 L 550.0,164.8 L 552.0,163.8 L 554.0,163.0 L 556.0,162.4 L 558.0,162.0 L 560.0,161.8 L 562.0,161.9 L 564.0,162.2 L 566.0,162.8 L 568.0,163.7 L 570.0,164.8 L 572.0,166.1 L 574.0,167.7 L 576.0,169.5 L 578.0,171.5 L 580.0,173.7 L 582.0,176.1 L 584.0,178.6 L 586.0,181.3 L 588.0,184.0 L 590.0,186.9 L 592.0,189.7 L 594.0,192.6 L 596.0,195.5 L 598.0,198.3 L 600.0,201.1 L 602.0,203.8 L 604.0,206.3 L 606.0,208.7 L 608.0,210.9 L 610.0,212.9 L 612.0,214.7 L 614.0,216.3 L 616.0,217.6 L 618.0,218.6 L 620.0,219.4 L 622.0,219.8 L 624.0,220.0 L 626.0,220.0 L 628.0,219.6 L 630.0,219.0 L 632.0,218.1 L 634.0,217.0 L 636.0,215.6 L 638.0,214.0 L 640.0,212.3 L 642.0,210.3 L 644.0,208.3 L 646.0,206.1 L 648.0,203.8 L 650.0,201.4 L 652.0,199.0 L 654.0,196.6 L 656.0,194.3 L 658.0,191.9 L 660.0,189.7 L 662.0,187.6 L 664.0,185.6 L 666.0,183.7 L 668.0,182.1 L 670.0,180.6 L 672.0,179.4 L 674.0,178.3 L 676.0,177.6 L 678.0,177.0 L 680.0,176.7 L 682.0,176.7 L 684.0,176.9 L 686.0,177.3 L 688.0,178.0 L 690.0,178.9 L 692.0,180.0 L 694.0,181.3 L 696.0,182.8 L 698.0,184.4 L 700.0,186.2 L 702.0,188.0 L 704.0,190.0 L 706.0,192.0 L 708.0,194.0 L 710.0,196.0 L 712.0,197.9 L 714.0,199.8 L 716.0,201.6 L 718.0,203.3 L 720.0,204.8 L 722.0,206.1 L 724.0,207.3 L 726.0,208.2 L 728.0,208.9 L 730.0,209.4 L 732.0,209.6 L 734.0,209.5 L 736.0,209.1 L 738.0,208.5 L 740.0,207.6 L 742.0,206.4 L 744.0,204.9 L 746.0,203.2 L 748.0,201.3 L 750.0,199.1 L 752.0,196.7 L 754.0,194.1 L 756.0,191.4 L 758.0,188.5 L 760.0,185.5 L 762.0,182.4 L 764.0,179.2 L 766.0,176.0 L 768.0,172.8 L 770.0,169.7 L 772.0,166.5 L 774.0,163.5 L 776.0,160.6 L 778.0,157.8 L 780.0,155.2 L 782.0,152.8 L 784.0,150.6 L 786.0,148.5 L 788.0,146.8 L 790.0,145.2 L 792.0,143.9 L 794.0,142.9 L 796.0,142.2 L 798.0,141.7 L 800.0,141.4 L 802.0,141.4 L 804.0,141.6 L 806.0,142.1 L 808.0,142.7 L 810.0,143.6 L 812.0,144.6 L 814.0,145.7 L 816.0,147.0 L 818.0,148.3 L 820.0,149.7 L 822.0,151.2 L 824.0,152.6 L 826.0,154.1 L 828.0,155.4 L 830.0,156.7 L 832.0,157.9 L 834.0,159.0 L 836.0,159.9 L 838.0,160.6 L 840.0,161.1 L 842.0,161.4 L 844.0,161.4 L 846.0,161.3 L 848.0,160.8 L 850.0,160.1"
          fill="none" stroke="#2266CC" stroke-width="2.2" stroke-linejoin="round"/>
  </g>

  <g id="Top-Slow-Component" clip-path="url(#top-clip)">
    <path d="M 80.0,140.0 L 82.0,139.0 L 84.0,138.0 L 86.0,137.0 L 88.0,136.1 L 90.0,135.1 L 92.0,134.1 L 94.0,133.1 L 96.0,132.2 L 98.0,131.2 L 100.0,130.2 L 102.0,129.2 L 104.0,128.3 L 106.0,127.3 L 108.0,126.3 L 110.0,125.4 L 112.0,124.4 L 114.0,123.5 L 116.0,122.5 L 118.0,121.6 L 120.0,120.7 L 122.0,119.7 L 124.0,118.8 L 126.0,117.9 L 128.0,117.0 L 130.0,116.1 L 132.0,115.2 L 134.0,114.3 L 136.0,113.4 L 138.0,112.5 L 140.0,111.7 L 142.0,110.8 L 144.0,109.9 L 146.0,109.1 L 148.0,108.3 L 150.0,107.4 L 152.0,106.6 L 154.0,105.8 L 156.0,105.0 L 158.0,104.2 L 160.0,103.4 L 162.0,102.6 L 164.0,101.9 L 166.0,101.1 L 168.0,100.4 L 170.0,99.6 L 172.0,98.9 L 174.0,98.2 L 176.0,97.5 L 178.0,96.8 L 180.0,96.1 L 182.0,95.5 L 184.0,94.8 L 186.0,94.2 L 188.0,93.5 L 190.0,92.9 L 192.0,92.3 L 194.0,91.7 L 196.0,91.2 L 198.0,90.6 L 200.0,90.0 L 202.0,89.5 L 204.0,89.0 L 206.0,88.5 L 208.0,88.0 L 210.0,87.5 L 212.0,87.0 L 214.0,86.6 L 216.0,86.1 L 218.0,85.7 L 220.0,85.3 L 222.0,84.9 L 224.0,84.5 L 226.0,84.1 L 228.0,83.8 L 230.0,83.5 L 232.0,83.1 L 234.0,82.8 L 236.0,82.5 L 238.0,82.3 L 240.0,82.0 L 242.0,81.8 L 244.0,81.5 L 246.0,81.3 L 248.0,81.1 L 250.0,80.9 L 252.0,80.8 L 254.0,80.6 L 256.0,80.5 L 258.0,80.4 L 260.0,80.3 L 262.0,80.2 L 264.0,80.1 L 266.0,80.1 L 268.0,80.0 L 270.0,80.0 L 272.0,80.0 L 274.0,80.0 L 276.0,80.0 L 278.0,80.1 L 280.0,80.1 L 282.0,80.2 L 284.0,80.3 L 286.0,80.4 L 288.0,80.5 L 290.0,80.7 L 292.0,80.8 L 294.0,81.0 L 296.0,81.2 L 298.0,81.4 L 300.0,81.6 L 302.0,81.9 L 304.0,82.1 L 306.0,82.4 L 308.0,82.7 L 310.0,83.0 L 312.0,83.3 L 314.0,83.6 L 316.0,83.9 L 318.0,84.3 L 320.0,84.7 L 322.0,85.1 L 324.0,85.5 L 326.0,85.9 L 328.0,86.3 L 330.0,86.8 L 332.0,87.2 L 334.0,87.7 L 336.0,88.2 L 338.0,88.7 L 340.0,89.2 L 342.0,89.7 L 344.0,90.3 L 346.0,90.8 L 348.0,91.4 L 350.0,92.0 L 352.0,92.6 L 354.0,93.2 L 356.0,93.8 L 358.0,94.5 L 360.0,95.1 L 362.0,95.8 L 364.0,96.4 L 366.0,97.1 L 368.0,97.8 L 370.0,98.5 L 372.0,99.2 L 374.0,100.0 L 376.0,100.7 L 378.0,101.4 L 380.0,102.2 L 382.0,103.0 L 384.0,103.7 L 386.0,104.5 L 388.0,105.3 L 390.0,106.1 L 392.0,107.0 L 394.0,107.8 L 396.0,108.6 L 398.0,109.5 L 400.0,110.3 L 402.0,111.2 L 404.0,112.0 L 406.0,112.9 L 408.0,113.8 L 410.0,114.7 L 412.0,115.6 L 414.0,116.5 L 416.0,117.4 L 418.0,118.3 L 420.0,119.2 L 422.0,120.1 L 424.0,121.1 L 426.0,122.0 L 428.0,123.0 L 430.0,123.9 L 432.0,124.9 L 434.0,125.8 L 436.0,126.8 L 438.0,127.7 L 440.0,128.7 L 442.0,129.7 L 444.0,130.6 L 446.0,131.6 L 448.0,132.6 L 450.0,133.6 L 452.0,134.5 L 454.0,135.5 L 456.0,136.5 L 458.0,137.5 L 460.0,138.5 L 462.0,139.4 L 464.0,140.4 L 466.0,141.4 L 468.0,142.4 L 470.0,143.4 L 472.0,144.4 L 474.0,145.3 L 476.0,146.3 L 478.0,147.3 L 480.0,148.3 L 482.0,149.3 L 484.0,150.2 L 486.0,151.2 L 488.0,152.2 L 490.0,153.1 L 492.0,154.1 L 494.0,155.0 L 496.0,156.0 L 498.0,156.9 L 500.0,157.9 L 502.0,158.8 L 504.0,159.7 L 506.0,160.7 L 508.0,161.6 L 510.0,162.5 L 512.0,163.4 L 514.0,164.3 L 516.0,165.2 L 518.0,166.1 L 520.0,167.0 L 522.0,167.9 L 524.0,168.7 L 526.0,169.6 L 528.0,170.4 L 530.0,171.3 L 532.0,172.1 L 534.0,172.9 L 536.0,173.8 L 538.0,174.6 L 540.0,175.4 L 542.0,176.2 L 544.0,176.9 L 546.0,177.7 L 548.0,178.5 L 550.0,179.2 L 552.0,180.0 L 554.0,180.7 L 556.0,181.4 L 558.0,182.1 L 560.0,182.8 L 562.0,183.5 L 564.0,184.2 L 566.0,184.8 L 568.0,185.5 L 570.0,186.1 L 572.0,186.7 L 574.0,187.3 L 576.0,187.9 L 578.0,188.5 L 580.0,189.1 L 582.0,189.7 L 584.0,190.2 L 586.0,190.7 L 588.0,191.3 L 590.0,191.8 L 592.0,192.2 L 594.0,192.7 L 596.0,193.2 L 598.0,193.6 L 600.0,194.1 L 602.0,194.5 L 604.0,194.9 L 606.0,195.3 L 608.0,195.7 L 610.0,196.0 L 612.0,196.4 L 614.0,196.7 L 616.0,197.0 L 618.0,197.3 L 620.0,197.6 L 622.0,197.9 L 624.0,198.1 L 626.0,198.3 L 628.0,198.6 L 630.0,198.8 L 632.0,199.0 L 634.0,199.1 L 636.0,199.3 L 638.0,199.4 L 640.0,199.6 L 642.0,199.7 L 644.0,199.8 L 646.0,199.8 L 648.0,199.9 L 650.0,200.0 L 652.0,200.0 L 654.0,200.0 L 656.0,200.0 L 658.0,200.0 L 660.0,199.9 L 662.0,199.9 L 664.0,199.8 L 666.0,199.7 L 668.0,199.6 L 670.0,199.5 L 672.0,199.4 L 674.0,199.2 L 676.0,199.1 L 678.0,198.9 L 680.0,198.7 L 682.0,198.5 L 684.0,198.3 L 686.0,198.0 L 688.0,197.8 L 690.0,197.5 L 692.0,197.2 L 694.0,196.9 L 696.0,196.6 L 698.0,196.3 L 700.0,195.9 L 702.0,195.5 L 704.0,195.2 L 706.0,194.8 L 708.0,194.4 L 710.0,193.9 L 712.0,193.5 L 714.0,193.0 L 716.0,192.6 L 718.0,192.1 L 720.0,191.6 L 722.0,191.1 L 724.0,190.6 L 726.0,190.0 L 728.0,189.5 L 730.0,188.9 L 732.0,188.3 L 734.0,187.8 L 736.0,187.1 L 738.0,186.5 L 740.0,185.9 L 742.0,185.3 L 744.0,184.6 L 746.0,183.9 L 748.0,183.3 L 750.0,182.6 L 752.0,181.9 L 754.0,181.2 L 756.0,180.5 L 758.0,179.7 L 760.0,179.0 L 762.0,178.2 L 764.0,177.5 L 766.0,176.7 L 768.0,175.9 L 770.0,175.1 L 772.0,174.3 L 774.0,173.5 L 776.0,172.7 L 778.0,171.9 L 780.0,171.0 L 782.0,170.2 L 784.0,169.3 L 786.0,168.4 L 788.0,167.6 L 790.0,166.7 L 792.0,165.8 L 794.0,164.9 L 796.0,164.0 L 798.0,163.1 L 800.0,162.2 L 802.0,161.3 L 804.0,160.4 L 806.0,159.4 L 808.0,158.5 L 810.0,157.6 L 812.0,156.6 L 814.0,155.7 L 816.0,154.7 L 818.0,153.8 L 820.0,152.8 L 822.0,151.8 L 824.0,150.9 L 826.0,149.9 L 828.0,148.9 L 830.0,148.0 L 832.0,147.0 L 834.0,146.0 L 836.0,145.0 L 838.0,144.1 L 840.0,143.1 L 842.0,142.1 L 844.0,141.1 L 846.0,140.1 L 848.0,139.1 L 850.0,138.2"
          fill="none" stroke="#2266CC" stroke-width="1.2"
          stroke-dasharray="8,5" opacity="0.4"/>
  </g>

  <g id="Top-Reconstructed" clip-path="url(#top-clip)">
    <polyline points="80,140 165.6,123.3 251.1,80.5 336.7,66.4 422.2,120.9 507.8,183.5 593.3,191.7 678.9,176.8 764.4,178.5 850,160.1"
              fill="none" stroke="#DD4444" stroke-width="1.4"
              stroke-dasharray="6,4" opacity="0.55"/>
  </g>

  <g id="Top-Sample-Lines" stroke="#DD4444" stroke-width="1" stroke-dasharray="4,3" opacity="0.4">
    <line x1="165.6" y1="140" x2="165.6" y2="123.3"/>
    <line x1="251.1" y1="140" x2="251.1" y2="80.5"/>
    <line x1="336.7" y1="140" x2="336.7" y2="66.4"/>
    <line x1="422.2" y1="140" x2="422.2" y2="120.9"/>
    <line x1="507.8" y1="140" x2="507.8" y2="183.5"/>
    <line x1="593.3" y1="140" x2="593.3" y2="191.7"/>
    <line x1="678.9" y1="140" x2="678.9" y2="176.8"/>
    <line x1="764.4" y1="140" x2="764.4" y2="178.5"/>
  </g>

  <g id="Top-Sample-Points">
    <circle cx="165.6" cy="123.3" r="5.5" fill="#DD4444" stroke="#fff" stroke-width="1.5"/>
    <circle cx="251.1" cy="80.5" r="5.5" fill="#DD4444" stroke="#fff" stroke-width="1.5"/>
    <circle cx="336.7" cy="66.4" r="5.5" fill="#DD4444" stroke="#fff" stroke-width="1.5"/>
    <circle cx="422.2" cy="120.9" r="5.5" fill="#DD4444" stroke="#fff" stroke-width="1.5"/>
    <circle cx="507.8" cy="183.5" r="5.5" fill="#DD4444" stroke="#fff" stroke-width="1.5"/>
    <circle cx="593.3" cy="191.7" r="5.5" fill="#DD4444" stroke="#fff" stroke-width="1.5"/>
    <circle cx="678.9" cy="176.8" r="5.5" fill="#DD4444" stroke="#fff" stroke-width="1.5"/>
    <circle cx="764.4" cy="178.5" r="5.5" fill="#DD4444" stroke="#fff" stroke-width="1.5"/>
  </g>

  <g id="Top-Annotations" font-family="Helvetica Neue, Helvetica, Arial, sans-serif">
    <!-- Highlight: fast wiggles region -->
    <rect x="170" y="42" width="210" height="18" rx="3" fill="#fff" fill-opacity="0.85"/>
    <text x="275" y="56" text-anchor="middle" font-size="11" fill="#DD4444" font-weight="600"
          >samples miss the fast wiggles</text>

    <!-- Callout arrow -->
    <line x1="275" y1="58" x2="260" y2="68" stroke="#DD4444" stroke-width="0.8"/>

    <!-- Slow trend label -->
    <rect x="600" y="204" width="155" height="18" rx="3" fill="#fff" fill-opacity="0.85"/>
    <text x="678" y="217" text-anchor="middle" font-size="10.5" fill="#888" font-style="italic"
          >slow trend (well captured)</text>
  </g>

  <g id="Top-Legend" font-family="Helvetica Neue, Helvetica, Arial, sans-serif" font-size="10.5"
     transform="translate(625,30)">
    <line x1="0" y1="7" x2="22" y2="7" stroke="#2266CC" stroke-width="2.2"/>
    <text x="28" y="10" fill="#333">Original signal</text>
    <line x1="0" y1="23" x2="22" y2="23" stroke="#2266CC" stroke-width="1.2" stroke-dasharray="8,5" opacity="0.5"/>
    <text x="28" y="26" fill="#333">Slow component only</text>
    <circle cx="11" cy="40" r="4" fill="#DD4444" stroke="#fff" stroke-width="1"/>
    <text x="28" y="43" fill="#333">Sample points</text>
    <line x1="0" y1="56" x2="22" y2="56" stroke="#DD4444" stroke-width="1.4" stroke-dasharray="6,4" opacity="0.6"/>
    <text x="28" y="59" fill="#333">Reconstructed from samples</text>
  </g>

  <!-- ============================================================ -->
  <!--                    BOTTOM PANEL                               -->
  <!-- ============================================================ -->

  <g id="Bottom-Axes">
    <line x1="80" y1="400" x2="860" y2="400"
          stroke="#bbb" stroke-width="0.75" marker-end="url(#arrowhead)"/>
    <line x1="80" y1="490" x2="80" y2="290"
          stroke="#bbb" stroke-width="0.75" marker-end="url(#arrowhead)"/>
  </g>

  <g id="Bottom-Original-Ghost" clip-path="url(#bot-clip)" opacity="0.15">
    <path d="M 80.0,400.0 L 82.0,396.6 L 84.0,393.2 L 86.0,389.9 L 88.0,386.7 L 90.0,383.6 L 92.0,380.6 L 94.0,377.8 L 96.0,375.2 L 98.0,372.8 L 100.0,370.6 L 102.0,368.7 L 104.0,367.0 L 106.0,365.5 L 108.0,364.4 L 110.0,363.5 L 112.0,362.8 L 114.0,362.5 L 116.0,362.4 L 118.0,362.5 L 120.0,362.9 L 122.0,363.5 L 124.0,364.3 L 126.0,365.3 L 128.0,366.4 L 130.0,367.7 L 132.0,369.1 L 134.0,370.5 L 136.0,372.1 L 138.0,373.6 L 140.0,375.1 L 142.0,376.6 L 144.0,378.1 L 146.0,379.4 L 148.0,380.6 L 150.0,381.7 L 152.0,382.7 L 154.0,383.4 L 156.0,383.9 L 158.0,384.3 L 160.0,384.3 L 162.0,384.2 L 164.0,383.8 L 166.0,383.1 L 168.0,382.2 L 170.0,381.0 L 172.0,379.6 L 174.0,377.9 L 176.0,376.0 L 178.0,373.9 L 180.0,371.7 L 182.0,369.2 L 184.0,366.6 L 186.0,363.8 L 188.0,360.9 L 190.0,358.0 L 192.0,355.0 L 194.0,352.0 L 196.0,349.0 L 198.0,346.1 L 200.0,343.2 L 202.0,340.4 L 204.0,337.7 L 206.0,335.2 L 208.0,332.9 L 210.0,330.7 L 212.0,328.8 L 214.0,327.1 L 216.0,325.6 L 218.0,324.5 L 220.0,323.5 L 222.0,322.9 L 224.0,322.6 L 226.0,322.5 L 228.0,322.7 L 230.0,323.2 L 232.0,323.9 L 234.0,324.9 L 236.0,326.1 L 238.0,327.5 L 240.0,329.1 L 242.0,330.9 L 244.0,332.9 L 246.0,334.9 L 248.0,337.1 L 250.0,339.3 L 252.0,341.5 L 254.0,343.8 L 256.0,346.0 L 258.0,348.2 L 260.0,350.3 L 262.0,352.3 L 264.0,354.2 L 266.0,355.9 L 268.0,357.5 L 270.0,358.8 L 272.0,359.9 L 274.0,360.9 L 276.0,361.5 L 278.0,362.0 L 280.0,362.1 L 282.0,362.1 L 284.0,361.8 L 286.0,361.2 L 288.0,360.4 L 290.0,359.4 L 292.0,358.2 L 294.0,356.7 L 296.0,355.1 L 298.0,353.4 L 300.0,351.5 L 302.0,349.5 L 304.0,347.5 L 306.0,345.4 L 308.0,343.2 L 310.0,341.1 L 312.0,339.0 L 314.0,337.0 L 316.0,335.1 L 318.0,333.3 L 320.0,331.6 L 322.0,330.2 L 324.0,328.9 L 326.0,327.8 L 328.0,327.0 L 330.0,326.4 L 332.0,326.1 L 334.0,326.0 L 336.0,326.2 L 338.0,326.7 L 340.0,327.5 L 342.0,328.5 L 344.0,329.9 L 346.0,331.5 L 348.0,333.3 L 350.0,335.3 L 352.0,337.6 L 354.0,340.1 L 356.0,342.7 L 358.0,345.5 L 360.0,348.4 L 362.0,351.4 L 364.0,354.5 L 366.0,357.6 L 368.0,360.7 L 370.0,363.8 L 372.0,366.8 L 374.0,369.8 L 376.0,372.6 L 378.0,375.3 L 380.0,377.9 L 382.0,380.2 L 384.0,382.4 L 386.0,384.4 L 388.0,386.1 L 390.0,387.6 L 392.0,388.8 L 394.0,389.8 L 396.0,390.5 L 398.0,391.0 L 400.0,391.2 L 402.0,391.2 L 404.0,390.9 L 406.0,390.4 L 408.0,389.7 L 410.0,388.8 L 412.0,387.8 L 414.0,386.6 L 416.0,385.3 L 418.0,383.9 L 420.0,382.5 L 422.0,381.0 L 424.0,379.5 L 426.0,378.1 L 428.0,376.7 L 430.0,375.3 L 432.0,374.1 L 434.0,373.0 L 436.0,372.1 L 438.0,371.3 L 440.0,370.8 L 442.0,370.5 L 444.0,370.4 L 446.0,370.5 L 448.0,370.9 L 450.0,371.6 L 452.0,372.6 L 454.0,373.8 L 456.0,375.2 L 458.0,377.0 L 460.0,378.9 L 462.0,381.2 L 464.0,383.6 L 466.0,386.2 L 468.0,389.1 L 470.0,392.0 L 472.0,395.2 L 474.0,398.4 L 476.0,401.7 L 478.0,405.1 L 480.0,408.5 L 482.0,411.9 L 484.0,415.2 L 486.0,418.5 L 488.0,421.7 L 490.0,424.8 L 492.0,427.7 L 494.0,430.5 L 496.0,433.1 L 498.0,435.4 L 500.0,437.6 L 502.0,439.5 L 504.0,441.1 L 506.0,442.5 L 508.0,443.6 L 510.0,444.4 L 512.0,445.0 L 514.0,445.3 L 516.0,445.3 L 518.0,445.1 L 520.0,444.7 L 522.0,444.0 L 524.0,443.1 L 526.0,442.1 L 528.0,440.8 L 530.0,439.5 L 532.0,438.0 L 534.0,436.5 L 536.0,434.9 L 538.0,433.3 L 540.0,431.7 L 542.0,430.1 L 544.0,428.6 L 546.0,427.2 L 548.0,425.9 L 550.0,424.8 L 552.0,423.8 L 554.0,423.0 L 556.0,422.4 L 558.0,422.0 L 560.0,421.8 L 562.0,421.9 L 564.0,422.2 L 566.0,422.8 L 568.0,423.7 L 570.0,424.8 L 572.0,426.1 L 574.0,427.7 L 576.0,429.5 L 578.0,431.5 L 580.0,433.7 L 582.0,436.1 L 584.0,438.6 L 586.0,441.3 L 588.0,444.0 L 590.0,446.9 L 592.0,449.7 L 594.0,452.6 L 596.0,455.5 L 598.0,458.3 L 600.0,461.1 L 602.0,463.8 L 604.0,466.3 L 606.0,468.7 L 608.0,470.9 L 610.0,472.9 L 612.0,474.7 L 614.0,476.3 L 616.0,477.6 L 618.0,478.6 L 620.0,479.4 L 622.0,479.8 L 624.0,480.0 L 626.0,480.0 L 628.0,479.6 L 630.0,479.0 L 632.0,478.1 L 634.0,477.0 L 636.0,475.6 L 638.0,474.0 L 640.0,472.3 L 642.0,470.3 L 644.0,468.3 L 646.0,466.1 L 648.0,463.8 L 650.0,461.4 L 652.0,459.0 L 654.0,456.6 L 656.0,454.3 L 658.0,451.9 L 660.0,449.7 L 662.0,447.6 L 664.0,445.6 L 666.0,443.7 L 668.0,442.1 L 670.0,440.6 L 672.0,439.4 L 674.0,438.3 L 676.0,437.6 L 678.0,437.0 L 680.0,436.7 L 682.0,436.7 L 684.0,436.9 L 686.0,437.3 L 688.0,438.0 L 690.0,438.9 L 692.0,440.0 L 694.0,441.3 L 696.0,442.8 L 698.0,444.4 L 700.0,446.2 L 702.0,448.0 L 704.0,450.0 L 706.0,452.0 L 708.0,454.0 L 710.0,456.0 L 712.0,457.9 L 714.0,459.8 L 716.0,461.6 L 718.0,463.3 L 720.0,464.8 L 722.0,466.1 L 724.0,467.3 L 726.0,468.2 L 728.0,468.9 L 730.0,469.4 L 732.0,469.6 L 734.0,469.5 L 736.0,469.1 L 738.0,468.5 L 740.0,467.6 L 742.0,466.4 L 744.0,464.9 L 746.0,463.2 L 748.0,461.3 L 750.0,459.1 L 752.0,456.7 L 754.0,454.1 L 756.0,451.4 L 758.0,448.5 L 760.0,445.5 L 762.0,442.4 L 764.0,439.2 L 766.0,436.0 L 768.0,432.8 L 770.0,429.7 L 772.0,426.5 L 774.0,423.5 L 776.0,420.6 L 778.0,417.8 L 780.0,415.2 L 782.0,412.8 L 784.0,410.6 L 786.0,408.5 L 788.0,406.8 L 790.0,405.2 L 792.0,403.9 L 794.0,402.9 L 796.0,402.2 L 798.0,401.7 L 800.0,401.4 L 802.0,401.4 L 804.0,401.6 L 806.0,402.1 L 808.0,402.7 L 810.0,403.6 L 812.0,404.6 L 814.0,405.7 L 816.0,407.0 L 818.0,408.3 L 820.0,409.7 L 822.0,411.2 L 824.0,412.6 L 826.0,414.1 L 828.0,415.4 L 830.0,416.7 L 832.0,417.9 L 834.0,419.0 L 836.0,419.9 L 838.0,420.6 L 840.0,421.1 L 842.0,421.4 L 844.0,421.4 L 846.0,421.3 L 848.0,420.8 L 850.0,420.1"
          fill="none" stroke="#2266CC" stroke-width="1.8"/>
  </g>

  <g id="Bottom-Filtered-Signal" clip-path="url(#bot-clip)">
    <path d="M 80.0,400.0 L 82.0,399.0 L 84.0,398.0 L 86.0,397.0 L 88.0,396.1 L 90.0,395.1 L 92.0,394.1 L 94.0,393.1 L 96.0,392.2 L 98.0,391.2 L 100.0,390.2 L 102.0,389.2 L 104.0,388.3 L 106.0,387.3 L 108.0,386.3 L 110.0,385.4 L 112.0,384.4 L 114.0,383.5 L 116.0,382.5 L 118.0,381.6 L 120.0,380.7 L 122.0,379.7 L 124.0,378.8 L 126.0,377.9 L 128.0,377.0 L 130.0,376.1 L 132.0,375.2 L 134.0,374.3 L 136.0,373.4 L 138.0,372.5 L 140.0,371.7 L 142.0,370.8 L 144.0,369.9 L 146.0,369.1 L 148.0,368.3 L 150.0,367.4 L 152.0,366.6 L 154.0,365.8 L 156.0,365.0 L 158.0,364.2 L 160.0,363.4 L 162.0,362.6 L 164.0,361.9 L 166.0,361.1 L 168.0,360.4 L 170.0,359.6 L 172.0,358.9 L 174.0,358.2 L 176.0,357.5 L 178.0,356.8 L 180.0,356.1 L 182.0,355.5 L 184.0,354.8 L 186.0,354.2 L 188.0,353.5 L 190.0,352.9 L 192.0,352.3 L 194.0,351.7 L 196.0,351.2 L 198.0,350.6 L 200.0,350.0 L 202.0,349.5 L 204.0,349.0 L 206.0,348.5 L 208.0,348.0 L 210.0,347.5 L 212.0,347.0 L 214.0,346.6 L 216.0,346.1 L 218.0,345.7 L 220.0,345.3 L 222.0,344.9 L 224.0,344.5 L 226.0,344.1 L 228.0,343.8 L 230.0,343.5 L 232.0,343.1 L 234.0,342.8 L 236.0,342.5 L 238.0,342.3 L 240.0,342.0 L 242.0,341.8 L 244.0,341.5 L 246.0,341.3 L 248.0,341.1 L 250.0,340.9 L 252.0,340.8 L 254.0,340.6 L 256.0,340.5 L 258.0,340.4 L 260.0,340.3 L 262.0,340.2 L 264.0,340.1 L 266.0,340.1 L 268.0,340.0 L 270.0,340.0 L 272.0,340.0 L 274.0,340.0 L 276.0,340.0 L 278.0,340.1 L 280.0,340.1 L 282.0,340.2 L 284.0,340.3 L 286.0,340.4 L 288.0,340.5 L 290.0,340.7 L 292.0,340.8 L 294.0,341.0 L 296.0,341.2 L 298.0,341.4 L 300.0,341.6 L 302.0,341.9 L 304.0,342.1 L 306.0,342.4 L 308.0,342.7 L 310.0,343.0 L 312.0,343.3 L 314.0,343.6 L 316.0,343.9 L 318.0,344.3 L 320.0,344.7 L 322.0,345.1 L 324.0,345.5 L 326.0,345.9 L 328.0,346.3 L 330.0,346.8 L 332.0,347.2 L 334.0,347.7 L 336.0,348.2 L 338.0,348.7 L 340.0,349.2 L 342.0,349.7 L 344.0,350.3 L 346.0,350.8 L 348.0,351.4 L 350.0,352.0 L 352.0,352.6 L 354.0,353.2 L 356.0,353.8 L 358.0,354.5 L 360.0,355.1 L 362.0,355.8 L 364.0,356.4 L 366.0,357.1 L 368.0,357.8 L 370.0,358.5 L 372.0,359.2 L 374.0,360.0 L 376.0,360.7 L 378.0,361.4 L 380.0,362.2 L 382.0,363.0 L 384.0,363.7 L 386.0,364.5 L 388.0,365.3 L 390.0,366.1 L 392.0,367.0 L 394.0,367.8 L 396.0,368.6 L 398.0,369.5 L 400.0,370.3 L 402.0,371.2 L 404.0,372.0 L 406.0,372.9 L 408.0,373.8 L 410.0,374.7 L 412.0,375.6 L 414.0,376.5 L 416.0,377.4 L 418.0,378.3 L 420.0,379.2 L 422.0,380.1 L 424.0,381.1 L 426.0,382.0 L 428.0,383.0 L 430.0,383.9 L 432.0,384.9 L 434.0,385.8 L 436.0,386.8 L 438.0,387.7 L 440.0,388.7 L 442.0,389.7 L 444.0,390.6 L 446.0,391.6 L 448.0,392.6 L 450.0,393.6 L 452.0,394.5 L 454.0,395.5 L 456.0,396.5 L 458.0,397.5 L 460.0,398.5 L 462.0,399.4 L 464.0,400.4 L 466.0,401.4 L 468.0,402.4 L 470.0,403.4 L 472.0,404.4 L 474.0,405.3 L 476.0,406.3 L 478.0,407.3 L 480.0,408.3 L 482.0,409.3 L 484.0,410.2 L 486.0,411.2 L 488.0,412.2 L 490.0,413.1 L 492.0,414.1 L 494.0,415.0 L 496.0,416.0 L 498.0,416.9 L 500.0,417.9 L 502.0,418.8 L 504.0,419.7 L 506.0,420.7 L 508.0,421.6 L 510.0,422.5 L 512.0,423.4 L 514.0,424.3 L 516.0,425.2 L 518.0,426.1 L 520.0,427.0 L 522.0,427.9 L 524.0,428.7 L 526.0,429.6 L 528.0,430.4 L 530.0,431.3 L 532.0,432.1 L 534.0,432.9 L 536.0,433.8 L 538.0,434.6 L 540.0,435.4 L 542.0,436.2 L 544.0,436.9 L 546.0,437.7 L 548.0,438.5 L 550.0,439.2 L 552.0,440.0 L 554.0,440.7 L 556.0,441.4 L 558.0,442.1 L 560.0,442.8 L 562.0,443.5 L 564.0,444.2 L 566.0,444.8 L 568.0,445.5 L 570.0,446.1 L 572.0,446.7 L 574.0,447.3 L 576.0,447.9 L 578.0,448.5 L 580.0,449.1 L 582.0,449.7 L 584.0,450.2 L 586.0,450.7 L 588.0,451.3 L 590.0,451.8 L 592.0,452.2 L 594.0,452.7 L 596.0,453.2 L 598.0,453.6 L 600.0,454.1 L 602.0,454.5 L 604.0,454.9 L 606.0,455.3 L 608.0,455.7 L 610.0,456.0 L 612.0,456.4 L 614.0,456.7 L 616.0,457.0 L 618.0,457.3 L 620.0,457.6 L 622.0,457.9 L 624.0,458.1 L 626.0,458.3 L 628.0,458.6 L 630.0,458.8 L 632.0,459.0 L 634.0,459.1 L 636.0,459.3 L 638.0,459.4 L 640.0,459.6 L 642.0,459.7 L 644.0,459.8 L 646.0,459.8 L 648.0,459.9 L 650.0,460.0 L 652.0,460.0 L 654.0,460.0 L 656.0,460.0 L 658.0,460.0 L 660.0,459.9 L 662.0,459.9 L 664.0,459.8 L 666.0,459.7 L 668.0,459.6 L 670.0,459.5 L 672.0,459.4 L 674.0,459.2 L 676.0,459.1 L 678.0,458.9 L 680.0,458.7 L 682.0,458.5 L 684.0,458.3 L 686.0,458.0 L 688.0,457.8 L 690.0,457.5 L 692.0,457.2 L 694.0,456.9 L 696.0,456.6 L 698.0,456.3 L 700.0,455.9 L 702.0,455.5 L 704.0,455.2 L 706.0,454.8 L 708.0,454.4 L 710.0,453.9 L 712.0,453.5 L 714.0,453.0 L 716.0,452.6 L 718.0,452.1 L 720.0,451.6 L 722.0,451.1 L 724.0,450.6 L 726.0,450.0 L 728.0,449.5 L 730.0,448.9 L 732.0,448.3 L 734.0,447.8 L 736.0,447.1 L 738.0,446.5 L 740.0,445.9 L 742.0,445.3 L 744.0,444.6 L 746.0,443.9 L 748.0,443.3 L 750.0,442.6 L 752.0,441.9 L 754.0,441.2 L 756.0,440.5 L 758.0,439.7 L 760.0,439.0 L 762.0,438.2 L 764.0,437.5 L 766.0,436.7 L 768.0,435.9 L 770.0,435.1 L 772.0,434.3 L 774.0,433.5 L 776.0,432.7 L 778.0,431.9 L 780.0,431.0 L 782.0,430.2 L 784.0,429.3 L 786.0,428.4 L 788.0,427.6 L 790.0,426.7 L 792.0,425.8 L 794.0,424.9 L 796.0,424.0 L 798.0,423.1 L 800.0,422.2 L 802.0,421.3 L 804.0,420.4 L 806.0,419.4 L 808.0,418.5 L 810.0,417.6 L 812.0,416.6 L 814.0,415.7 L 816.0,414.7 L 818.0,413.8 L 820.0,412.8 L 822.0,411.8 L 824.0,410.9 L 826.0,409.9 L 828.0,408.9 L 830.0,408.0 L 832.0,407.0 L 834.0,406.0 L 836.0,405.0 L 838.0,404.1 L 840.0,403.1 L 842.0,402.1 L 844.0,401.1 L 846.0,400.1 L 848.0,399.1 L 850.0,398.2"
          fill="none" stroke="#22AA55" stroke-width="2.2" stroke-linejoin="round"/>
  </g>

  <g id="Bottom-Reconstructed" clip-path="url(#bot-clip)">
    <polyline points="80,400 165.6,361.3 251.1,340.8 336.7,348.3 422.2,380.3 507.8,421.5 593.3,452.6 678.9,458.8 764.4,437.3 850,398.2"
              fill="none" stroke="#22AA55" stroke-width="1.4"
              stroke-dasharray="6,4" opacity="0.6"/>
  </g>

  <g id="Bottom-Sample-Lines" stroke="#22AA55" stroke-width="1" stroke-dasharray="4,3" opacity="0.4">
    <line x1="165.6" y1="400" x2="165.6" y2="361.3"/>
    <line x1="251.1" y1="400" x2="251.1" y2="340.8"/>
    <line x1="336.7" y1="400" x2="336.7" y2="348.3"/>
    <line x1="422.2" y1="400" x2="422.2" y2="380.3"/>
    <line x1="507.8" y1="400" x2="507.8" y2="421.5"/>
    <line x1="593.3" y1="400" x2="593.3" y2="452.6"/>
    <line x1="678.9" y1="400" x2="678.9" y2="458.8"/>
    <line x1="764.4" y1="400" x2="764.4" y2="437.3"/>
  </g>

  <g id="Bottom-Sample-Points">
    <circle cx="165.6" cy="361.3" r="5.5" fill="#22AA55" stroke="#fff" stroke-width="1.5"/>
    <circle cx="251.1" cy="340.8" r="5.5" fill="#22AA55" stroke="#fff" stroke-width="1.5"/>
    <circle cx="336.7" cy="348.3" r="5.5" fill="#22AA55" stroke="#fff" stroke-width="1.5"/>
    <circle cx="422.2" cy="380.3" r="5.5" fill="#22AA55" stroke="#fff" stroke-width="1.5"/>
    <circle cx="507.8" cy="421.5" r="5.5" fill="#22AA55" stroke="#fff" stroke-width="1.5"/>
    <circle cx="593.3" cy="452.6" r="5.5" fill="#22AA55" stroke="#fff" stroke-width="1.5"/>
    <circle cx="678.9" cy="458.8" r="5.5" fill="#22AA55" stroke="#fff" stroke-width="1.5"/>
    <circle cx="764.4" cy="437.3" r="5.5" fill="#22AA55" stroke="#fff" stroke-width="1.5"/>
  </g>

  <g id="Bottom-Annotations" font-family="Helvetica Neue, Helvetica, Arial, sans-serif">
    <rect x="170" y="310" width="220" height="18" rx="3" fill="#fff" fill-opacity="0.85"/>
    <text x="280" y="323" text-anchor="middle" font-size="11" fill="#22AA55" font-weight="600"
          >wiggles gone — samples capture the shape!</text>

    <rect x="568" y="468" width="155" height="18" rx="3" fill="#fff" fill-opacity="0.85"/>
    <text x="646" y="481" text-anchor="middle" font-size="10.5" fill="#888" font-style="italic"
          >overall shape preserved</text>
  </g>

  <g id="Bottom-Legend" font-family="Helvetica Neue, Helvetica, Arial, sans-serif" font-size="10.5"
     transform="translate(625,290)">
    <line x1="0" y1="7" x2="22" y2="7" stroke="#2266CC" stroke-width="1.8" opacity="0.18"/>
    <text x="28" y="10" fill="#aaa">Original (reference)</text>
    <line x1="0" y1="23" x2="22" y2="23" stroke="#22AA55" stroke-width="2.2"/>
    <text x="28" y="26" fill="#333">Filtered signal</text>
    <circle cx="11" cy="40" r="4" fill="#22AA55" stroke="#fff" stroke-width="1"/>
    <text x="28" y="43" fill="#333">Sample points</text>
    <line x1="0" y1="56" x2="22" y2="56" stroke="#22AA55" stroke-width="1.4" stroke-dasharray="6,4" opacity="0.7"/>
    <text x="28" y="59" fill="#333">Reconstructed from samples</text>
  </g>

  <!-- =============================== -->
  <!-- LAYER: Axis-Labels              -->
  <!-- =============================== -->
  <g id="Axis-Labels" font-family="Helvetica Neue, Helvetica, Arial, sans-serif" font-size="11" fill="#999">
    <text x="850" y="154" text-anchor="end" font-style="italic">position</text>
    <text x="88" y="38" font-style="italic">value</text>
    <text x="850" y="414" text-anchor="end" font-style="italic">position</text>
    <text x="88" y="298" font-style="italic">value</text>
  </g>

</svg>